<svg version="1.1" xmlns="http://www.w3.org/2000/svg" viewBox="0 0 1120 760" width="1120" height="760" filter="invert(93%) hue-rotate(180deg)">
  <!-- svg-source:excalidraw -->
  
  <defs>
    <style class="style-fonts">
      @font-face {
        font-family: "Virgil";
        src: url("https://excalidraw.com/Virgil.woff2");
      }
      @font-face {
        font-family: "Cascadia";
        src: url("https://excalidraw.com/Cascadia.woff2");
      }
    </style>
    
  </defs>
  <g transform="translate(20.576912773645347 225.02245934753842) rotate(0 6.1083984375 11.5)"><text x="0" y="0" font-family="Helvetica, Segoe UI Emoji" font-size="20px" fill="transparent" text-anchor="start" style="white-space: pre;" direction="ltr" dominant-baseline="text-before-edge">T</text></g><g transform="translate(70 170) rotate(0 77.45299530029297 26.27105409927495)"><text x="0" y="0" font-family="Helvetica, Segoe UI Emoji" font-size="45.68878973786948px" fill="#1e1e1e" text-anchor="start" style="white-space: pre;" direction="ltr" dominant-baseline="text-before-edge">pattern:</text></g><g transform="translate(10 390) rotate(0 106.60520935058594 26.27105409927495)"><text x="0" y="0" font-family="Helvetica, Segoe UI Emoji" font-size="45.68878973786948px" fill="#1e1e1e" text-anchor="start" style="white-space: pre;" direction="ltr" dominant-baseline="text-before-edge">will match:</text></g><g stroke-linecap="round"><g transform="translate(550 210) rotate(0 0 40)"><path d="M0 0 C10.12 20.24, 20.24 40.49, 40 80 M40 80 C9.58 80, -20.84 80, -40 80 M-40 80 C-27.67 55.33, -15.33 30.66, 0 0" stroke="#1e1e1e" stroke-width="2.5" fill="none" stroke-dasharray="1.5 8"/></g></g><mask/><g stroke-linecap="round" transform="translate(510 170) rotate(0 40 40)"><path d="M80 40 C80 41.9, 79.86 43.81, 79.59 45.69 C79.32 47.57, 78.91 49.45, 78.38 51.27 C77.85 53.09, 77.17 54.89, 76.39 56.62 C75.6 58.34, 74.68 60.03, 73.65 61.63 C72.62 63.22, 71.47 64.76, 70.23 66.19 C68.99 67.63, 67.63 68.99, 66.19 70.23 C64.76 71.47, 63.22 72.62, 61.63 73.65 C60.03 74.68, 58.34 75.6, 56.62 76.39 C54.89 77.17, 53.09 77.85, 51.27 78.38 C49.45 78.91, 47.57 79.32, 45.69 79.59 C43.81 79.86, 41.9 80, 40 80 C38.1 80, 36.19 79.86, 34.31 79.59 C32.43 79.32, 30.55 78.91, 28.73 78.38 C26.91 77.85, 25.11 77.17, 23.38 76.39 C21.66 75.6, 19.97 74.68, 18.37 73.65 C16.78 72.62, 15.24 71.47, 13.81 70.23 C12.37 68.99, 11.01 67.63, 9.77 66.19 C8.53 64.76, 7.38 63.22, 6.35 61.63 C5.32 60.03, 4.4 58.34, 3.61 56.62 C2.83 54.89, 2.15 53.09, 1.62 51.27 C1.09 49.45, 0.68 47.57, 0.41 45.69 C0.14 43.81, 0 41.9, 0 40 C0 38.1, 0.14 36.19, 0.41 34.31 C0.68 32.43, 1.09 30.55, 1.62 28.73 C2.15 26.91, 2.83 25.11, 3.61 23.38 C4.4 21.66, 5.32 19.97, 6.35 18.37 C7.38 16.78, 8.53 15.24, 9.77 13.81 C11.01 12.37, 12.37 11.01, 13.81 9.77 C15.24 8.53, 16.78 7.38, 18.37 6.35 C19.97 5.32, 21.66 4.4, 23.38 3.61 C25.11 2.83, 26.91 2.15, 28.73 1.62 C30.55 1.09, 32.43 0.68, 34.31 0.41 C36.19 0.14, 38.1 0, 40 0 C41.9 0, 43.81 0.14, 45.69 0.41 C47.57 0.68, 49.45 1.09, 51.27 1.62 C53.09 2.15, 54.89 2.83, 56.62 3.61 C58.34 4.4, 60.03 5.32, 61.63 6.35 C63.22 7.38, 64.76 8.53, 66.19 9.77 C67.63 11.01, 68.99 12.37, 70.23 13.81 C71.47 15.24, 72.62 16.78, 73.65 18.37 C74.68 19.97, 75.6 21.66, 76.39 23.38 C77.17 25.11, 77.85 26.91, 78.38 28.73 C78.91 30.55, 79.32 32.43, 79.59 34.31 C79.86 36.19, 79.93 39.05, 80 40 C80.07 40.95, 80.07 39.05, 80 40" stroke="none" stroke-width="0" fill="#e9ecef"/><path d="M80 40 C80 41.9, 79.86 43.81, 79.59 45.69 C79.32 47.57, 78.91 49.45, 78.38 51.27 C77.85 53.09, 77.17 54.89, 76.39 56.62 C75.6 58.34, 74.68 60.03, 73.65 61.63 C72.62 63.22, 71.47 64.76, 70.23 66.19 C68.99 67.63, 67.63 68.99, 66.19 70.23 C64.76 71.47, 63.22 72.62, 61.63 73.65 C60.03 74.68, 58.34 75.6, 56.62 76.39 C54.89 77.17, 53.09 77.85, 51.27 78.38 C49.45 78.91, 47.57 79.32, 45.69 79.59 C43.81 79.86, 41.9 80, 40 80 C38.1 80, 36.19 79.86, 34.31 79.59 C32.43 79.32, 30.55 78.91, 28.73 78.38 C26.91 77.85, 25.11 77.17, 23.38 76.39 C21.66 75.6, 19.97 74.68, 18.37 73.65 C16.78 72.62, 15.24 71.47, 13.81 70.23 C12.37 68.99, 11.01 67.63, 9.77 66.19 C8.53 64.76, 7.38 63.22, 6.35 61.63 C5.32 60.03, 4.4 58.34, 3.61 56.62 C2.83 54.89, 2.15 53.09, 1.62 51.27 C1.09 49.45, 0.68 47.57, 0.41 45.69 C0.14 43.81, 0 41.9, 0 40 C0 38.1, 0.14 36.19, 0.41 34.31 C0.68 32.43, 1.09 30.55, 1.62 28.73 C2.15 26.91, 2.83 25.11, 3.61 23.38 C4.4 21.66, 5.32 19.97, 6.35 18.37 C7.38 16.78, 8.53 15.24, 9.77 13.81 C11.01 12.37, 12.37 11.01, 13.81 9.77 C15.24 8.53, 16.78 7.38, 18.37 6.35 C19.97 5.32, 21.66 4.4, 23.38 3.61 C25.11 2.83, 26.91 2.15, 28.73 1.62 C30.55 1.09, 32.43 0.68, 34.31 0.41 C36.19 0.14, 38.1 0, 40 0 C41.9 0, 43.81 0.14, 45.69 0.41 C47.57 0.68, 49.45 1.09, 51.27 1.62 C53.09 2.15, 54.89 2.83, 56.62 3.61 C58.34 4.4, 60.03 5.32, 61.63 6.35 C63.22 7.38, 64.76 8.53, 66.19 9.77 C67.63 11.01, 68.99 12.37, 70.23 13.81 C71.47 15.24, 72.62 16.78, 73.65 18.37 C74.68 19.97, 75.6 21.66, 76.39 23.38 C77.17 25.11, 77.85 26.91, 78.38 28.73 C78.91 30.55, 79.32 32.43, 79.59 34.31 C79.86 36.19, 79.93 39.05, 80 40 C80.07 40.95, 80.07 39.05, 80 40" stroke="#1e1e1e" stroke-width="2" fill="none"/></g><g transform="translate(540.8778381275381 194.1157287525381) rotate(0 9.337890625 16.099999999999994)"><text x="9.337890625" y="0" font-family="Helvetica, Segoe UI Emoji" font-size="28px" fill="#1e1e1e" text-anchor="middle" style="white-space: pre;" direction="ltr" dominant-baseline="text-before-edge">A</text></g><g stroke-linecap="round" transform="translate(290 170) rotate(0 40 40)"><path d="M80 40 C80 41.9, 79.86 43.81, 79.59 45.69 C79.32 47.57, 78.91 49.45, 78.38 51.27 C77.85 53.09, 77.17 54.89, 76.39 56.62 C75.6 58.34, 74.68 60.03, 73.65 61.63 C72.62 63.22, 71.47 64.76, 70.23 66.19 C68.99 67.63, 67.63 68.99, 66.19 70.23 C64.76 71.47, 63.22 72.62, 61.63 73.65 C60.03 74.68, 58.34 75.6, 56.62 76.39 C54.89 77.17, 53.09 77.85, 51.27 78.38 C49.45 78.91, 47.57 79.32, 45.69 79.59 C43.81 79.86, 41.9 80, 40 80 C38.1 80, 36.19 79.86, 34.31 79.59 C32.43 79.32, 30.55 78.91, 28.73 78.38 C26.91 77.85, 25.11 77.17, 23.38 76.39 C21.66 75.6, 19.97 74.68, 18.37 73.65 C16.78 72.62, 15.24 71.47, 13.81 70.23 C12.37 68.99, 11.01 67.63, 9.77 66.19 C8.53 64.76, 7.38 63.22, 6.35 61.63 C5.32 60.03, 4.4 58.34, 3.61 56.62 C2.83 54.89, 2.15 53.09, 1.62 51.27 C1.09 49.45, 0.68 47.57, 0.41 45.69 C0.14 43.81, 0 41.9, 0 40 C0 38.1, 0.14 36.19, 0.41 34.31 C0.68 32.43, 1.09 30.55, 1.62 28.73 C2.15 26.91, 2.83 25.11, 3.61 23.38 C4.4 21.66, 5.32 19.97, 6.35 18.37 C7.38 16.78, 8.53 15.24, 9.77 13.81 C11.01 12.37, 12.37 11.01, 13.81 9.77 C15.24 8.53, 16.78 7.38, 18.37 6.35 C19.97 5.32, 21.66 4.4, 23.38 3.61 C25.11 2.83, 26.91 2.15, 28.73 1.62 C30.55 1.09, 32.43 0.68, 34.31 0.41 C36.19 0.14, 38.1 0, 40 0 C41.9 0, 43.81 0.14, 45.69 0.41 C47.57 0.68, 49.45 1.09, 51.27 1.62 C53.09 2.15, 54.89 2.83, 56.62 3.61 C58.34 4.4, 60.03 5.32, 61.63 6.35 C63.22 7.38, 64.76 8.53, 66.19 9.77 C67.63 11.01, 68.99 12.37, 70.23 13.81 C71.47 15.24, 72.62 16.78, 73.65 18.37 C74.68 19.97, 75.6 21.66, 76.39 23.38 C77.17 25.11, 77.85 26.91, 78.38 28.73 C78.91 30.55, 79.32 32.43, 79.59 34.31 C79.86 36.19, 79.93 39.05, 80 40 C80.07 40.95, 80.07 39.05, 80 40" stroke="none" stroke-width="0" fill="#e9ecef"/><path d="M80 40 C80 41.9, 79.86 43.81, 79.59 45.69 C79.32 47.57, 78.91 49.45, 78.38 51.27 C77.85 53.09, 77.17 54.89, 76.39 56.62 C75.6 58.34, 74.68 60.03, 73.65 61.63 C72.62 63.22, 71.47 64.76, 70.23 66.19 C68.99 67.63, 67.63 68.99, 66.19 70.23 C64.76 71.47, 63.22 72.62, 61.63 73.65 C60.03 74.68, 58.34 75.6, 56.62 76.39 C54.89 77.17, 53.09 77.85, 51.27 78.38 C49.45 78.91, 47.57 79.32, 45.69 79.59 C43.81 79.86, 41.9 80, 40 80 C38.1 80, 36.19 79.86, 34.31 79.59 C32.43 79.32, 30.55 78.91, 28.73 78.38 C26.91 77.85, 25.11 77.17, 23.38 76.39 C21.66 75.6, 19.97 74.68, 18.37 73.65 C16.78 72.62, 15.24 71.47, 13.81 70.23 C12.37 68.99, 11.01 67.63, 9.77 66.19 C8.53 64.76, 7.38 63.22, 6.35 61.63 C5.32 60.03, 4.4 58.34, 3.61 56.62 C2.83 54.89, 2.15 53.09, 1.62 51.27 C1.09 49.45, 0.68 47.57, 0.41 45.69 C0.14 43.81, 0 41.9, 0 40 C0 38.1, 0.14 36.19, 0.41 34.31 C0.68 32.43, 1.09 30.55, 1.62 28.73 C2.15 26.91, 2.83 25.11, 3.61 23.38 C4.4 21.66, 5.32 19.97, 6.35 18.37 C7.38 16.78, 8.53 15.24, 9.77 13.81 C11.01 12.37, 12.37 11.01, 13.81 9.77 C15.24 8.53, 16.78 7.38, 18.37 6.35 C19.97 5.32, 21.66 4.4, 23.38 3.61 C25.11 2.83, 26.91 2.15, 28.73 1.62 C30.55 1.09, 32.43 0.68, 34.31 0.41 C36.19 0.14, 38.1 0, 40 0 C41.9 0, 43.81 0.14, 45.69 0.41 C47.57 0.68, 49.45 1.09, 51.27 1.62 C53.09 2.15, 54.89 2.83, 56.62 3.61 C58.34 4.4, 60.03 5.32, 61.63 6.35 C63.22 7.38, 64.76 8.53, 66.19 9.77 C67.63 11.01, 68.99 12.37, 70.23 13.81 C71.47 15.24, 72.62 16.78, 73.65 18.37 C74.68 19.97, 75.6 21.66, 76.39 23.38 C77.17 25.11, 77.85 26.91, 78.38 28.73 C78.91 30.55, 79.32 32.43, 79.59 34.31 C79.86 36.19, 79.93 39.05, 80 40 C80.07 40.95, 80.07 39.05, 80 40" stroke="#1e1e1e" stroke-width="2" fill="none"/></g><g transform="translate(320.8778381275381 194.1157287525381) rotate(0 9.337890625 16.099999999999994)"><text x="9.337890625" y="0" font-family="Helvetica, Segoe UI Emoji" font-size="28px" fill="#1e1e1e" text-anchor="middle" style="white-space: pre;" direction="ltr" dominant-baseline="text-before-edge">A</text></g><g stroke-linecap="round"><g transform="translate(1010 210) rotate(0 0 40)"><path d="M0 0 C14.5 29, 29 57.99, 40 80 M40 80 C21.16 80, 2.32 80, -40 80 M-40 80 C-31.45 62.91, -22.91 45.82, 0 0" stroke="#1e1e1e" stroke-width="2.5" fill="none" stroke-dasharray="1.5 8"/></g></g><mask/><g stroke-linecap="round" transform="translate(970 170) rotate(0 40 40)"><path d="M80 40 C80 41.9, 79.86 43.81, 79.59 45.69 C79.32 47.57, 78.91 49.45, 78.38 51.27 C77.85 53.09, 77.17 54.89, 76.39 56.62 C75.6 58.34, 74.68 60.03, 73.65 61.63 C72.62 63.22, 71.47 64.76, 70.23 66.19 C68.99 67.63, 67.63 68.99, 66.19 70.23 C64.76 71.47, 63.22 72.62, 61.63 73.65 C60.03 74.68, 58.34 75.6, 56.62 76.39 C54.89 77.17, 53.09 77.85, 51.27 78.38 C49.45 78.91, 47.57 79.32, 45.69 79.59 C43.81 79.86, 41.9 80, 40 80 C38.1 80, 36.19 79.86, 34.31 79.59 C32.43 79.32, 30.55 78.91, 28.73 78.38 C26.91 77.85, 25.11 77.17, 23.38 76.39 C21.66 75.6, 19.97 74.68, 18.37 73.65 C16.78 72.62, 15.24 71.47, 13.81 70.23 C12.37 68.99, 11.01 67.63, 9.77 66.19 C8.53 64.76, 7.38 63.22, 6.35 61.63 C5.32 60.03, 4.4 58.34, 3.61 56.62 C2.83 54.89, 2.15 53.09, 1.62 51.27 C1.09 49.45, 0.68 47.57, 0.41 45.69 C0.14 43.81, 0 41.9, 0 40 C0 38.1, 0.14 36.19, 0.41 34.31 C0.68 32.43, 1.09 30.55, 1.62 28.73 C2.15 26.91, 2.83 25.11, 3.61 23.38 C4.4 21.66, 5.32 19.97, 6.35 18.37 C7.38 16.78, 8.53 15.24, 9.77 13.81 C11.01 12.37, 12.37 11.01, 13.81 9.77 C15.24 8.53, 16.78 7.38, 18.37 6.35 C19.97 5.32, 21.66 4.4, 23.38 3.61 C25.11 2.83, 26.91 2.15, 28.73 1.62 C30.55 1.09, 32.43 0.68, 34.31 0.41 C36.19 0.14, 38.1 0, 40 0 C41.9 0, 43.81 0.14, 45.69 0.41 C47.57 0.68, 49.45 1.09, 51.27 1.62 C53.09 2.15, 54.89 2.83, 56.62 3.61 C58.34 4.4, 60.03 5.32, 61.63 6.35 C63.22 7.38, 64.76 8.53, 66.19 9.77 C67.63 11.01, 68.99 12.37, 70.23 13.81 C71.47 15.24, 72.62 16.78, 73.65 18.37 C74.68 19.97, 75.6 21.66, 76.39 23.38 C77.17 25.11, 77.85 26.91, 78.38 28.73 C78.91 30.55, 79.32 32.43, 79.59 34.31 C79.86 36.19, 79.93 39.05, 80 40 C80.07 40.95, 80.07 39.05, 80 40" stroke="none" stroke-width="0" fill="#e9ecef"/><path d="M80 40 C80 41.9, 79.86 43.81, 79.59 45.69 C79.32 47.57, 78.91 49.45, 78.38 51.27 C77.85 53.09, 77.17 54.89, 76.39 56.62 C75.6 58.34, 74.68 60.03, 73.65 61.63 C72.62 63.22, 71.47 64.76, 70.23 66.19 C68.99 67.63, 67.63 68.99, 66.19 70.23 C64.76 71.47, 63.22 72.62, 61.63 73.65 C60.03 74.68, 58.34 75.6, 56.62 76.39 C54.89 77.17, 53.09 77.85, 51.27 78.38 C49.45 78.91, 47.57 79.32, 45.69 79.59 C43.81 79.86, 41.9 80, 40 80 C38.1 80, 36.19 79.86, 34.31 79.59 C32.43 79.32, 30.55 78.91, 28.73 78.38 C26.91 77.85, 25.11 77.17, 23.38 76.39 C21.66 75.6, 19.97 74.68, 18.37 73.65 C16.78 72.62, 15.24 71.47, 13.81 70.23 C12.37 68.99, 11.01 67.63, 9.77 66.19 C8.53 64.76, 7.38 63.22, 6.35 61.63 C5.32 60.03, 4.4 58.34, 3.61 56.62 C2.83 54.89, 2.15 53.09, 1.62 51.27 C1.09 49.45, 0.68 47.57, 0.41 45.69 C0.14 43.81, 0 41.9, 0 40 C0 38.1, 0.14 36.19, 0.41 34.31 C0.68 32.43, 1.09 30.55, 1.62 28.73 C2.15 26.91, 2.83 25.11, 3.61 23.38 C4.4 21.66, 5.32 19.97, 6.35 18.37 C7.38 16.78, 8.53 15.24, 9.77 13.81 C11.01 12.37, 12.37 11.01, 13.81 9.77 C15.24 8.53, 16.78 7.38, 18.37 6.35 C19.97 5.32, 21.66 4.4, 23.38 3.61 C25.11 2.83, 26.91 2.15, 28.73 1.62 C30.55 1.09, 32.43 0.68, 34.31 0.41 C36.19 0.14, 38.1 0, 40 0 C41.9 0, 43.81 0.14, 45.69 0.41 C47.57 0.68, 49.45 1.09, 51.27 1.62 C53.09 2.15, 54.89 2.83, 56.62 3.61 C58.34 4.4, 60.03 5.32, 61.63 6.35 C63.22 7.38, 64.76 8.53, 66.19 9.77 C67.63 11.01, 68.99 12.37, 70.23 13.81 C71.47 15.24, 72.62 16.78, 73.65 18.37 C74.68 19.97, 75.6 21.66, 76.39 23.38 C77.17 25.11, 77.85 26.91, 78.38 28.73 C78.91 30.55, 79.32 32.43, 79.59 34.31 C79.86 36.19, 79.93 39.05, 80 40 C80.07 40.95, 80.07 39.05, 80 40" stroke="#1e1e1e" stroke-width="2" fill="none"/></g><g transform="translate(1000.8778381275381 194.1157287525381) rotate(0 9.337890625 16.099999999999994)"><text x="9.337890625" y="0" font-family="Helvetica, Segoe UI Emoji" font-size="28px" fill="#1e1e1e" text-anchor="middle" style="white-space: pre;" direction="ltr" dominant-baseline="text-before-edge">A</text></g><g stroke-linecap="round" transform="translate(750 170) rotate(0 40 40)"><path d="M80 40 C80 41.9, 79.86 43.81, 79.59 45.69 C79.32 47.57, 78.91 49.45, 78.38 51.27 C77.85 53.09, 77.17 54.89, 76.39 56.62 C75.6 58.34, 74.68 60.03, 73.65 61.63 C72.62 63.22, 71.47 64.76, 70.23 66.19 C68.99 67.63, 67.63 68.99, 66.19 70.23 C64.76 71.47, 63.22 72.62, 61.63 73.65 C60.03 74.68, 58.34 75.6, 56.62 76.39 C54.89 77.17, 53.09 77.85, 51.27 78.38 C49.45 78.91, 47.57 79.32, 45.69 79.59 C43.81 79.86, 41.9 80, 40 80 C38.1 80, 36.19 79.86, 34.31 79.59 C32.43 79.32, 30.55 78.91, 28.73 78.38 C26.91 77.85, 25.11 77.17, 23.38 76.39 C21.66 75.6, 19.97 74.68, 18.37 73.65 C16.78 72.62, 15.24 71.47, 13.81 70.23 C12.37 68.99, 11.01 67.63, 9.77 66.19 C8.53 64.76, 7.38 63.22, 6.35 61.63 C5.32 60.03, 4.4 58.34, 3.61 56.62 C2.83 54.89, 2.15 53.09, 1.62 51.27 C1.09 49.45, 0.68 47.57, 0.41 45.69 C0.14 43.81, 0 41.9, 0 40 C0 38.1, 0.14 36.19, 0.41 34.31 C0.68 32.43, 1.09 30.55, 1.62 28.73 C2.15 26.91, 2.83 25.11, 3.61 23.38 C4.4 21.66, 5.32 19.97, 6.35 18.37 C7.38 16.78, 8.53 15.24, 9.77 13.81 C11.01 12.37, 12.37 11.01, 13.81 9.77 C15.24 8.53, 16.78 7.38, 18.37 6.35 C19.97 5.32, 21.66 4.4, 23.38 3.61 C25.11 2.83, 26.91 2.15, 28.73 1.62 C30.55 1.09, 32.43 0.68, 34.31 0.41 C36.19 0.14, 38.1 0, 40 0 C41.9 0, 43.81 0.14, 45.69 0.41 C47.57 0.68, 49.45 1.09, 51.27 1.62 C53.09 2.15, 54.89 2.83, 56.62 3.61 C58.34 4.4, 60.03 5.32, 61.63 6.35 C63.22 7.38, 64.76 8.53, 66.19 9.77 C67.63 11.01, 68.99 12.37, 70.23 13.81 C71.47 15.24, 72.62 16.78, 73.65 18.37 C74.68 19.97, 75.6 21.66, 76.39 23.38 C77.17 25.11, 77.85 26.91, 78.38 28.73 C78.91 30.55, 79.32 32.43, 79.59 34.31 C79.86 36.19, 79.93 39.05, 80 40 C80.07 40.95, 80.07 39.05, 80 40" stroke="none" stroke-width="0" fill="#e9ecef"/><path d="M80 40 C80 41.9, 79.86 43.81, 79.59 45.69 C79.32 47.57, 78.91 49.45, 78.38 51.27 C77.85 53.09, 77.17 54.89, 76.39 56.62 C75.6 58.34, 74.68 60.03, 73.65 61.63 C72.62 63.22, 71.47 64.76, 70.23 66.19 C68.99 67.63, 67.63 68.99, 66.19 70.23 C64.76 71.47, 63.22 72.62, 61.63 73.65 C60.03 74.68, 58.34 75.6, 56.62 76.39 C54.89 77.17, 53.09 77.85, 51.27 78.38 C49.45 78.91, 47.57 79.32, 45.69 79.59 C43.81 79.86, 41.9 80, 40 80 C38.1 80, 36.19 79.86, 34.31 79.59 C32.43 79.32, 30.55 78.91, 28.73 78.38 C26.91 77.85, 25.11 77.17, 23.38 76.39 C21.66 75.6, 19.97 74.68, 18.37 73.65 C16.78 72.62, 15.24 71.47, 13.81 70.23 C12.37 68.99, 11.01 67.63, 9.77 66.19 C8.53 64.76, 7.38 63.22, 6.35 61.63 C5.32 60.03, 4.4 58.34, 3.61 56.62 C2.83 54.89, 2.15 53.09, 1.62 51.27 C1.09 49.45, 0.68 47.57, 0.41 45.69 C0.14 43.81, 0 41.9, 0 40 C0 38.1, 0.14 36.19, 0.41 34.31 C0.68 32.43, 1.09 30.55, 1.62 28.73 C2.15 26.91, 2.83 25.11, 3.61 23.38 C4.4 21.66, 5.32 19.97, 6.35 18.37 C7.38 16.78, 8.53 15.24, 9.77 13.81 C11.01 12.37, 12.37 11.01, 13.81 9.77 C15.24 8.53, 16.78 7.38, 18.37 6.35 C19.97 5.32, 21.66 4.4, 23.38 3.61 C25.11 2.83, 26.91 2.15, 28.73 1.62 C30.55 1.09, 32.43 0.68, 34.31 0.41 C36.19 0.14, 38.1 0, 40 0 C41.9 0, 43.81 0.14, 45.69 0.41 C47.57 0.68, 49.45 1.09, 51.27 1.62 C53.09 2.15, 54.89 2.83, 56.62 3.61 C58.34 4.4, 60.03 5.32, 61.63 6.35 C63.22 7.38, 64.76 8.53, 66.19 9.77 C67.63 11.01, 68.99 12.37, 70.23 13.81 C71.47 15.24, 72.62 16.78, 73.65 18.37 C74.68 19.97, 75.6 21.66, 76.39 23.38 C77.17 25.11, 77.85 26.91, 78.38 28.73 C78.91 30.55, 79.32 32.43, 79.59 34.31 C79.86 36.19, 79.93 39.05, 80 40 C80.07 40.95, 80.07 39.05, 80 40" stroke="#1e1e1e" stroke-width="2" fill="none"/></g><g transform="translate(780.8778381275381 194.1157287525381) rotate(0 9.337890625 16.099999999999994)"><text x="9.337890625" y="0" font-family="Helvetica, Segoe UI Emoji" font-size="28px" fill="#1e1e1e" text-anchor="middle" style="white-space: pre;" direction="ltr" dominant-baseline="text-before-edge">A</text></g><g stroke-linecap="round"><g transform="translate(790 110) rotate(0 0 29.5)"><path d="M0 0 C0 17.52, 0 35.03, 0 59" stroke="#1e1e1e" stroke-width="2.5" fill="none" stroke-dasharray="1.5 8"/></g><g transform="translate(790 110) rotate(0 0 29.5)"><path d="M0 59 L-6.34 45.41 L6.34 45.41 L0 59" stroke="none" stroke-width="0" fill="#1e1e1e" fill-rule="evenodd"/><path d="M0 59 C-1.88 54.96, -3.76 50.93, -6.34 45.41 M-6.34 45.41 C-3.21 45.41, -0.08 45.41, 6.34 45.41 M6.34 45.41 C4.75 48.82, 3.16 52.23, 0 59 M0 59 C0 59, 0 59, 0 59" stroke="#1e1e1e" stroke-width="2.5" fill="none"/></g></g><mask/><g stroke-linecap="round"><g transform="translate(1010 110) rotate(0 0 29.5)"><path d="M0 0 C0 14.82, 0 29.65, 0 59" stroke="#1e1e1e" stroke-width="2.5" fill="none" stroke-dasharray="1.5 8"/></g><g transform="translate(1010 110) rotate(0 0 29.5)"><path d="M0 59 L-6.34 45.41 L6.34 45.41 L0 59" stroke="none" stroke-width="0" fill="#1e1e1e" fill-rule="evenodd"/><path d="M0 59 C-1.59 55.58, -3.19 52.17, -6.34 45.41 M-6.34 45.41 C-2.5 45.41, 1.33 45.41, 6.34 45.41 M6.34 45.41 C4.98 48.32, 3.62 51.24, 0 59 M0 59 C0 59, 0 59, 0 59" stroke="#1e1e1e" stroke-width="2.5" fill="none"/></g></g><mask/><g stroke-linecap="round" transform="translate(290 390) rotate(0 40 40)"><path d="M80 40 C80 41.9, 79.86 43.81, 79.59 45.69 C79.32 47.57, 78.91 49.45, 78.38 51.27 C77.85 53.09, 77.17 54.89, 76.39 56.62 C75.6 58.34, 74.68 60.03, 73.65 61.63 C72.62 63.22, 71.47 64.76, 70.23 66.19 C68.99 67.63, 67.63 68.99, 66.19 70.23 C64.76 71.47, 63.22 72.62, 61.63 73.65 C60.03 74.68, 58.34 75.6, 56.62 76.39 C54.89 77.17, 53.09 77.85, 51.27 78.38 C49.45 78.91, 47.57 79.32, 45.69 79.59 C43.81 79.86, 41.9 80, 40 80 C38.1 80, 36.19 79.86, 34.31 79.59 C32.43 79.32, 30.55 78.91, 28.73 78.38 C26.91 77.85, 25.11 77.17, 23.38 76.39 C21.66 75.6, 19.97 74.68, 18.37 73.65 C16.78 72.62, 15.24 71.47, 13.81 70.23 C12.37 68.99, 11.01 67.63, 9.77 66.19 C8.53 64.76, 7.38 63.22, 6.35 61.63 C5.32 60.03, 4.4 58.34, 3.61 56.62 C2.83 54.89, 2.15 53.09, 1.62 51.27 C1.09 49.45, 0.68 47.57, 0.41 45.69 C0.14 43.81, 0 41.9, 0 40 C0 38.1, 0.14 36.19, 0.41 34.31 C0.68 32.43, 1.09 30.55, 1.62 28.73 C2.15 26.91, 2.83 25.11, 3.61 23.38 C4.4 21.66, 5.32 19.97, 6.35 18.37 C7.38 16.78, 8.53 15.24, 9.77 13.81 C11.01 12.37, 12.37 11.01, 13.81 9.77 C15.24 8.53, 16.78 7.38, 18.37 6.35 C19.97 5.32, 21.66 4.4, 23.38 3.61 C25.11 2.83, 26.91 2.15, 28.73 1.62 C30.55 1.09, 32.43 0.68, 34.31 0.41 C36.19 0.14, 38.1 0, 40 0 C41.9 0, 43.81 0.14, 45.69 0.41 C47.57 0.68, 49.45 1.09, 51.27 1.62 C53.09 2.15, 54.89 2.83, 56.62 3.61 C58.34 4.4, 60.03 5.32, 61.63 6.35 C63.22 7.38, 64.76 8.53, 66.19 9.77 C67.63 11.01, 68.99 12.37, 70.23 13.81 C71.47 15.24, 72.62 16.78, 73.65 18.37 C74.68 19.97, 75.6 21.66, 76.39 23.38 C77.17 25.11, 77.85 26.91, 78.38 28.73 C78.91 30.55, 79.32 32.43, 79.59 34.31 C79.86 36.19, 79.93 39.05, 80 40 C80.07 40.95, 80.07 39.05, 80 40" stroke="none" stroke-width="0" fill="#e9ecef"/><path d="M80 40 C80 41.9, 79.86 43.81, 79.59 45.69 C79.32 47.57, 78.91 49.45, 78.38 51.27 C77.85 53.09, 77.17 54.89, 76.39 56.62 C75.6 58.34, 74.68 60.03, 73.65 61.63 C72.62 63.22, 71.47 64.76, 70.23 66.19 C68.99 67.63, 67.63 68.99, 66.19 70.23 C64.76 71.47, 63.22 72.62, 61.63 73.65 C60.03 74.68, 58.34 75.6, 56.62 76.39 C54.89 77.17, 53.09 77.85, 51.27 78.38 C49.45 78.91, 47.57 79.32, 45.69 79.59 C43.81 79.86, 41.9 80, 40 80 C38.1 80, 36.19 79.86, 34.31 79.59 C32.43 79.32, 30.55 78.91, 28.73 78.38 C26.91 77.85, 25.11 77.17, 23.38 76.39 C21.66 75.6, 19.97 74.68, 18.37 73.65 C16.78 72.62, 15.24 71.47, 13.81 70.23 C12.37 68.99, 11.01 67.63, 9.77 66.19 C8.53 64.76, 7.38 63.22, 6.35 61.63 C5.32 60.03, 4.4 58.34, 3.61 56.62 C2.83 54.89, 2.15 53.09, 1.62 51.27 C1.09 49.45, 0.68 47.57, 0.41 45.69 C0.14 43.81, 0 41.9, 0 40 C0 38.1, 0.14 36.19, 0.41 34.31 C0.68 32.43, 1.09 30.55, 1.62 28.73 C2.15 26.91, 2.83 25.11, 3.61 23.38 C4.4 21.66, 5.32 19.97, 6.35 18.37 C7.38 16.78, 8.53 15.24, 9.77 13.81 C11.01 12.37, 12.37 11.01, 13.81 9.77 C15.24 8.53, 16.78 7.38, 18.37 6.35 C19.97 5.32, 21.66 4.4, 23.38 3.61 C25.11 2.83, 26.91 2.15, 28.73 1.62 C30.55 1.09, 32.43 0.68, 34.31 0.41 C36.19 0.14, 38.1 0, 40 0 C41.9 0, 43.81 0.14, 45.69 0.41 C47.57 0.68, 49.45 1.09, 51.27 1.62 C53.09 2.15, 54.89 2.83, 56.62 3.61 C58.34 4.4, 60.03 5.32, 61.63 6.35 C63.22 7.38, 64.76 8.53, 66.19 9.77 C67.63 11.01, 68.99 12.37, 70.23 13.81 C71.47 15.24, 72.62 16.78, 73.65 18.37 C74.68 19.97, 75.6 21.66, 76.39 23.38 C77.17 25.11, 77.85 26.91, 78.38 28.73 C78.91 30.55, 79.32 32.43, 79.59 34.31 C79.86 36.19, 79.93 39.05, 80 40 C80.07 40.95, 80.07 39.05, 80 40" stroke="#1e1e1e" stroke-width="2" fill="none"/></g><g transform="translate(320.8778381275381 414.1157287525381) rotate(0 9.337890625 16.099999999999994)"><text x="9.337890625" y="0" font-family="Helvetica, Segoe UI Emoji" font-size="28px" fill="#1e1e1e" text-anchor="middle" style="white-space: pre;" direction="ltr" dominant-baseline="text-before-edge">A</text></g><g stroke-linecap="round" transform="translate(510 390) rotate(0 40 40)"><path d="M80 40 C80 41.9, 79.86 43.81, 79.59 45.69 C79.32 47.57, 78.91 49.45, 78.38 51.27 C77.85 53.09, 77.17 54.89, 76.39 56.62 C75.6 58.34, 74.68 60.03, 73.65 61.63 C72.62 63.22, 71.47 64.76, 70.23 66.19 C68.99 67.63, 67.63 68.99, 66.19 70.23 C64.76 71.47, 63.22 72.62, 61.63 73.65 C60.03 74.68, 58.34 75.6, 56.62 76.39 C54.89 77.17, 53.09 77.85, 51.27 78.38 C49.45 78.91, 47.57 79.32, 45.69 79.59 C43.81 79.86, 41.9 80, 40 80 C38.1 80, 36.19 79.86, 34.31 79.59 C32.43 79.32, 30.55 78.91, 28.73 78.38 C26.91 77.85, 25.11 77.17, 23.38 76.39 C21.66 75.6, 19.97 74.68, 18.37 73.65 C16.78 72.62, 15.24 71.47, 13.81 70.23 C12.37 68.99, 11.01 67.63, 9.77 66.19 C8.53 64.76, 7.38 63.22, 6.35 61.63 C5.32 60.03, 4.4 58.34, 3.61 56.62 C2.83 54.89, 2.15 53.09, 1.62 51.27 C1.09 49.45, 0.68 47.57, 0.41 45.69 C0.14 43.81, 0 41.9, 0 40 C0 38.1, 0.14 36.19, 0.41 34.31 C0.68 32.43, 1.09 30.55, 1.62 28.73 C2.15 26.91, 2.83 25.11, 3.61 23.38 C4.4 21.66, 5.32 19.97, 6.35 18.37 C7.38 16.78, 8.53 15.24, 9.77 13.81 C11.01 12.37, 12.37 11.01, 13.81 9.77 C15.24 8.53, 16.78 7.38, 18.37 6.35 C19.97 5.32, 21.66 4.4, 23.38 3.61 C25.11 2.83, 26.91 2.15, 28.73 1.62 C30.55 1.09, 32.43 0.68, 34.31 0.41 C36.19 0.14, 38.1 0, 40 0 C41.9 0, 43.81 0.14, 45.69 0.41 C47.57 0.68, 49.45 1.09, 51.27 1.62 C53.09 2.15, 54.89 2.83, 56.62 3.61 C58.34 4.4, 60.03 5.32, 61.63 6.35 C63.22 7.38, 64.76 8.53, 66.19 9.77 C67.63 11.01, 68.99 12.37, 70.23 13.81 C71.47 15.24, 72.62 16.78, 73.65 18.37 C74.68 19.97, 75.6 21.66, 76.39 23.38 C77.17 25.11, 77.85 26.91, 78.38 28.73 C78.91 30.55, 79.32 32.43, 79.59 34.31 C79.86 36.19, 79.93 39.05, 80 40 C80.07 40.95, 80.07 39.05, 80 40" stroke="none" stroke-width="0" fill="#e9ecef"/><path d="M80 40 C80 41.9, 79.86 43.81, 79.59 45.69 C79.32 47.57, 78.91 49.45, 78.38 51.27 C77.85 53.09, 77.17 54.89, 76.39 56.62 C75.6 58.34, 74.68 60.03, 73.65 61.63 C72.62 63.22, 71.47 64.76, 70.23 66.19 C68.99 67.63, 67.63 68.99, 66.19 70.23 C64.76 71.47, 63.22 72.62, 61.63 73.65 C60.03 74.68, 58.34 75.6, 56.62 76.39 C54.89 77.17, 53.09 77.85, 51.27 78.38 C49.45 78.91, 47.57 79.32, 45.69 79.59 C43.81 79.86, 41.9 80, 40 80 C38.1 80, 36.19 79.86, 34.31 79.59 C32.43 79.32, 30.55 78.91, 28.73 78.38 C26.91 77.85, 25.11 77.17, 23.38 76.39 C21.66 75.6, 19.97 74.68, 18.37 73.65 C16.78 72.62, 15.24 71.47, 13.81 70.23 C12.37 68.99, 11.01 67.63, 9.77 66.19 C8.53 64.76, 7.38 63.22, 6.35 61.63 C5.32 60.03, 4.4 58.34, 3.61 56.62 C2.83 54.89, 2.15 53.09, 1.62 51.27 C1.09 49.45, 0.68 47.57, 0.41 45.69 C0.14 43.81, 0 41.9, 0 40 C0 38.1, 0.14 36.19, 0.41 34.31 C0.68 32.43, 1.09 30.55, 1.62 28.73 C2.15 26.91, 2.83 25.11, 3.61 23.38 C4.4 21.66, 5.32 19.97, 6.35 18.37 C7.38 16.78, 8.53 15.24, 9.77 13.81 C11.01 12.37, 12.37 11.01, 13.81 9.77 C15.24 8.53, 16.78 7.38, 18.37 6.35 C19.97 5.32, 21.66 4.4, 23.38 3.61 C25.11 2.83, 26.91 2.15, 28.73 1.62 C30.55 1.09, 32.43 0.68, 34.31 0.41 C36.19 0.14, 38.1 0, 40 0 C41.9 0, 43.81 0.14, 45.69 0.41 C47.57 0.68, 49.45 1.09, 51.27 1.62 C53.09 2.15, 54.89 2.83, 56.62 3.61 C58.34 4.4, 60.03 5.32, 61.63 6.35 C63.22 7.38, 64.76 8.53, 66.19 9.77 C67.63 11.01, 68.99 12.37, 70.23 13.81 C71.47 15.24, 72.62 16.78, 73.65 18.37 C74.68 19.97, 75.6 21.66, 76.39 23.38 C77.17 25.11, 77.85 26.91, 78.38 28.73 C78.91 30.55, 79.32 32.43, 79.59 34.31 C79.86 36.19, 79.93 39.05, 80 40 C80.07 40.95, 80.07 39.05, 80 40" stroke="#1e1e1e" stroke-width="2" fill="none"/></g><g transform="translate(540.8778381275381 414.1157287525381) rotate(0 9.337890625 16.099999999999994)"><text x="9.337890625" y="0" font-family="Helvetica, Segoe UI Emoji" font-size="28px" fill="#1e1e1e" text-anchor="middle" style="white-space: pre;" direction="ltr" dominant-baseline="text-before-edge">A</text></g><g stroke-linecap="round" transform="translate(450 530) rotate(0 40 40)"><path d="M80 40 C80 41.9, 79.86 43.81, 79.59 45.69 C79.32 47.57, 78.91 49.45, 78.38 51.27 C77.85 53.09, 77.17 54.89, 76.39 56.62 C75.6 58.34, 74.68 60.03, 73.65 61.63 C72.62 63.22, 71.47 64.76, 70.23 66.19 C68.99 67.63, 67.63 68.99, 66.19 70.23 C64.76 71.47, 63.22 72.62, 61.63 73.65 C60.03 74.68, 58.34 75.6, 56.62 76.39 C54.89 77.17, 53.09 77.85, 51.27 78.38 C49.45 78.91, 47.57 79.32, 45.69 79.59 C43.81 79.86, 41.9 80, 40 80 C38.1 80, 36.19 79.86, 34.31 79.59 C32.43 79.32, 30.55 78.91, 28.73 78.38 C26.91 77.85, 25.11 77.17, 23.38 76.39 C21.66 75.6, 19.97 74.68, 18.37 73.65 C16.78 72.62, 15.24 71.47, 13.81 70.23 C12.37 68.99, 11.01 67.63, 9.77 66.19 C8.53 64.76, 7.38 63.22, 6.35 61.63 C5.32 60.03, 4.4 58.34, 3.61 56.62 C2.83 54.89, 2.15 53.09, 1.62 51.27 C1.09 49.45, 0.68 47.57, 0.41 45.69 C0.14 43.81, 0 41.9, 0 40 C0 38.1, 0.14 36.19, 0.41 34.31 C0.68 32.43, 1.09 30.55, 1.62 28.73 C2.15 26.91, 2.83 25.11, 3.61 23.38 C4.4 21.66, 5.32 19.97, 6.35 18.37 C7.38 16.78, 8.53 15.24, 9.77 13.81 C11.01 12.37, 12.37 11.01, 13.81 9.77 C15.24 8.53, 16.78 7.38, 18.37 6.35 C19.97 5.32, 21.66 4.4, 23.38 3.61 C25.11 2.83, 26.91 2.15, 28.73 1.62 C30.55 1.09, 32.43 0.68, 34.31 0.41 C36.19 0.14, 38.1 0, 40 0 C41.9 0, 43.81 0.14, 45.69 0.41 C47.57 0.68, 49.45 1.09, 51.27 1.62 C53.09 2.15, 54.89 2.83, 56.62 3.61 C58.34 4.4, 60.03 5.32, 61.63 6.35 C63.22 7.38, 64.76 8.53, 66.19 9.77 C67.63 11.01, 68.99 12.37, 70.23 13.81 C71.47 15.24, 72.62 16.78, 73.65 18.37 C74.68 19.97, 75.6 21.66, 76.39 23.38 C77.17 25.11, 77.85 26.91, 78.38 28.73 C78.91 30.55, 79.32 32.43, 79.59 34.31 C79.86 36.19, 79.93 39.05, 80 40 C80.07 40.95, 80.07 39.05, 80 40" stroke="none" stroke-width="0" fill="#e9ecef"/><path d="M80 40 C80 41.9, 79.86 43.81, 79.59 45.69 C79.32 47.57, 78.91 49.45, 78.38 51.27 C77.85 53.09, 77.17 54.89, 76.39 56.62 C75.6 58.34, 74.68 60.03, 73.65 61.63 C72.62 63.22, 71.47 64.76, 70.23 66.19 C68.99 67.63, 67.63 68.99, 66.19 70.23 C64.76 71.47, 63.22 72.62, 61.63 73.65 C60.03 74.68, 58.34 75.6, 56.62 76.39 C54.89 77.17, 53.09 77.85, 51.27 78.38 C49.45 78.91, 47.57 79.32, 45.69 79.59 C43.81 79.86, 41.9 80, 40 80 C38.1 80, 36.19 79.86, 34.31 79.59 C32.43 79.32, 30.55 78.91, 28.73 78.38 C26.91 77.85, 25.11 77.17, 23.38 76.39 C21.66 75.6, 19.97 74.68, 18.37 73.65 C16.78 72.62, 15.24 71.47, 13.81 70.23 C12.37 68.99, 11.01 67.63, 9.77 66.19 C8.53 64.76, 7.38 63.22, 6.35 61.63 C5.32 60.03, 4.4 58.34, 3.61 56.62 C2.83 54.89, 2.15 53.09, 1.62 51.27 C1.09 49.45, 0.68 47.57, 0.41 45.69 C0.14 43.81, 0 41.9, 0 40 C0 38.1, 0.14 36.19, 0.41 34.31 C0.68 32.43, 1.09 30.55, 1.62 28.73 C2.15 26.91, 2.83 25.11, 3.61 23.38 C4.4 21.66, 5.32 19.97, 6.35 18.37 C7.38 16.78, 8.53 15.24, 9.77 13.81 C11.01 12.37, 12.37 11.01, 13.81 9.77 C15.24 8.53, 16.78 7.38, 18.37 6.35 C19.97 5.32, 21.66 4.4, 23.38 3.61 C25.11 2.83, 26.91 2.15, 28.73 1.62 C30.55 1.09, 32.43 0.68, 34.31 0.41 C36.19 0.14, 38.1 0, 40 0 C41.9 0, 43.81 0.14, 45.69 0.41 C47.57 0.68, 49.45 1.09, 51.27 1.62 C53.09 2.15, 54.89 2.83, 56.62 3.61 C58.34 4.4, 60.03 5.32, 61.63 6.35 C63.22 7.38, 64.76 8.53, 66.19 9.77 C67.63 11.01, 68.99 12.37, 70.23 13.81 C71.47 15.24, 72.62 16.78, 73.65 18.37 C74.68 19.97, 75.6 21.66, 76.39 23.38 C77.17 25.11, 77.85 26.91, 78.38 28.73 C78.91 30.55, 79.32 32.43, 79.59 34.31 C79.86 36.19, 79.93 39.05, 80 40 C80.07 40.95, 80.07 39.05, 80 40" stroke="#1e1e1e" stroke-width="2" fill="none"/></g><g stroke-linecap="round" transform="translate(570 530) rotate(0 40 40)"><path d="M80 40 C80 41.9, 79.86 43.81, 79.59 45.69 C79.32 47.57, 78.91 49.45, 78.38 51.27 C77.85 53.09, 77.17 54.89, 76.39 56.62 C75.6 58.34, 74.68 60.03, 73.65 61.63 C72.62 63.22, 71.47 64.76, 70.23 66.19 C68.99 67.63, 67.63 68.99, 66.19 70.23 C64.76 71.47, 63.22 72.62, 61.63 73.65 C60.03 74.68, 58.34 75.6, 56.62 76.39 C54.89 77.17, 53.09 77.85, 51.27 78.38 C49.45 78.91, 47.57 79.32, 45.69 79.59 C43.81 79.86, 41.9 80, 40 80 C38.1 80, 36.19 79.86, 34.31 79.59 C32.43 79.32, 30.55 78.91, 28.73 78.38 C26.91 77.85, 25.11 77.17, 23.38 76.39 C21.66 75.6, 19.97 74.68, 18.37 73.65 C16.78 72.62, 15.24 71.47, 13.81 70.23 C12.37 68.99, 11.01 67.63, 9.77 66.19 C8.53 64.76, 7.38 63.22, 6.35 61.63 C5.32 60.03, 4.4 58.34, 3.61 56.62 C2.83 54.89, 2.15 53.09, 1.62 51.27 C1.09 49.45, 0.68 47.57, 0.41 45.69 C0.14 43.81, 0 41.9, 0 40 C0 38.1, 0.14 36.19, 0.41 34.31 C0.68 32.43, 1.09 30.55, 1.62 28.73 C2.15 26.91, 2.83 25.11, 3.61 23.38 C4.4 21.66, 5.32 19.97, 6.35 18.37 C7.38 16.78, 8.53 15.24, 9.77 13.81 C11.01 12.37, 12.37 11.01, 13.81 9.77 C15.24 8.53, 16.78 7.38, 18.37 6.35 C19.97 5.32, 21.66 4.4, 23.38 3.61 C25.11 2.83, 26.91 2.15, 28.73 1.62 C30.55 1.09, 32.43 0.68, 34.31 0.41 C36.19 0.14, 38.1 0, 40 0 C41.9 0, 43.81 0.14, 45.69 0.41 C47.57 0.68, 49.45 1.09, 51.27 1.62 C53.09 2.15, 54.89 2.83, 56.62 3.61 C58.34 4.4, 60.03 5.32, 61.63 6.35 C63.22 7.38, 64.76 8.53, 66.19 9.77 C67.63 11.01, 68.99 12.37, 70.23 13.81 C71.47 15.24, 72.62 16.78, 73.65 18.37 C74.68 19.97, 75.6 21.66, 76.39 23.38 C77.17 25.11, 77.85 26.91, 78.38 28.73 C78.91 30.55, 79.32 32.43, 79.59 34.31 C79.86 36.19, 79.93 39.05, 80 40 C80.07 40.95, 80.07 39.05, 80 40" stroke="none" stroke-width="0" fill="#e9ecef"/><path d="M80 40 C80 41.9, 79.86 43.81, 79.59 45.69 C79.32 47.57, 78.91 49.45, 78.38 51.27 C77.85 53.09, 77.17 54.89, 76.39 56.62 C75.6 58.34, 74.68 60.03, 73.65 61.63 C72.62 63.22, 71.47 64.76, 70.23 66.19 C68.99 67.63, 67.63 68.99, 66.19 70.23 C64.76 71.47, 63.22 72.62, 61.63 73.65 C60.03 74.68, 58.34 75.6, 56.62 76.39 C54.89 77.17, 53.09 77.85, 51.27 78.38 C49.45 78.91, 47.57 79.32, 45.69 79.59 C43.81 79.86, 41.9 80, 40 80 C38.1 80, 36.19 79.86, 34.31 79.59 C32.43 79.32, 30.55 78.91, 28.73 78.38 C26.91 77.85, 25.11 77.17, 23.38 76.39 C21.66 75.6, 19.97 74.68, 18.37 73.65 C16.78 72.62, 15.24 71.47, 13.81 70.23 C12.37 68.99, 11.01 67.63, 9.77 66.19 C8.53 64.76, 7.38 63.22, 6.35 61.63 C5.32 60.03, 4.4 58.34, 3.61 56.62 C2.83 54.89, 2.15 53.09, 1.62 51.27 C1.09 49.45, 0.68 47.57, 0.41 45.69 C0.14 43.81, 0 41.9, 0 40 C0 38.1, 0.14 36.19, 0.41 34.31 C0.68 32.43, 1.09 30.55, 1.62 28.73 C2.15 26.91, 2.83 25.11, 3.61 23.38 C4.4 21.66, 5.32 19.97, 6.35 18.37 C7.38 16.78, 8.53 15.24, 9.77 13.81 C11.01 12.37, 12.37 11.01, 13.81 9.77 C15.24 8.53, 16.78 7.38, 18.37 6.35 C19.97 5.32, 21.66 4.4, 23.38 3.61 C25.11 2.83, 26.91 2.15, 28.73 1.62 C30.55 1.09, 32.43 0.68, 34.31 0.41 C36.19 0.14, 38.1 0, 40 0 C41.9 0, 43.81 0.14, 45.69 0.41 C47.57 0.68, 49.45 1.09, 51.27 1.62 C53.09 2.15, 54.89 2.83, 56.62 3.61 C58.34 4.4, 60.03 5.32, 61.63 6.35 C63.22 7.38, 64.76 8.53, 66.19 9.77 C67.63 11.01, 68.99 12.37, 70.23 13.81 C71.47 15.24, 72.62 16.78, 73.65 18.37 C74.68 19.97, 75.6 21.66, 76.39 23.38 C77.17 25.11, 77.85 26.91, 78.38 28.73 C78.91 30.55, 79.32 32.43, 79.59 34.31 C79.86 36.19, 79.93 39.05, 80 40 C80.07 40.95, 80.07 39.05, 80 40" stroke="#1e1e1e" stroke-width="2" fill="none"/></g><g stroke-linecap="round" transform="translate(910 670) rotate(0 40 40)"><path d="M80 40 C80 41.9, 79.86 43.81, 79.59 45.69 C79.32 47.57, 78.91 49.45, 78.38 51.27 C77.85 53.09, 77.17 54.89, 76.39 56.62 C75.6 58.34, 74.68 60.03, 73.65 61.63 C72.62 63.22, 71.47 64.76, 70.23 66.19 C68.99 67.63, 67.63 68.99, 66.19 70.23 C64.76 71.47, 63.22 72.62, 61.63 73.65 C60.03 74.68, 58.34 75.6, 56.62 76.39 C54.89 77.17, 53.09 77.85, 51.27 78.38 C49.45 78.91, 47.57 79.32, 45.69 79.59 C43.81 79.86, 41.9 80, 40 80 C38.1 80, 36.19 79.86, 34.31 79.59 C32.43 79.32, 30.55 78.91, 28.73 78.38 C26.91 77.85, 25.11 77.17, 23.38 76.39 C21.66 75.6, 19.97 74.68, 18.37 73.65 C16.78 72.62, 15.24 71.47, 13.81 70.23 C12.37 68.99, 11.01 67.63, 9.77 66.19 C8.53 64.76, 7.38 63.22, 6.35 61.63 C5.32 60.03, 4.4 58.34, 3.61 56.62 C2.83 54.89, 2.15 53.09, 1.62 51.27 C1.09 49.45, 0.68 47.57, 0.41 45.69 C0.14 43.81, 0 41.9, 0 40 C0 38.1, 0.14 36.19, 0.41 34.31 C0.68 32.43, 1.09 30.55, 1.62 28.73 C2.15 26.91, 2.83 25.11, 3.61 23.38 C4.4 21.66, 5.32 19.97, 6.35 18.37 C7.38 16.78, 8.53 15.24, 9.77 13.81 C11.01 12.37, 12.37 11.01, 13.81 9.77 C15.24 8.53, 16.78 7.38, 18.37 6.35 C19.97 5.32, 21.66 4.4, 23.38 3.61 C25.11 2.83, 26.91 2.15, 28.73 1.62 C30.55 1.09, 32.43 0.68, 34.31 0.41 C36.19 0.14, 38.1 0, 40 0 C41.9 0, 43.81 0.14, 45.69 0.41 C47.57 0.68, 49.45 1.09, 51.27 1.62 C53.09 2.15, 54.89 2.83, 56.62 3.61 C58.34 4.4, 60.03 5.32, 61.63 6.35 C63.22 7.38, 64.76 8.53, 66.19 9.77 C67.63 11.01, 68.99 12.37, 70.23 13.81 C71.47 15.24, 72.62 16.78, 73.65 18.37 C74.68 19.97, 75.6 21.66, 76.39 23.38 C77.17 25.11, 77.85 26.91, 78.38 28.73 C78.91 30.55, 79.32 32.43, 79.59 34.31 C79.86 36.19, 79.93 39.05, 80 40 C80.07 40.95, 80.07 39.05, 80 40" stroke="none" stroke-width="0" fill="#e9ecef"/><path d="M80 40 C80 41.9, 79.86 43.81, 79.59 45.69 C79.32 47.57, 78.91 49.45, 78.38 51.27 C77.85 53.09, 77.17 54.89, 76.39 56.62 C75.6 58.34, 74.68 60.03, 73.65 61.63 C72.62 63.22, 71.47 64.76, 70.23 66.19 C68.99 67.63, 67.63 68.99, 66.19 70.23 C64.76 71.47, 63.22 72.62, 61.63 73.65 C60.03 74.68, 58.34 75.6, 56.62 76.39 C54.89 77.17, 53.09 77.85, 51.27 78.38 C49.45 78.91, 47.57 79.32, 45.69 79.59 C43.81 79.86, 41.9 80, 40 80 C38.1 80, 36.19 79.86, 34.31 79.59 C32.43 79.32, 30.55 78.91, 28.73 78.38 C26.91 77.85, 25.11 77.17, 23.38 76.39 C21.66 75.6, 19.97 74.68, 18.37 73.65 C16.78 72.62, 15.24 71.47, 13.81 70.23 C12.37 68.99, 11.01 67.63, 9.77 66.19 C8.53 64.76, 7.38 63.22, 6.35 61.63 C5.32 60.03, 4.4 58.34, 3.61 56.62 C2.83 54.89, 2.15 53.09, 1.62 51.27 C1.09 49.45, 0.68 47.57, 0.41 45.69 C0.14 43.81, 0 41.9, 0 40 C0 38.1, 0.14 36.19, 0.41 34.31 C0.68 32.43, 1.09 30.55, 1.62 28.73 C2.15 26.91, 2.83 25.11, 3.61 23.38 C4.4 21.66, 5.32 19.97, 6.35 18.37 C7.38 16.78, 8.53 15.24, 9.77 13.81 C11.01 12.37, 12.37 11.01, 13.81 9.77 C15.24 8.53, 16.78 7.38, 18.37 6.35 C19.97 5.32, 21.66 4.4, 23.38 3.61 C25.11 2.83, 26.91 2.15, 28.73 1.62 C30.55 1.09, 32.43 0.68, 34.31 0.41 C36.19 0.14, 38.1 0, 40 0 C41.9 0, 43.81 0.14, 45.69 0.41 C47.57 0.68, 49.45 1.09, 51.27 1.62 C53.09 2.15, 54.89 2.83, 56.62 3.61 C58.34 4.4, 60.03 5.32, 61.63 6.35 C63.22 7.38, 64.76 8.53, 66.19 9.77 C67.63 11.01, 68.99 12.37, 70.23 13.81 C71.47 15.24, 72.62 16.78, 73.65 18.37 C74.68 19.97, 75.6 21.66, 76.39 23.38 C77.17 25.11, 77.85 26.91, 78.38 28.73 C78.91 30.55, 79.32 32.43, 79.59 34.31 C79.86 36.19, 79.93 39.05, 80 40 C80.07 40.95, 80.07 39.05, 80 40" stroke="#1e1e1e" stroke-width="2" fill="none"/></g><g stroke-linecap="round" transform="translate(1030 670) rotate(0 40 40)"><path d="M80 40 C80 41.9, 79.86 43.81, 79.59 45.69 C79.32 47.57, 78.91 49.45, 78.38 51.27 C77.85 53.09, 77.17 54.89, 76.39 56.62 C75.6 58.34, 74.68 60.03, 73.65 61.63 C72.62 63.22, 71.47 64.76, 70.23 66.19 C68.99 67.63, 67.63 68.99, 66.19 70.23 C64.76 71.47, 63.22 72.62, 61.63 73.65 C60.03 74.68, 58.34 75.6, 56.62 76.39 C54.89 77.17, 53.09 77.85, 51.27 78.38 C49.45 78.91, 47.57 79.32, 45.69 79.59 C43.81 79.86, 41.9 80, 40 80 C38.1 80, 36.19 79.86, 34.31 79.59 C32.43 79.32, 30.55 78.91, 28.73 78.38 C26.91 77.85, 25.11 77.17, 23.38 76.39 C21.66 75.6, 19.97 74.68, 18.37 73.65 C16.78 72.62, 15.24 71.47, 13.81 70.23 C12.37 68.99, 11.01 67.63, 9.77 66.19 C8.53 64.76, 7.38 63.22, 6.35 61.63 C5.32 60.03, 4.4 58.34, 3.61 56.62 C2.83 54.89, 2.15 53.09, 1.62 51.27 C1.09 49.45, 0.68 47.57, 0.41 45.69 C0.14 43.81, 0 41.9, 0 40 C0 38.1, 0.14 36.19, 0.41 34.31 C0.68 32.43, 1.09 30.55, 1.62 28.73 C2.15 26.91, 2.83 25.11, 3.61 23.38 C4.4 21.66, 5.32 19.97, 6.35 18.37 C7.38 16.78, 8.53 15.24, 9.77 13.81 C11.01 12.37, 12.37 11.01, 13.81 9.77 C15.24 8.53, 16.78 7.38, 18.37 6.35 C19.97 5.32, 21.66 4.4, 23.38 3.61 C25.11 2.83, 26.91 2.15, 28.73 1.62 C30.55 1.09, 32.43 0.68, 34.31 0.41 C36.19 0.14, 38.1 0, 40 0 C41.9 0, 43.81 0.14, 45.69 0.41 C47.57 0.68, 49.45 1.09, 51.27 1.62 C53.09 2.15, 54.89 2.83, 56.62 3.61 C58.34 4.4, 60.03 5.32, 61.63 6.35 C63.22 7.38, 64.76 8.53, 66.19 9.77 C67.63 11.01, 68.99 12.37, 70.23 13.81 C71.47 15.24, 72.62 16.78, 73.65 18.37 C74.68 19.97, 75.6 21.66, 76.39 23.38 C77.17 25.11, 77.85 26.91, 78.38 28.73 C78.91 30.55, 79.32 32.43, 79.59 34.31 C79.86 36.19, 79.93 39.05, 80 40 C80.07 40.95, 80.07 39.05, 80 40" stroke="none" stroke-width="0" fill="#e9ecef"/><path d="M80 40 C80 41.9, 79.86 43.81, 79.59 45.69 C79.32 47.57, 78.91 49.45, 78.38 51.27 C77.85 53.09, 77.17 54.89, 76.39 56.62 C75.6 58.34, 74.68 60.03, 73.65 61.63 C72.62 63.22, 71.47 64.76, 70.23 66.19 C68.99 67.63, 67.63 68.99, 66.19 70.23 C64.76 71.47, 63.22 72.62, 61.63 73.65 C60.03 74.68, 58.34 75.6, 56.62 76.39 C54.89 77.17, 53.09 77.85, 51.27 78.38 C49.45 78.91, 47.57 79.32, 45.69 79.59 C43.81 79.86, 41.9 80, 40 80 C38.1 80, 36.19 79.86, 34.31 79.59 C32.43 79.32, 30.55 78.91, 28.73 78.38 C26.91 77.85, 25.11 77.17, 23.38 76.39 C21.66 75.6, 19.97 74.68, 18.37 73.65 C16.78 72.62, 15.24 71.47, 13.81 70.23 C12.37 68.99, 11.01 67.63, 9.77 66.19 C8.53 64.76, 7.38 63.22, 6.35 61.63 C5.32 60.03, 4.4 58.34, 3.61 56.62 C2.83 54.89, 2.15 53.09, 1.62 51.27 C1.09 49.45, 0.68 47.57, 0.41 45.69 C0.14 43.81, 0 41.9, 0 40 C0 38.1, 0.14 36.19, 0.41 34.31 C0.68 32.43, 1.09 30.55, 1.62 28.73 C2.15 26.91, 2.83 25.11, 3.61 23.38 C4.4 21.66, 5.32 19.97, 6.35 18.37 C7.38 16.78, 8.53 15.24, 9.77 13.81 C11.01 12.37, 12.37 11.01, 13.81 9.77 C15.24 8.53, 16.78 7.38, 18.37 6.35 C19.97 5.32, 21.66 4.4, 23.38 3.61 C25.11 2.83, 26.91 2.15, 28.73 1.62 C30.55 1.09, 32.43 0.68, 34.31 0.41 C36.19 0.14, 38.1 0, 40 0 C41.9 0, 43.81 0.14, 45.69 0.41 C47.57 0.68, 49.45 1.09, 51.27 1.62 C53.09 2.15, 54.89 2.83, 56.62 3.61 C58.34 4.4, 60.03 5.32, 61.63 6.35 C63.22 7.38, 64.76 8.53, 66.19 9.77 C67.63 11.01, 68.99 12.37, 70.23 13.81 C71.47 15.24, 72.62 16.78, 73.65 18.37 C74.68 19.97, 75.6 21.66, 76.39 23.38 C77.17 25.11, 77.85 26.91, 78.38 28.73 C78.91 30.55, 79.32 32.43, 79.59 34.31 C79.86 36.19, 79.93 39.05, 80 40 C80.07 40.95, 80.07 39.05, 80 40" stroke="#1e1e1e" stroke-width="2" fill="none"/></g><g stroke-linecap="round" transform="translate(970 530) rotate(0 40 40)"><path d="M80 40 C80 41.9, 79.86 43.81, 79.59 45.69 C79.32 47.57, 78.91 49.45, 78.38 51.27 C77.85 53.09, 77.17 54.89, 76.39 56.62 C75.6 58.34, 74.68 60.03, 73.65 61.63 C72.62 63.22, 71.47 64.76, 70.23 66.19 C68.99 67.63, 67.63 68.99, 66.19 70.23 C64.76 71.47, 63.22 72.62, 61.63 73.65 C60.03 74.68, 58.34 75.6, 56.62 76.39 C54.89 77.17, 53.09 77.85, 51.27 78.38 C49.45 78.91, 47.57 79.32, 45.69 79.59 C43.81 79.86, 41.9 80, 40 80 C38.1 80, 36.19 79.86, 34.31 79.59 C32.43 79.32, 30.55 78.91, 28.73 78.38 C26.91 77.85, 25.11 77.17, 23.38 76.39 C21.66 75.6, 19.97 74.68, 18.37 73.65 C16.78 72.62, 15.24 71.47, 13.81 70.23 C12.37 68.99, 11.01 67.63, 9.77 66.19 C8.53 64.76, 7.38 63.22, 6.35 61.63 C5.32 60.03, 4.4 58.34, 3.61 56.62 C2.83 54.89, 2.15 53.09, 1.62 51.27 C1.09 49.45, 0.68 47.57, 0.41 45.69 C0.14 43.81, 0 41.9, 0 40 C0 38.1, 0.14 36.19, 0.41 34.31 C0.68 32.43, 1.09 30.55, 1.62 28.73 C2.15 26.91, 2.83 25.11, 3.61 23.38 C4.4 21.66, 5.32 19.97, 6.35 18.37 C7.38 16.78, 8.53 15.24, 9.77 13.81 C11.01 12.37, 12.37 11.01, 13.81 9.77 C15.24 8.53, 16.78 7.38, 18.37 6.35 C19.97 5.32, 21.66 4.4, 23.38 3.61 C25.11 2.83, 26.91 2.15, 28.73 1.62 C30.55 1.09, 32.43 0.68, 34.31 0.41 C36.19 0.14, 38.1 0, 40 0 C41.9 0, 43.81 0.14, 45.69 0.41 C47.57 0.68, 49.45 1.09, 51.27 1.62 C53.09 2.15, 54.89 2.83, 56.62 3.61 C58.34 4.4, 60.03 5.32, 61.63 6.35 C63.22 7.38, 64.76 8.53, 66.19 9.77 C67.63 11.01, 68.99 12.37, 70.23 13.81 C71.47 15.24, 72.62 16.78, 73.65 18.37 C74.68 19.97, 75.6 21.66, 76.39 23.38 C77.17 25.11, 77.85 26.91, 78.38 28.73 C78.91 30.55, 79.32 32.43, 79.59 34.31 C79.86 36.19, 79.93 39.05, 80 40 C80.07 40.95, 80.07 39.05, 80 40" stroke="none" stroke-width="0" fill="#e9ecef"/><path d="M80 40 C80 41.9, 79.86 43.81, 79.59 45.69 C79.32 47.57, 78.91 49.45, 78.38 51.27 C77.85 53.09, 77.17 54.89, 76.39 56.62 C75.6 58.34, 74.68 60.03, 73.65 61.63 C72.62 63.22, 71.47 64.76, 70.23 66.19 C68.99 67.63, 67.63 68.99, 66.19 70.23 C64.76 71.47, 63.22 72.62, 61.63 73.65 C60.03 74.68, 58.34 75.6, 56.62 76.39 C54.89 77.17, 53.09 77.85, 51.27 78.38 C49.45 78.91, 47.57 79.32, 45.69 79.59 C43.81 79.86, 41.9 80, 40 80 C38.1 80, 36.19 79.86, 34.31 79.59 C32.43 79.32, 30.55 78.91, 28.73 78.38 C26.91 77.85, 25.11 77.17, 23.38 76.39 C21.66 75.6, 19.97 74.68, 18.37 73.65 C16.78 72.62, 15.24 71.47, 13.81 70.23 C12.37 68.99, 11.01 67.63, 9.77 66.19 C8.53 64.76, 7.38 63.22, 6.35 61.63 C5.32 60.03, 4.4 58.34, 3.61 56.62 C2.83 54.89, 2.15 53.09, 1.62 51.27 C1.09 49.45, 0.68 47.57, 0.41 45.69 C0.14 43.81, 0 41.9, 0 40 C0 38.1, 0.14 36.19, 0.41 34.31 C0.68 32.43, 1.09 30.55, 1.62 28.73 C2.15 26.91, 2.83 25.11, 3.61 23.38 C4.4 21.66, 5.32 19.97, 6.35 18.37 C7.38 16.78, 8.53 15.24, 9.77 13.81 C11.01 12.37, 12.37 11.01, 13.81 9.77 C15.24 8.53, 16.78 7.38, 18.37 6.35 C19.97 5.32, 21.66 4.4, 23.38 3.61 C25.11 2.83, 26.91 2.15, 28.73 1.62 C30.55 1.09, 32.43 0.68, 34.31 0.41 C36.19 0.14, 38.1 0, 40 0 C41.9 0, 43.81 0.14, 45.69 0.41 C47.57 0.68, 49.45 1.09, 51.27 1.62 C53.09 2.15, 54.89 2.83, 56.62 3.61 C58.34 4.4, 60.03 5.32, 61.63 6.35 C63.22 7.38, 64.76 8.53, 66.19 9.77 C67.63 11.01, 68.99 12.37, 70.23 13.81 C71.47 15.24, 72.62 16.78, 73.65 18.37 C74.68 19.97, 75.6 21.66, 76.39 23.38 C77.17 25.11, 77.85 26.91, 78.38 28.73 C78.91 30.55, 79.32 32.43, 79.59 34.31 C79.86 36.19, 79.93 39.05, 80 40 C80.07 40.95, 80.07 39.05, 80 40" stroke="#1e1e1e" stroke-width="2" fill="none"/></g><g transform="translate(1000.8778381275381 554.1157287525381) rotate(0 9.337890625 16.099999999999994)"><text x="9.337890625" y="0" font-family="Helvetica, Segoe UI Emoji" font-size="28px" fill="#1e1e1e" text-anchor="middle" style="white-space: pre;" direction="ltr" dominant-baseline="text-before-edge">A</text></g><g stroke-linecap="round" transform="translate(970 390) rotate(0 40 40)"><path d="M80 40 C80 41.9, 79.86 43.81, 79.59 45.69 C79.32 47.57, 78.91 49.45, 78.38 51.27 C77.85 53.09, 77.17 54.89, 76.39 56.62 C75.6 58.34, 74.68 60.03, 73.65 61.63 C72.62 63.22, 71.47 64.76, 70.23 66.19 C68.99 67.63, 67.63 68.99, 66.19 70.23 C64.76 71.47, 63.22 72.62, 61.63 73.65 C60.03 74.68, 58.34 75.6, 56.62 76.39 C54.89 77.17, 53.09 77.85, 51.27 78.38 C49.45 78.91, 47.57 79.32, 45.69 79.59 C43.81 79.86, 41.9 80, 40 80 C38.1 80, 36.19 79.86, 34.31 79.59 C32.43 79.32, 30.55 78.91, 28.73 78.38 C26.91 77.85, 25.11 77.17, 23.38 76.39 C21.66 75.6, 19.97 74.68, 18.37 73.65 C16.78 72.62, 15.24 71.47, 13.81 70.23 C12.37 68.99, 11.01 67.63, 9.77 66.19 C8.53 64.76, 7.38 63.22, 6.35 61.63 C5.32 60.03, 4.4 58.34, 3.61 56.62 C2.83 54.89, 2.15 53.09, 1.62 51.27 C1.09 49.45, 0.68 47.57, 0.41 45.69 C0.14 43.81, 0 41.9, 0 40 C0 38.1, 0.14 36.19, 0.41 34.31 C0.68 32.43, 1.09 30.55, 1.62 28.73 C2.15 26.91, 2.83 25.11, 3.61 23.38 C4.4 21.66, 5.32 19.97, 6.35 18.37 C7.38 16.78, 8.53 15.24, 9.77 13.81 C11.01 12.37, 12.37 11.01, 13.81 9.77 C15.24 8.53, 16.78 7.38, 18.37 6.35 C19.97 5.32, 21.66 4.4, 23.38 3.61 C25.11 2.83, 26.91 2.15, 28.73 1.62 C30.55 1.09, 32.43 0.68, 34.31 0.41 C36.19 0.14, 38.1 0, 40 0 C41.9 0, 43.81 0.14, 45.69 0.41 C47.57 0.68, 49.45 1.09, 51.27 1.62 C53.09 2.15, 54.89 2.83, 56.62 3.61 C58.34 4.4, 60.03 5.32, 61.63 6.35 C63.22 7.38, 64.76 8.53, 66.19 9.77 C67.63 11.01, 68.99 12.37, 70.23 13.81 C71.47 15.24, 72.62 16.78, 73.65 18.37 C74.68 19.97, 75.6 21.66, 76.39 23.38 C77.17 25.11, 77.85 26.91, 78.38 28.73 C78.91 30.55, 79.32 32.43, 79.59 34.31 C79.86 36.19, 79.93 39.05, 80 40 C80.07 40.95, 80.07 39.05, 80 40" stroke="none" stroke-width="0" fill="#e9ecef"/><path d="M80 40 C80 41.9, 79.86 43.81, 79.59 45.69 C79.32 47.57, 78.91 49.45, 78.38 51.27 C77.85 53.09, 77.17 54.89, 76.39 56.62 C75.6 58.34, 74.68 60.03, 73.65 61.63 C72.62 63.22, 71.47 64.76, 70.23 66.19 C68.99 67.63, 67.63 68.99, 66.19 70.23 C64.76 71.47, 63.22 72.62, 61.63 73.65 C60.03 74.68, 58.34 75.6, 56.62 76.39 C54.89 77.17, 53.09 77.85, 51.27 78.38 C49.45 78.91, 47.57 79.32, 45.69 79.59 C43.81 79.86, 41.9 80, 40 80 C38.1 80, 36.19 79.86, 34.31 79.59 C32.43 79.32, 30.55 78.91, 28.73 78.38 C26.91 77.85, 25.11 77.17, 23.38 76.39 C21.66 75.6, 19.97 74.68, 18.37 73.65 C16.78 72.62, 15.24 71.47, 13.81 70.23 C12.37 68.99, 11.01 67.63, 9.77 66.19 C8.53 64.76, 7.38 63.22, 6.35 61.63 C5.32 60.03, 4.4 58.34, 3.61 56.62 C2.83 54.89, 2.15 53.09, 1.62 51.27 C1.09 49.45, 0.68 47.57, 0.41 45.69 C0.14 43.81, 0 41.9, 0 40 C0 38.1, 0.14 36.19, 0.41 34.31 C0.68 32.43, 1.09 30.55, 1.62 28.73 C2.15 26.91, 2.83 25.11, 3.61 23.38 C4.4 21.66, 5.32 19.97, 6.35 18.37 C7.38 16.78, 8.53 15.24, 9.77 13.81 C11.01 12.37, 12.37 11.01, 13.81 9.77 C15.24 8.53, 16.78 7.38, 18.37 6.35 C19.97 5.32, 21.66 4.4, 23.38 3.61 C25.11 2.83, 26.91 2.15, 28.73 1.62 C30.55 1.09, 32.43 0.68, 34.31 0.41 C36.19 0.14, 38.1 0, 40 0 C41.9 0, 43.81 0.14, 45.69 0.41 C47.57 0.68, 49.45 1.09, 51.27 1.62 C53.09 2.15, 54.89 2.83, 56.62 3.61 C58.34 4.4, 60.03 5.32, 61.63 6.35 C63.22 7.38, 64.76 8.53, 66.19 9.77 C67.63 11.01, 68.99 12.37, 70.23 13.81 C71.47 15.24, 72.62 16.78, 73.65 18.37 C74.68 19.97, 75.6 21.66, 76.39 23.38 C77.17 25.11, 77.85 26.91, 78.38 28.73 C78.91 30.55, 79.32 32.43, 79.59 34.31 C79.86 36.19, 79.93 39.05, 80 40 C80.07 40.95, 80.07 39.05, 80 40" stroke="#1e1e1e" stroke-width="2" fill="none"/></g><g stroke-linecap="round"><g transform="translate(549.3005276320257 470.99403296098643) rotate(0 -21.57491819446389 30.660510404426333)"><path d="M0 0 C-14.96 21.26, -29.92 42.52, -43.15 61.32 M0 0 C-9.1 12.94, -18.21 25.87, -43.15 61.32" stroke="#1e1e1e" stroke-width="2" fill="none"/></g><g transform="translate(549.3005276320257 470.99403296098643) rotate(0 -21.57491819446389 30.660510404426333)"><path d="M-43.15 61.32 L-40.51 46.55 L-30.14 53.85 L-43.15 61.32" stroke="none" stroke-width="0" fill="#1e1e1e" fill-rule="evenodd"/><path d="M-43.15 61.32 C-42.23 56.2, -41.32 51.08, -40.51 46.55 M-43.15 61.32 C-42.59 58.21, -42.04 55.09, -40.51 46.55 M-40.51 46.55 C-37.82 48.45, -35.12 50.35, -30.14 53.85 M-40.51 46.55 C-37.67 48.55, -34.83 50.55, -30.14 53.85 M-30.14 53.85 C-34.78 56.51, -39.41 59.17, -43.15 61.32 M-30.14 53.85 C-32.81 55.38, -35.48 56.92, -43.15 61.32 M-43.15 61.32 C-43.15 61.32, -43.15 61.32, -43.15 61.32 M-43.15 61.32 C-43.15 61.32, -43.15 61.32, -43.15 61.32" stroke="#1e1e1e" stroke-width="2" fill="none"/></g></g><mask/><g stroke-linecap="round"><g transform="translate(550.6992308989716 470.9940370804087) rotate(0 21.569154188106623 30.663031464381614)"><path d="M0 0 C13.02 18.51, 26.04 37.01, 43.14 61.33 M0 0 C12.35 17.55, 24.7 35.11, 43.14 61.33" stroke="#1e1e1e" stroke-width="2" fill="none"/></g><g transform="translate(550.6992308989716 470.9940370804087) rotate(0 21.569154188106623 30.663031464381614)"><path d="M43.14 61.33 L30.13 53.85 L40.5 46.56 L43.14 61.33" stroke="none" stroke-width="0" fill="#1e1e1e" fill-rule="evenodd"/><path d="M43.14 61.33 C39.21 59.07, 35.29 56.82, 30.13 53.85 M43.14 61.33 C39.42 59.19, 35.69 57.05, 30.13 53.85 M30.13 53.85 C34.2 50.99, 38.27 48.13, 40.5 46.56 M30.13 53.85 C33.43 51.54, 36.72 49.22, 40.5 46.56 M40.5 46.56 C41.45 51.86, 42.4 57.16, 43.14 61.33 M40.5 46.56 C41.04 49.55, 41.57 52.54, 43.14 61.33 M43.14 61.33 C43.14 61.33, 43.14 61.33, 43.14 61.33 M43.14 61.33 C43.14 61.33, 43.14 61.33, 43.14 61.33" stroke="#1e1e1e" stroke-width="2" fill="none"/></g></g><mask/><g stroke-linecap="round"><g transform="translate(1010 471) rotate(0 0 29)"><path d="M0 0 C0 16.84, 0 33.69, 0 58 M0 0 C0 17.45, 0 34.91, 0 58" stroke="#1e1e1e" stroke-width="2" fill="none"/></g><g transform="translate(1010 471) rotate(0 0 29)"><path d="M0 58 L-6.34 44.41 L6.34 44.41 L0 58" stroke="none" stroke-width="0" fill="#1e1e1e" fill-rule="evenodd"/><path d="M0 58 C-1.84 54.05, -3.68 50.1, -6.34 44.41 M0 58 C-1.91 53.91, -3.82 49.82, -6.34 44.41 M-6.34 44.41 C-1.27 44.41, 3.79 44.41, 6.34 44.41 M-6.34 44.41 C-1.77 44.41, 2.79 44.41, 6.34 44.41 M6.34 44.41 C5.03 47.2, 3.73 50, 0 58 M6.34 44.41 C4 49.43, 1.66 54.44, 0 58 M0 58 C0 58, 0 58, 0 58 M0 58 C0 58, 0 58, 0 58" stroke="#1e1e1e" stroke-width="2" fill="none"/></g></g><mask/><g stroke-linecap="round" transform="translate(750 530) rotate(0 40 40)"><path d="M80 40 C80 41.9, 79.86 43.81, 79.59 45.69 C79.32 47.57, 78.91 49.45, 78.38 51.27 C77.85 53.09, 77.17 54.89, 76.39 56.62 C75.6 58.34, 74.68 60.03, 73.65 61.63 C72.62 63.22, 71.47 64.76, 70.23 66.19 C68.99 67.63, 67.63 68.99, 66.19 70.23 C64.76 71.47, 63.22 72.62, 61.63 73.65 C60.03 74.68, 58.34 75.6, 56.62 76.39 C54.89 77.17, 53.09 77.85, 51.27 78.38 C49.45 78.91, 47.57 79.32, 45.69 79.59 C43.81 79.86, 41.9 80, 40 80 C38.1 80, 36.19 79.86, 34.31 79.59 C32.43 79.32, 30.55 78.91, 28.73 78.38 C26.91 77.85, 25.11 77.17, 23.38 76.39 C21.66 75.6, 19.97 74.68, 18.37 73.65 C16.78 72.62, 15.24 71.47, 13.81 70.23 C12.37 68.99, 11.01 67.63, 9.77 66.19 C8.53 64.76, 7.38 63.22, 6.35 61.63 C5.32 60.03, 4.4 58.34, 3.61 56.62 C2.83 54.89, 2.15 53.09, 1.62 51.27 C1.09 49.45, 0.68 47.57, 0.41 45.69 C0.14 43.81, 0 41.9, 0 40 C0 38.1, 0.14 36.19, 0.41 34.31 C0.68 32.43, 1.09 30.55, 1.62 28.73 C2.15 26.91, 2.83 25.11, 3.61 23.38 C4.4 21.66, 5.32 19.97, 6.35 18.37 C7.38 16.78, 8.53 15.24, 9.77 13.81 C11.01 12.37, 12.37 11.01, 13.81 9.77 C15.24 8.53, 16.78 7.38, 18.37 6.35 C19.97 5.32, 21.66 4.4, 23.38 3.61 C25.11 2.83, 26.91 2.15, 28.73 1.62 C30.55 1.09, 32.43 0.68, 34.31 0.41 C36.19 0.14, 38.1 0, 40 0 C41.9 0, 43.81 0.14, 45.69 0.41 C47.57 0.68, 49.45 1.09, 51.27 1.62 C53.09 2.15, 54.89 2.83, 56.62 3.61 C58.34 4.4, 60.03 5.32, 61.63 6.35 C63.22 7.38, 64.76 8.53, 66.19 9.77 C67.63 11.01, 68.99 12.37, 70.23 13.81 C71.47 15.24, 72.62 16.78, 73.65 18.37 C74.68 19.97, 75.6 21.66, 76.39 23.38 C77.17 25.11, 77.85 26.91, 78.38 28.73 C78.91 30.55, 79.32 32.43, 79.59 34.31 C79.86 36.19, 79.93 39.05, 80 40 C80.07 40.95, 80.07 39.05, 80 40" stroke="none" stroke-width="0" fill="#e9ecef"/><path d="M80 40 C80 41.9, 79.86 43.81, 79.59 45.69 C79.32 47.57, 78.91 49.45, 78.38 51.27 C77.85 53.09, 77.17 54.89, 76.39 56.62 C75.6 58.34, 74.68 60.03, 73.65 61.63 C72.62 63.22, 71.47 64.76, 70.23 66.19 C68.99 67.63, 67.63 68.99, 66.19 70.23 C64.76 71.47, 63.22 72.62, 61.63 73.65 C60.03 74.68, 58.34 75.6, 56.62 76.39 C54.89 77.17, 53.09 77.85, 51.27 78.38 C49.45 78.91, 47.57 79.32, 45.69 79.59 C43.81 79.86, 41.9 80, 40 80 C38.1 80, 36.19 79.86, 34.31 79.59 C32.43 79.32, 30.55 78.91, 28.73 78.38 C26.91 77.85, 25.11 77.17, 23.38 76.39 C21.66 75.6, 19.97 74.68, 18.37 73.65 C16.78 72.62, 15.24 71.47, 13.81 70.23 C12.37 68.99, 11.01 67.63, 9.77 66.19 C8.53 64.76, 7.38 63.22, 6.35 61.63 C5.32 60.03, 4.4 58.34, 3.61 56.62 C2.83 54.89, 2.15 53.09, 1.62 51.27 C1.09 49.45, 0.68 47.57, 0.41 45.69 C0.14 43.81, 0 41.9, 0 40 C0 38.1, 0.14 36.19, 0.41 34.31 C0.68 32.43, 1.09 30.55, 1.62 28.73 C2.15 26.91, 2.83 25.11, 3.61 23.38 C4.4 21.66, 5.32 19.97, 6.35 18.37 C7.38 16.78, 8.53 15.24, 9.77 13.81 C11.01 12.37, 12.37 11.01, 13.81 9.77 C15.24 8.53, 16.78 7.38, 18.37 6.35 C19.97 5.32, 21.66 4.4, 23.38 3.61 C25.11 2.83, 26.91 2.15, 28.73 1.62 C30.55 1.09, 32.43 0.68, 34.31 0.41 C36.19 0.14, 38.1 0, 40 0 C41.9 0, 43.81 0.14, 45.69 0.41 C47.57 0.68, 49.45 1.09, 51.27 1.62 C53.09 2.15, 54.89 2.83, 56.62 3.61 C58.34 4.4, 60.03 5.32, 61.63 6.35 C63.22 7.38, 64.76 8.53, 66.19 9.77 C67.63 11.01, 68.99 12.37, 70.23 13.81 C71.47 15.24, 72.62 16.78, 73.65 18.37 C74.68 19.97, 75.6 21.66, 76.39 23.38 C77.17 25.11, 77.85 26.91, 78.38 28.73 C78.91 30.55, 79.32 32.43, 79.59 34.31 C79.86 36.19, 79.93 39.05, 80 40 C80.07 40.95, 80.07 39.05, 80 40" stroke="#1e1e1e" stroke-width="2" fill="none"/></g><g transform="translate(780.8778381275381 554.1157287525381) rotate(0 9.337890625 16.099999999999994)"><text x="9.337890625" y="0" font-family="Helvetica, Segoe UI Emoji" font-size="28px" fill="#1e1e1e" text-anchor="middle" style="white-space: pre;" direction="ltr" dominant-baseline="text-before-edge">A</text></g><g stroke-linecap="round" transform="translate(750 390) rotate(0 40 40)"><path d="M80 40 C80 41.9, 79.86 43.81, 79.59 45.69 C79.32 47.57, 78.91 49.45, 78.38 51.27 C77.85 53.09, 77.17 54.89, 76.39 56.62 C75.6 58.34, 74.68 60.03, 73.65 61.63 C72.62 63.22, 71.47 64.76, 70.23 66.19 C68.99 67.63, 67.63 68.99, 66.19 70.23 C64.76 71.47, 63.22 72.62, 61.63 73.65 C60.03 74.68, 58.34 75.6, 56.62 76.39 C54.89 77.17, 53.09 77.85, 51.27 78.38 C49.45 78.91, 47.57 79.32, 45.69 79.59 C43.81 79.86, 41.9 80, 40 80 C38.1 80, 36.19 79.86, 34.31 79.59 C32.43 79.32, 30.55 78.91, 28.73 78.38 C26.91 77.85, 25.11 77.17, 23.38 76.39 C21.66 75.6, 19.97 74.68, 18.37 73.65 C16.78 72.62, 15.24 71.47, 13.81 70.23 C12.37 68.99, 11.01 67.63, 9.77 66.19 C8.53 64.76, 7.38 63.22, 6.35 61.63 C5.32 60.03, 4.4 58.34, 3.61 56.62 C2.83 54.89, 2.15 53.09, 1.62 51.27 C1.09 49.45, 0.68 47.57, 0.41 45.69 C0.14 43.81, 0 41.9, 0 40 C0 38.1, 0.14 36.19, 0.41 34.31 C0.68 32.43, 1.09 30.55, 1.62 28.73 C2.15 26.91, 2.83 25.11, 3.61 23.38 C4.4 21.66, 5.32 19.97, 6.35 18.37 C7.38 16.78, 8.53 15.24, 9.77 13.81 C11.01 12.37, 12.37 11.01, 13.81 9.77 C15.24 8.53, 16.78 7.38, 18.37 6.35 C19.97 5.32, 21.66 4.4, 23.38 3.61 C25.11 2.83, 26.91 2.15, 28.73 1.62 C30.55 1.09, 32.43 0.68, 34.31 0.41 C36.19 0.14, 38.1 0, 40 0 C41.9 0, 43.81 0.14, 45.69 0.41 C47.57 0.68, 49.45 1.09, 51.27 1.62 C53.09 2.15, 54.89 2.83, 56.62 3.61 C58.34 4.4, 60.03 5.32, 61.63 6.35 C63.22 7.38, 64.76 8.53, 66.19 9.77 C67.63 11.01, 68.99 12.37, 70.23 13.81 C71.47 15.24, 72.62 16.78, 73.65 18.37 C74.68 19.97, 75.6 21.66, 76.39 23.38 C77.17 25.11, 77.85 26.91, 78.38 28.73 C78.91 30.55, 79.32 32.43, 79.59 34.31 C79.86 36.19, 79.93 39.05, 80 40 C80.07 40.95, 80.07 39.05, 80 40" stroke="none" stroke-width="0" fill="#e9ecef"/><path d="M80 40 C80 41.9, 79.86 43.81, 79.59 45.69 C79.32 47.57, 78.91 49.45, 78.38 51.27 C77.85 53.09, 77.17 54.89, 76.39 56.62 C75.6 58.34, 74.68 60.03, 73.65 61.63 C72.62 63.22, 71.47 64.76, 70.23 66.19 C68.99 67.63, 67.63 68.99, 66.19 70.23 C64.76 71.47, 63.22 72.62, 61.63 73.65 C60.03 74.68, 58.34 75.6, 56.62 76.39 C54.89 77.17, 53.09 77.85, 51.27 78.38 C49.45 78.91, 47.57 79.32, 45.69 79.59 C43.81 79.86, 41.9 80, 40 80 C38.1 80, 36.19 79.86, 34.31 79.59 C32.43 79.32, 30.55 78.91, 28.73 78.38 C26.91 77.85, 25.11 77.17, 23.38 76.39 C21.66 75.6, 19.97 74.68, 18.37 73.65 C16.78 72.62, 15.24 71.47, 13.81 70.23 C12.37 68.99, 11.01 67.63, 9.77 66.19 C8.53 64.76, 7.38 63.22, 6.35 61.63 C5.32 60.03, 4.4 58.34, 3.61 56.62 C2.83 54.89, 2.15 53.09, 1.62 51.27 C1.09 49.45, 0.68 47.57, 0.41 45.69 C0.14 43.81, 0 41.9, 0 40 C0 38.1, 0.14 36.19, 0.41 34.31 C0.68 32.43, 1.09 30.55, 1.62 28.73 C2.15 26.91, 2.83 25.11, 3.61 23.38 C4.4 21.66, 5.32 19.97, 6.35 18.37 C7.38 16.78, 8.53 15.24, 9.77 13.81 C11.01 12.37, 12.37 11.01, 13.81 9.77 C15.24 8.53, 16.78 7.38, 18.37 6.35 C19.97 5.32, 21.66 4.4, 23.38 3.61 C25.11 2.83, 26.91 2.15, 28.73 1.62 C30.55 1.09, 32.43 0.68, 34.31 0.41 C36.19 0.14, 38.1 0, 40 0 C41.9 0, 43.81 0.14, 45.69 0.41 C47.57 0.68, 49.45 1.09, 51.27 1.62 C53.09 2.15, 54.89 2.83, 56.62 3.61 C58.34 4.4, 60.03 5.32, 61.63 6.35 C63.22 7.38, 64.76 8.53, 66.19 9.77 C67.63 11.01, 68.99 12.37, 70.23 13.81 C71.47 15.24, 72.62 16.78, 73.65 18.37 C74.68 19.97, 75.6 21.66, 76.39 23.38 C77.17 25.11, 77.85 26.91, 78.38 28.73 C78.91 30.55, 79.32 32.43, 79.59 34.31 C79.86 36.19, 79.93 39.05, 80 40 C80.07 40.95, 80.07 39.05, 80 40" stroke="#1e1e1e" stroke-width="2" fill="none"/></g><g stroke-linecap="round"><g transform="translate(790 471) rotate(0 0 29)"><path d="M0 0 C0 22.35, 0 44.7, 0 58 M0 0 C0 18.85, 0 37.7, 0 58" stroke="#1e1e1e" stroke-width="2" fill="none"/></g><g transform="translate(790 471) rotate(0 0 29)"><path d="M0 58 L-6.34 44.41 L6.34 44.41 L0 58" stroke="none" stroke-width="0" fill="#1e1e1e" fill-rule="evenodd"/><path d="M0 58 C-2.44 52.76, -4.89 47.52, -6.34 44.41 M0 58 C-2.06 53.58, -4.12 49.16, -6.34 44.41 M-6.34 44.41 C-3.39 44.41, -0.45 44.41, 6.34 44.41 M-6.34 44.41 C-1.76 44.41, 2.83 44.41, 6.34 44.41 M6.34 44.41 C4.43 48.51, 2.51 52.61, 0 58 M6.34 44.41 C3.88 49.68, 1.42 54.95, 0 58 M0 58 C0 58, 0 58, 0 58 M0 58 C0 58, 0 58, 0 58" stroke="#1e1e1e" stroke-width="2" fill="none"/></g></g><mask/><g stroke-linecap="round"><g transform="translate(1009.3265225311482 610.9944682621808) rotate(0 -20.95592709554478 30.943877657288738)"><path d="M0 0 C-9.43 13.92, -18.85 27.84, -41.91 61.89 M0 0 C-16.08 23.75, -32.16 47.49, -41.91 61.89" stroke="#1e1e1e" stroke-width="2" fill="none"/></g><g transform="translate(1009.3265225311482 610.9944682621808) rotate(0 -20.95592709554478 30.943877657288738)"><path d="M-41.91 61.89 L-39.54 47.08 L-29.04 54.19 L-41.91 61.89" stroke="none" stroke-width="0" fill="#1e1e1e" fill-rule="evenodd"/><path d="M-41.91 61.89 C-41.38 58.56, -40.84 55.23, -39.54 47.08 M-41.91 61.89 C-41 56.2, -40.09 50.52, -39.54 47.08 M-39.54 47.08 C-37.16 48.68, -34.79 50.29, -29.04 54.19 M-39.54 47.08 C-36.15 49.37, -32.77 51.66, -29.04 54.19 M-29.04 54.19 C-34.14 57.24, -39.24 60.29, -41.91 61.89 M-29.04 54.19 C-32.08 56, -35.11 57.82, -41.91 61.89 M-41.91 61.89 C-41.91 61.89, -41.91 61.89, -41.91 61.89 M-41.91 61.89 C-41.91 61.89, -41.91 61.89, -41.91 61.89" stroke="#1e1e1e" stroke-width="2" fill="none"/></g></g><mask/><g stroke-linecap="round"><g transform="translate(1010.6934868951456 610.9941346527312) rotate(0 21.432126617610948 30.723608335552655)"><path d="M0 0 C16.45 23.58, 32.9 47.17, 42.86 61.45 M0 0 C10.16 14.56, 20.32 29.12, 42.86 61.45" stroke="#1e1e1e" stroke-width="2" fill="none"/></g><g transform="translate(1010.6934868951456 610.9941346527312) rotate(0 21.432126617610948 30.723608335552655)"><path d="M42.86 61.45 L29.89 53.92 L40.29 46.67 L42.86 61.45" stroke="none" stroke-width="0" fill="#1e1e1e" fill-rule="evenodd"/><path d="M42.86 61.45 C37.88 58.56, 32.9 55.67, 29.89 53.92 M42.86 61.45 C39.79 59.66, 36.71 57.88, 29.89 53.92 M29.89 53.92 C33.68 51.28, 37.47 48.63, 40.29 46.67 M29.89 53.92 C32.88 51.84, 35.88 49.75, 40.29 46.67 M40.29 46.67 C40.92 50.28, 41.55 53.9, 42.86 61.45 M40.29 46.67 C41.26 52.24, 42.23 57.82, 42.86 61.45 M42.86 61.45 C42.86 61.45, 42.86 61.45, 42.86 61.45 M42.86 61.45 C42.86 61.45, 42.86 61.45, 42.86 61.45" stroke="#1e1e1e" stroke-width="2" fill="none"/></g></g><mask/><g transform="translate(250 10) rotate(0 75.4755859375 16.099999999999994)"><text x="0" y="0" font-family="Helvetica, Segoe UI Emoji" font-size="28px" fill="#1e1e1e" text-anchor="start" style="white-space: pre;" direction="ltr" dominant-baseline="text-before-edge">exact match</text></g><g transform="translate(690 10) rotate(0 110.509765625 32.19999999999999)"><text x="110.509765625" y="0" font-family="Helvetica, Segoe UI Emoji" font-size="28px" fill="#1e1e1e" text-anchor="middle" style="white-space: pre;" direction="ltr" dominant-baseline="text-before-edge">allow unspecified </text><text x="110.509765625" y="32.199999999999996" font-family="Helvetica, Segoe UI Emoji" font-size="28px" fill="#1e1e1e" text-anchor="middle" style="white-space: pre;" direction="ltr" dominant-baseline="text-before-edge">parents</text></g><g transform="translate(450 10) rotate(0 106.6201171875 32.19999999999999)"><text x="106.6201171875" y="0" font-family="Helvetica, Segoe UI Emoji" font-size="28px" fill="#1e1e1e" text-anchor="middle" style="white-space: pre;" direction="ltr" dominant-baseline="text-before-edge">allow unspecified</text><text x="106.6201171875" y="32.199999999999996" font-family="Helvetica, Segoe UI Emoji" font-size="28px" fill="#1e1e1e" text-anchor="middle" style="white-space: pre;" direction="ltr" dominant-baseline="text-before-edge">children</text></g><g transform="translate(950 10) rotate(0 63.041015625 16.099999999999994)"><text x="63.041015625" y="0" font-family="Helvetica, Segoe UI Emoji" font-size="28px" fill="#1e1e1e" text-anchor="middle" style="white-space: pre;" direction="ltr" dominant-baseline="text-before-edge">allow both</text></g></svg>