<svg version="1.1" xmlns="http://www.w3.org/2000/svg" viewBox="0 0 1000 620" width="1000" height="620">
  <!-- svg-source:excalidraw -->
  
  <defs>
    <style class="style-fonts">
      @font-face {
        font-family: "Virgil";
        src: url("https://excalidraw.com/Virgil.woff2");
      }
      @font-face {
        font-family: "Cascadia";
        src: url("https://excalidraw.com/Cascadia.woff2");
      }
    </style>
    
  </defs>
  <rect x="0" y="0" width="1000" height="620" fill="#ffffff"/><g stroke-linecap="round"><g transform="translate(150 190) rotate(0 0 40)"><path d="M0 0 C13.63 27.25, 27.25 54.51, 40 80 M40 80 C13.47 80, -13.05 80, -40 80 M-40 80 C-31.18 62.35, -22.35 44.7, 0 0" stroke="#1e1e1e" stroke-width="2.5" fill="none" stroke-dasharray="1.5 8"/></g></g><mask/><g stroke-linecap="round" transform="translate(110 150) rotate(0 40 40)"><path d="M80 40 C80 41.9, 79.86 43.81, 79.59 45.69 C79.32 47.57, 78.91 49.45, 78.38 51.27 C77.85 53.09, 77.17 54.89, 76.39 56.62 C75.6 58.34, 74.68 60.03, 73.65 61.63 C72.62 63.22, 71.47 64.76, 70.23 66.19 C68.99 67.63, 67.63 68.99, 66.19 70.23 C64.76 71.47, 63.22 72.62, 61.63 73.65 C60.03 74.68, 58.34 75.6, 56.62 76.39 C54.89 77.17, 53.09 77.85, 51.27 78.38 C49.45 78.91, 47.57 79.32, 45.69 79.59 C43.81 79.86, 41.9 80, 40 80 C38.1 80, 36.19 79.86, 34.31 79.59 C32.43 79.32, 30.55 78.91, 28.73 78.38 C26.91 77.85, 25.11 77.17, 23.38 76.39 C21.66 75.6, 19.97 74.68, 18.37 73.65 C16.78 72.62, 15.24 71.47, 13.81 70.23 C12.37 68.99, 11.01 67.63, 9.77 66.19 C8.53 64.76, 7.38 63.22, 6.35 61.63 C5.32 60.03, 4.4 58.34, 3.61 56.62 C2.83 54.89, 2.15 53.09, 1.62 51.27 C1.09 49.45, 0.68 47.57, 0.41 45.69 C0.14 43.81, 0 41.9, 0 40 C0 38.1, 0.14 36.19, 0.41 34.31 C0.68 32.43, 1.09 30.55, 1.62 28.73 C2.15 26.91, 2.83 25.11, 3.61 23.38 C4.4 21.66, 5.32 19.97, 6.35 18.37 C7.38 16.78, 8.53 15.24, 9.77 13.81 C11.01 12.37, 12.37 11.01, 13.81 9.77 C15.24 8.53, 16.78 7.38, 18.37 6.35 C19.97 5.32, 21.66 4.4, 23.38 3.61 C25.11 2.83, 26.91 2.15, 28.73 1.62 C30.55 1.09, 32.43 0.68, 34.31 0.41 C36.19 0.14, 38.1 0, 40 0 C41.9 0, 43.81 0.14, 45.69 0.41 C47.57 0.68, 49.45 1.09, 51.27 1.62 C53.09 2.15, 54.89 2.83, 56.62 3.61 C58.34 4.4, 60.03 5.32, 61.63 6.35 C63.22 7.38, 64.76 8.53, 66.19 9.77 C67.63 11.01, 68.99 12.37, 70.23 13.81 C71.47 15.24, 72.62 16.78, 73.65 18.37 C74.68 19.97, 75.6 21.66, 76.39 23.38 C77.17 25.11, 77.85 26.91, 78.38 28.73 C78.91 30.55, 79.32 32.43, 79.59 34.31 C79.86 36.19, 79.93 39.05, 80 40 C80.07 40.95, 80.07 39.05, 80 40" stroke="none" stroke-width="0" fill="#e9ecef"/><path d="M80 40 C80 41.9, 79.86 43.81, 79.59 45.69 C79.32 47.57, 78.91 49.45, 78.38 51.27 C77.85 53.09, 77.17 54.89, 76.39 56.62 C75.6 58.34, 74.68 60.03, 73.65 61.63 C72.62 63.22, 71.47 64.76, 70.23 66.19 C68.99 67.63, 67.63 68.99, 66.19 70.23 C64.76 71.47, 63.22 72.62, 61.63 73.65 C60.03 74.68, 58.34 75.6, 56.62 76.39 C54.89 77.17, 53.09 77.85, 51.27 78.38 C49.45 78.91, 47.57 79.32, 45.69 79.59 C43.81 79.86, 41.9 80, 40 80 C38.1 80, 36.19 79.86, 34.31 79.59 C32.43 79.32, 30.55 78.91, 28.73 78.38 C26.91 77.85, 25.11 77.17, 23.38 76.39 C21.66 75.6, 19.97 74.68, 18.37 73.65 C16.78 72.62, 15.24 71.47, 13.81 70.23 C12.37 68.99, 11.01 67.63, 9.77 66.19 C8.53 64.76, 7.38 63.22, 6.35 61.63 C5.32 60.03, 4.4 58.34, 3.61 56.62 C2.83 54.89, 2.15 53.09, 1.62 51.27 C1.09 49.45, 0.68 47.57, 0.41 45.69 C0.14 43.81, 0 41.9, 0 40 C0 38.1, 0.14 36.19, 0.41 34.31 C0.68 32.43, 1.09 30.55, 1.62 28.73 C2.15 26.91, 2.83 25.11, 3.61 23.38 C4.4 21.66, 5.32 19.97, 6.35 18.37 C7.38 16.78, 8.53 15.24, 9.77 13.81 C11.01 12.37, 12.37 11.01, 13.81 9.77 C15.24 8.53, 16.78 7.38, 18.37 6.35 C19.97 5.32, 21.66 4.4, 23.38 3.61 C25.11 2.83, 26.91 2.15, 28.73 1.62 C30.55 1.09, 32.43 0.68, 34.31 0.41 C36.19 0.14, 38.1 0, 40 0 C41.9 0, 43.81 0.14, 45.69 0.41 C47.57 0.68, 49.45 1.09, 51.27 1.62 C53.09 2.15, 54.89 2.83, 56.62 3.61 C58.34 4.4, 60.03 5.32, 61.63 6.35 C63.22 7.38, 64.76 8.53, 66.19 9.77 C67.63 11.01, 68.99 12.37, 70.23 13.81 C71.47 15.24, 72.62 16.78, 73.65 18.37 C74.68 19.97, 75.6 21.66, 76.39 23.38 C77.17 25.11, 77.85 26.91, 78.38 28.73 C78.91 30.55, 79.32 32.43, 79.59 34.31 C79.86 36.19, 79.93 39.05, 80 40 C80.07 40.95, 80.07 39.05, 80 40" stroke="#1e1e1e" stroke-width="2" fill="none"/></g><g transform="translate(140.8778381275381 174.1157287525381) rotate(0 9.337890625 16.099999999999994)"><text x="9.337890625" y="0" font-family="Helvetica, Segoe UI Emoji" font-size="28px" fill="#1e1e1e" text-anchor="middle" style="white-space: pre;" direction="ltr" dominant-baseline="text-before-edge">A</text></g><g stroke-linecap="round"><g transform="translate(150 70) rotate(0 0 39.5)"><path d="M0 0 C0 22.06, 0 44.12, 0 79" stroke="#1e1e1e" stroke-width="2.5" fill="none" stroke-dasharray="1.5 8"/></g><g transform="translate(150 70) rotate(0 0 39.5)"><path d="M0 79 L-6.34 65.41 L6.34 65.41 L0 79" stroke="none" stroke-width="0" fill="#1e1e1e" fill-rule="evenodd"/><path d="M0 79 C-1.77 75.2, -3.54 71.41, -6.34 65.41 M-6.34 65.41 C-1.92 65.41, 2.51 65.41, 6.34 65.41 M6.34 65.41 C4.64 69.05, 2.94 72.69, 0 79 M0 79 C0 79, 0 79, 0 79" stroke="#1e1e1e" stroke-width="2.5" fill="none"/></g></g><mask/><g stroke-linecap="round"><g transform="translate(150 390) rotate(0 0 40)"><path d="M0 0 C11.49 22.97, 22.97 45.94, 40 80 M40 80 C17.79 80, -4.42 80, -40 80 M-40 80 C-25.18 50.37, -10.37 20.74, 0 0" stroke="#1e1e1e" stroke-width="2.5" fill="none" stroke-dasharray="1.5 8"/></g></g><mask/><g stroke-linecap="round" transform="translate(110 350) rotate(0 40 40)"><path d="M80 40 C80 41.9, 79.86 43.81, 79.59 45.69 C79.32 47.57, 78.91 49.45, 78.38 51.27 C77.85 53.09, 77.17 54.89, 76.39 56.62 C75.6 58.34, 74.68 60.03, 73.65 61.63 C72.62 63.22, 71.47 64.76, 70.23 66.19 C68.99 67.63, 67.63 68.99, 66.19 70.23 C64.76 71.47, 63.22 72.62, 61.63 73.65 C60.03 74.68, 58.34 75.6, 56.62 76.39 C54.89 77.17, 53.09 77.85, 51.27 78.38 C49.45 78.91, 47.57 79.32, 45.69 79.59 C43.81 79.86, 41.9 80, 40 80 C38.1 80, 36.19 79.86, 34.31 79.59 C32.43 79.32, 30.55 78.91, 28.73 78.38 C26.91 77.85, 25.11 77.17, 23.38 76.39 C21.66 75.6, 19.97 74.68, 18.37 73.65 C16.78 72.62, 15.24 71.47, 13.81 70.23 C12.37 68.99, 11.01 67.63, 9.77 66.19 C8.53 64.76, 7.38 63.22, 6.35 61.63 C5.32 60.03, 4.4 58.34, 3.61 56.62 C2.83 54.89, 2.15 53.09, 1.62 51.27 C1.09 49.45, 0.68 47.57, 0.41 45.69 C0.14 43.81, 0 41.9, 0 40 C0 38.1, 0.14 36.19, 0.41 34.31 C0.68 32.43, 1.09 30.55, 1.62 28.73 C2.15 26.91, 2.83 25.11, 3.61 23.38 C4.4 21.66, 5.32 19.97, 6.35 18.37 C7.38 16.78, 8.53 15.24, 9.77 13.81 C11.01 12.37, 12.37 11.01, 13.81 9.77 C15.24 8.53, 16.78 7.38, 18.37 6.35 C19.97 5.32, 21.66 4.4, 23.38 3.61 C25.11 2.83, 26.91 2.15, 28.73 1.62 C30.55 1.09, 32.43 0.68, 34.31 0.41 C36.19 0.14, 38.1 0, 40 0 C41.9 0, 43.81 0.14, 45.69 0.41 C47.57 0.68, 49.45 1.09, 51.27 1.62 C53.09 2.15, 54.89 2.83, 56.62 3.61 C58.34 4.4, 60.03 5.32, 61.63 6.35 C63.22 7.38, 64.76 8.53, 66.19 9.77 C67.63 11.01, 68.99 12.37, 70.23 13.81 C71.47 15.24, 72.62 16.78, 73.65 18.37 C74.68 19.97, 75.6 21.66, 76.39 23.38 C77.17 25.11, 77.85 26.91, 78.38 28.73 C78.91 30.55, 79.32 32.43, 79.59 34.31 C79.86 36.19, 79.93 39.05, 80 40 C80.07 40.95, 80.07 39.05, 80 40" stroke="none" stroke-width="0" fill="#e9ecef"/><path d="M80 40 C80 41.9, 79.86 43.81, 79.59 45.69 C79.32 47.57, 78.91 49.45, 78.38 51.27 C77.85 53.09, 77.17 54.89, 76.39 56.62 C75.6 58.34, 74.68 60.03, 73.65 61.63 C72.62 63.22, 71.47 64.76, 70.23 66.19 C68.99 67.63, 67.63 68.99, 66.19 70.23 C64.76 71.47, 63.22 72.62, 61.63 73.65 C60.03 74.68, 58.34 75.6, 56.62 76.39 C54.89 77.17, 53.09 77.85, 51.27 78.38 C49.45 78.91, 47.57 79.32, 45.69 79.59 C43.81 79.86, 41.9 80, 40 80 C38.1 80, 36.19 79.86, 34.31 79.59 C32.43 79.32, 30.55 78.91, 28.73 78.38 C26.91 77.85, 25.11 77.17, 23.38 76.39 C21.66 75.6, 19.97 74.68, 18.37 73.65 C16.78 72.62, 15.24 71.47, 13.81 70.23 C12.37 68.99, 11.01 67.63, 9.77 66.19 C8.53 64.76, 7.38 63.22, 6.35 61.63 C5.32 60.03, 4.4 58.34, 3.61 56.62 C2.83 54.89, 2.15 53.09, 1.62 51.27 C1.09 49.45, 0.68 47.57, 0.41 45.69 C0.14 43.81, 0 41.9, 0 40 C0 38.1, 0.14 36.19, 0.41 34.31 C0.68 32.43, 1.09 30.55, 1.62 28.73 C2.15 26.91, 2.83 25.11, 3.61 23.38 C4.4 21.66, 5.32 19.97, 6.35 18.37 C7.38 16.78, 8.53 15.24, 9.77 13.81 C11.01 12.37, 12.37 11.01, 13.81 9.77 C15.24 8.53, 16.78 7.38, 18.37 6.35 C19.97 5.32, 21.66 4.4, 23.38 3.61 C25.11 2.83, 26.91 2.15, 28.73 1.62 C30.55 1.09, 32.43 0.68, 34.31 0.41 C36.19 0.14, 38.1 0, 40 0 C41.9 0, 43.81 0.14, 45.69 0.41 C47.57 0.68, 49.45 1.09, 51.27 1.62 C53.09 2.15, 54.89 2.83, 56.62 3.61 C58.34 4.4, 60.03 5.32, 61.63 6.35 C63.22 7.38, 64.76 8.53, 66.19 9.77 C67.63 11.01, 68.99 12.37, 70.23 13.81 C71.47 15.24, 72.62 16.78, 73.65 18.37 C74.68 19.97, 75.6 21.66, 76.39 23.38 C77.17 25.11, 77.85 26.91, 78.38 28.73 C78.91 30.55, 79.32 32.43, 79.59 34.31 C79.86 36.19, 79.93 39.05, 80 40 C80.07 40.95, 80.07 39.05, 80 40" stroke="#1e1e1e" stroke-width="2" fill="none"/></g><g transform="translate(140.8778381275381 374.1157287525381) rotate(0 9.337890625 16.099999999999998)"><text x="9.337890625" y="0" font-family="Helvetica, Segoe UI Emoji" font-size="28px" fill="#1e1e1e" text-anchor="middle" style="white-space: pre;" direction="ltr" dominant-baseline="text-before-edge">B</text></g><g stroke-linecap="round"><g transform="translate(150 231) rotate(0 0 59)"><path d="M0 0 C0 26.66, 0 53.32, 0 118" stroke="#1e1e1e" stroke-width="2.5" fill="none" stroke-dasharray="1.5 8"/></g><g transform="translate(150 231) rotate(0 0 59)"><path d="M0 118 L-6.34 104.41 L6.34 104.41 L0 118" stroke="none" stroke-width="0" fill="#1e1e1e" fill-rule="evenodd"/><path d="M0 118 C-1.43 114.93, -2.86 111.86, -6.34 104.41 M-6.34 104.41 C-3.42 104.41, -0.5 104.41, 6.34 104.41 M6.34 104.41 C3.89 109.66, 1.44 114.91, 0 118 M0 118 C0 118, 0 118, 0 118" stroke="#1e1e1e" stroke-width="2.5" fill="none"/></g></g><mask/><g stroke-linecap="round" transform="translate(610 150) rotate(0 40 40)"><path d="M80 40 C80 41.9, 79.86 43.81, 79.59 45.69 C79.32 47.57, 78.91 49.45, 78.38 51.27 C77.85 53.09, 77.17 54.89, 76.39 56.62 C75.6 58.34, 74.68 60.03, 73.65 61.63 C72.62 63.22, 71.47 64.76, 70.23 66.19 C68.99 67.63, 67.63 68.99, 66.19 70.23 C64.76 71.47, 63.22 72.62, 61.63 73.65 C60.03 74.68, 58.34 75.6, 56.62 76.39 C54.89 77.17, 53.09 77.85, 51.27 78.38 C49.45 78.91, 47.57 79.32, 45.69 79.59 C43.81 79.86, 41.9 80, 40 80 C38.1 80, 36.19 79.86, 34.31 79.59 C32.43 79.32, 30.55 78.91, 28.73 78.38 C26.91 77.85, 25.11 77.17, 23.38 76.39 C21.66 75.6, 19.97 74.68, 18.37 73.65 C16.78 72.62, 15.24 71.47, 13.81 70.23 C12.37 68.99, 11.01 67.63, 9.77 66.19 C8.53 64.76, 7.38 63.22, 6.35 61.63 C5.32 60.03, 4.4 58.34, 3.61 56.62 C2.83 54.89, 2.15 53.09, 1.62 51.27 C1.09 49.45, 0.68 47.57, 0.41 45.69 C0.14 43.81, 0 41.9, 0 40 C0 38.1, 0.14 36.19, 0.41 34.31 C0.68 32.43, 1.09 30.55, 1.62 28.73 C2.15 26.91, 2.83 25.11, 3.61 23.38 C4.4 21.66, 5.32 19.97, 6.35 18.37 C7.38 16.78, 8.53 15.24, 9.77 13.81 C11.01 12.37, 12.37 11.01, 13.81 9.77 C15.24 8.53, 16.78 7.38, 18.37 6.35 C19.97 5.32, 21.66 4.4, 23.38 3.61 C25.11 2.83, 26.91 2.15, 28.73 1.62 C30.55 1.09, 32.43 0.68, 34.31 0.41 C36.19 0.14, 38.1 0, 40 0 C41.9 0, 43.81 0.14, 45.69 0.41 C47.57 0.68, 49.45 1.09, 51.27 1.62 C53.09 2.15, 54.89 2.83, 56.62 3.61 C58.34 4.4, 60.03 5.32, 61.63 6.35 C63.22 7.38, 64.76 8.53, 66.19 9.77 C67.63 11.01, 68.99 12.37, 70.23 13.81 C71.47 15.24, 72.62 16.78, 73.65 18.37 C74.68 19.97, 75.6 21.66, 76.39 23.38 C77.17 25.11, 77.85 26.91, 78.38 28.73 C78.91 30.55, 79.32 32.43, 79.59 34.31 C79.86 36.19, 79.93 39.05, 80 40 C80.07 40.95, 80.07 39.05, 80 40" stroke="none" stroke-width="0" fill="#e9ecef"/><path d="M80 40 C80 41.9, 79.86 43.81, 79.59 45.69 C79.32 47.57, 78.91 49.45, 78.38 51.27 C77.85 53.09, 77.17 54.89, 76.39 56.62 C75.6 58.34, 74.68 60.03, 73.65 61.63 C72.62 63.22, 71.47 64.76, 70.23 66.19 C68.99 67.63, 67.63 68.99, 66.19 70.23 C64.76 71.47, 63.22 72.62, 61.63 73.65 C60.03 74.68, 58.34 75.6, 56.62 76.39 C54.89 77.17, 53.09 77.85, 51.27 78.38 C49.45 78.91, 47.57 79.32, 45.69 79.59 C43.81 79.86, 41.9 80, 40 80 C38.1 80, 36.19 79.86, 34.31 79.59 C32.43 79.32, 30.55 78.91, 28.73 78.38 C26.91 77.85, 25.11 77.17, 23.38 76.39 C21.66 75.6, 19.97 74.68, 18.37 73.65 C16.78 72.62, 15.24 71.47, 13.81 70.23 C12.37 68.99, 11.01 67.63, 9.77 66.19 C8.53 64.76, 7.38 63.22, 6.35 61.63 C5.32 60.03, 4.4 58.34, 3.61 56.62 C2.83 54.89, 2.15 53.09, 1.62 51.27 C1.09 49.45, 0.68 47.57, 0.41 45.69 C0.14 43.81, 0 41.9, 0 40 C0 38.1, 0.14 36.19, 0.41 34.31 C0.68 32.43, 1.09 30.55, 1.62 28.73 C2.15 26.91, 2.83 25.11, 3.61 23.38 C4.4 21.66, 5.32 19.97, 6.35 18.37 C7.38 16.78, 8.53 15.24, 9.77 13.81 C11.01 12.37, 12.37 11.01, 13.81 9.77 C15.24 8.53, 16.78 7.38, 18.37 6.35 C19.97 5.32, 21.66 4.4, 23.38 3.61 C25.11 2.83, 26.91 2.15, 28.73 1.62 C30.55 1.09, 32.43 0.68, 34.31 0.41 C36.19 0.14, 38.1 0, 40 0 C41.9 0, 43.81 0.14, 45.69 0.41 C47.57 0.68, 49.45 1.09, 51.27 1.62 C53.09 2.15, 54.89 2.83, 56.62 3.61 C58.34 4.4, 60.03 5.32, 61.63 6.35 C63.22 7.38, 64.76 8.53, 66.19 9.77 C67.63 11.01, 68.99 12.37, 70.23 13.81 C71.47 15.24, 72.62 16.78, 73.65 18.37 C74.68 19.97, 75.6 21.66, 76.39 23.38 C77.17 25.11, 77.85 26.91, 78.38 28.73 C78.91 30.55, 79.32 32.43, 79.59 34.31 C79.86 36.19, 79.93 39.05, 80 40 C80.07 40.95, 80.07 39.05, 80 40" stroke="#1e1e1e" stroke-width="2" fill="none"/></g><g transform="translate(640.8778381275381 174.1157287525381) rotate(0 9.337890625 16.099999999999994)"><text x="9.337890625" y="0" font-family="Helvetica, Segoe UI Emoji" font-size="28px" fill="#1e1e1e" text-anchor="middle" style="white-space: pre;" direction="ltr" dominant-baseline="text-before-edge">A</text></g><g stroke-linecap="round"><g transform="translate(648.8413498291227 230.98362514201892) rotate(0 -75.7068979163011 64.27065743092362)"><path d="M0 0 C-25.24 21.42, -126.18 107.12, -151.41 128.54 M0 0 C-25.24 21.42, -126.18 107.12, -151.41 128.54" stroke="#1e1e1e" stroke-width="1" fill="none"/></g><g transform="translate(648.8413498291227 230.98362514201892) rotate(0 -75.7068979163011 64.27065743092362)"><path d="M-151.41 128.54 L-145.15 114.91 L-136.95 124.58 L-151.41 128.54" stroke="none" stroke-width="0" fill="#1e1e1e" fill-rule="evenodd"/><path d="M-151.41 128.54 C-149.46 124.29, -147.51 120.05, -145.15 114.91 M-151.41 128.54 C-149.18 123.69, -146.95 118.83, -145.15 114.91 M-145.15 114.91 C-142.08 118.53, -139 122.15, -136.95 124.58 M-145.15 114.91 C-141.93 118.71, -138.7 122.51, -136.95 124.58 M-136.95 124.58 C-141.65 125.87, -146.36 127.16, -151.41 128.54 M-136.95 124.58 C-142.65 126.14, -148.36 127.7, -151.41 128.54 M-151.41 128.54 C-151.41 128.54, -151.41 128.54, -151.41 128.54 M-151.41 128.54 C-151.41 128.54, -151.41 128.54, -151.41 128.54" stroke="#1e1e1e" stroke-width="1" fill="none"/></g></g><mask/><g stroke-linecap="round" transform="translate(430 350) rotate(0 40 40)"><path d="M80 40 C80 41.9, 79.86 43.81, 79.59 45.69 C79.32 47.57, 78.91 49.45, 78.38 51.27 C77.85 53.09, 77.17 54.89, 76.39 56.62 C75.6 58.34, 74.68 60.03, 73.65 61.63 C72.62 63.22, 71.47 64.76, 70.23 66.19 C68.99 67.63, 67.63 68.99, 66.19 70.23 C64.76 71.47, 63.22 72.62, 61.63 73.65 C60.03 74.68, 58.34 75.6, 56.62 76.39 C54.89 77.17, 53.09 77.85, 51.27 78.38 C49.45 78.91, 47.57 79.32, 45.69 79.59 C43.81 79.86, 41.9 80, 40 80 C38.1 80, 36.19 79.86, 34.31 79.59 C32.43 79.32, 30.55 78.91, 28.73 78.38 C26.91 77.85, 25.11 77.17, 23.38 76.39 C21.66 75.6, 19.97 74.68, 18.37 73.65 C16.78 72.62, 15.24 71.47, 13.81 70.23 C12.37 68.99, 11.01 67.63, 9.77 66.19 C8.53 64.76, 7.38 63.22, 6.35 61.63 C5.32 60.03, 4.4 58.34, 3.61 56.62 C2.83 54.89, 2.15 53.09, 1.62 51.27 C1.09 49.45, 0.68 47.57, 0.41 45.69 C0.14 43.81, 0 41.9, 0 40 C0 38.1, 0.14 36.19, 0.41 34.31 C0.68 32.43, 1.09 30.55, 1.62 28.73 C2.15 26.91, 2.83 25.11, 3.61 23.38 C4.4 21.66, 5.32 19.97, 6.35 18.37 C7.38 16.78, 8.53 15.24, 9.77 13.81 C11.01 12.37, 12.37 11.01, 13.81 9.77 C15.24 8.53, 16.78 7.38, 18.37 6.35 C19.97 5.32, 21.66 4.4, 23.38 3.61 C25.11 2.83, 26.91 2.15, 28.73 1.62 C30.55 1.09, 32.43 0.68, 34.31 0.41 C36.19 0.14, 38.1 0, 40 0 C41.9 0, 43.81 0.14, 45.69 0.41 C47.57 0.68, 49.45 1.09, 51.27 1.62 C53.09 2.15, 54.89 2.83, 56.62 3.61 C58.34 4.4, 60.03 5.32, 61.63 6.35 C63.22 7.38, 64.76 8.53, 66.19 9.77 C67.63 11.01, 68.99 12.37, 70.23 13.81 C71.47 15.24, 72.62 16.78, 73.65 18.37 C74.68 19.97, 75.6 21.66, 76.39 23.38 C77.17 25.11, 77.85 26.91, 78.38 28.73 C78.91 30.55, 79.32 32.43, 79.59 34.31 C79.86 36.19, 79.93 39.05, 80 40 C80.07 40.95, 80.07 39.05, 80 40" stroke="none" stroke-width="0" fill="#e9ecef"/><path d="M80 40 C80 41.9, 79.86 43.81, 79.59 45.69 C79.32 47.57, 78.91 49.45, 78.38 51.27 C77.85 53.09, 77.17 54.89, 76.39 56.62 C75.6 58.34, 74.68 60.03, 73.65 61.63 C72.62 63.22, 71.47 64.76, 70.23 66.19 C68.99 67.63, 67.63 68.99, 66.19 70.23 C64.76 71.47, 63.22 72.62, 61.63 73.65 C60.03 74.68, 58.34 75.6, 56.62 76.39 C54.89 77.17, 53.09 77.85, 51.27 78.38 C49.45 78.91, 47.57 79.32, 45.69 79.59 C43.81 79.86, 41.9 80, 40 80 C38.1 80, 36.19 79.86, 34.31 79.59 C32.43 79.32, 30.55 78.91, 28.73 78.38 C26.91 77.85, 25.11 77.17, 23.38 76.39 C21.66 75.6, 19.97 74.68, 18.37 73.65 C16.78 72.62, 15.24 71.47, 13.81 70.23 C12.37 68.99, 11.01 67.63, 9.77 66.19 C8.53 64.76, 7.38 63.22, 6.35 61.63 C5.32 60.03, 4.4 58.34, 3.61 56.62 C2.83 54.89, 2.15 53.09, 1.62 51.27 C1.09 49.45, 0.68 47.57, 0.41 45.69 C0.14 43.81, 0 41.9, 0 40 C0 38.1, 0.14 36.19, 0.41 34.31 C0.68 32.43, 1.09 30.55, 1.62 28.73 C2.15 26.91, 2.83 25.11, 3.61 23.38 C4.4 21.66, 5.32 19.97, 6.35 18.37 C7.38 16.78, 8.53 15.24, 9.77 13.81 C11.01 12.37, 12.37 11.01, 13.81 9.77 C15.24 8.53, 16.78 7.38, 18.37 6.35 C19.97 5.32, 21.66 4.4, 23.38 3.61 C25.11 2.83, 26.91 2.15, 28.73 1.62 C30.55 1.09, 32.43 0.68, 34.31 0.41 C36.19 0.14, 38.1 0, 40 0 C41.9 0, 43.81 0.14, 45.69 0.41 C47.57 0.68, 49.45 1.09, 51.27 1.62 C53.09 2.15, 54.89 2.83, 56.62 3.61 C58.34 4.4, 60.03 5.32, 61.63 6.35 C63.22 7.38, 64.76 8.53, 66.19 9.77 C67.63 11.01, 68.99 12.37, 70.23 13.81 C71.47 15.24, 72.62 16.78, 73.65 18.37 C74.68 19.97, 75.6 21.66, 76.39 23.38 C77.17 25.11, 77.85 26.91, 78.38 28.73 C78.91 30.55, 79.32 32.43, 79.59 34.31 C79.86 36.19, 79.93 39.05, 80 40 C80.07 40.95, 80.07 39.05, 80 40" stroke="#1e1e1e" stroke-width="2" fill="none"/></g><g transform="translate(460.8778381275381 374.1157287525381) rotate(0 9.337890625 16.099999999999998)"><text x="9.337890625" y="0" font-family="Helvetica, Segoe UI Emoji" font-size="28px" fill="#1e1e1e" text-anchor="middle" style="white-space: pre;" direction="ltr" dominant-baseline="text-before-edge">A</text></g><g stroke-linecap="round"><g transform="translate(469.0907517458215 430.98991665778635) rotate(0 -48.17401897125822 52.448012556538245)"><path d="M0 0 C-16.06 17.48, -80.29 87.41, -96.35 104.9 M0 0 C-16.06 17.48, -80.29 87.41, -96.35 104.9" stroke="#1e1e1e" stroke-width="1" fill="none"/></g><g transform="translate(469.0907517458215 430.98991665778635) rotate(0 -48.17401897125822 52.448012556538245)"><path d="M-96.35 104.9 L-91.82 90.6 L-82.48 99.17 L-96.35 104.9" stroke="none" stroke-width="0" fill="#1e1e1e" fill-rule="evenodd"/><path d="M-96.35 104.9 C-95.06 100.82, -93.76 96.74, -91.82 90.6 M-96.35 104.9 C-95.12 101.02, -93.89 97.15, -91.82 90.6 M-91.82 90.6 C-89.44 92.78, -87.07 94.96, -82.48 99.17 M-91.82 90.6 C-88.72 93.45, -85.61 96.3, -82.48 99.17 M-82.48 99.17 C-85.29 100.33, -88.1 101.49, -96.35 104.9 M-82.48 99.17 C-86.25 100.73, -90.03 102.29, -96.35 104.9 M-96.35 104.9 C-96.35 104.9, -96.35 104.9, -96.35 104.9 M-96.35 104.9 C-96.35 104.9, -96.35 104.9, -96.35 104.9" stroke="#1e1e1e" stroke-width="1" fill="none"/></g></g><mask/><g stroke-linecap="round" transform="translate(310 530) rotate(0 40 40)"><path d="M80 40 C80 41.9, 79.86 43.81, 79.59 45.69 C79.32 47.57, 78.91 49.45, 78.38 51.27 C77.85 53.09, 77.17 54.89, 76.39 56.62 C75.6 58.34, 74.68 60.03, 73.65 61.63 C72.62 63.22, 71.47 64.76, 70.23 66.19 C68.99 67.63, 67.63 68.99, 66.19 70.23 C64.76 71.47, 63.22 72.62, 61.63 73.65 C60.03 74.68, 58.34 75.6, 56.62 76.39 C54.89 77.17, 53.09 77.85, 51.27 78.38 C49.45 78.91, 47.57 79.32, 45.69 79.59 C43.81 79.86, 41.9 80, 40 80 C38.1 80, 36.19 79.86, 34.31 79.59 C32.43 79.32, 30.55 78.91, 28.73 78.38 C26.91 77.85, 25.11 77.17, 23.38 76.39 C21.66 75.6, 19.97 74.68, 18.37 73.65 C16.78 72.62, 15.24 71.47, 13.81 70.23 C12.37 68.99, 11.01 67.63, 9.77 66.19 C8.53 64.76, 7.38 63.22, 6.35 61.63 C5.32 60.03, 4.4 58.34, 3.61 56.62 C2.83 54.89, 2.15 53.09, 1.62 51.27 C1.09 49.45, 0.68 47.57, 0.41 45.69 C0.14 43.81, 0 41.9, 0 40 C0 38.1, 0.14 36.19, 0.41 34.31 C0.68 32.43, 1.09 30.55, 1.62 28.73 C2.15 26.91, 2.83 25.11, 3.61 23.38 C4.4 21.66, 5.32 19.97, 6.35 18.37 C7.38 16.78, 8.53 15.24, 9.77 13.81 C11.01 12.37, 12.37 11.01, 13.81 9.77 C15.24 8.53, 16.78 7.38, 18.37 6.35 C19.97 5.32, 21.66 4.4, 23.38 3.61 C25.11 2.83, 26.91 2.15, 28.73 1.62 C30.55 1.09, 32.43 0.68, 34.31 0.41 C36.19 0.14, 38.1 0, 40 0 C41.9 0, 43.81 0.14, 45.69 0.41 C47.57 0.68, 49.45 1.09, 51.27 1.62 C53.09 2.15, 54.89 2.83, 56.62 3.61 C58.34 4.4, 60.03 5.32, 61.63 6.35 C63.22 7.38, 64.76 8.53, 66.19 9.77 C67.63 11.01, 68.99 12.37, 70.23 13.81 C71.47 15.24, 72.62 16.78, 73.65 18.37 C74.68 19.97, 75.6 21.66, 76.39 23.38 C77.17 25.11, 77.85 26.91, 78.38 28.73 C78.91 30.55, 79.32 32.43, 79.59 34.31 C79.86 36.19, 79.93 39.05, 80 40 C80.07 40.95, 80.07 39.05, 80 40" stroke="none" stroke-width="0" fill="#e9ecef"/><path d="M80 40 C80 41.9, 79.86 43.81, 79.59 45.69 C79.32 47.57, 78.91 49.45, 78.38 51.27 C77.85 53.09, 77.17 54.89, 76.39 56.62 C75.6 58.34, 74.68 60.03, 73.65 61.63 C72.62 63.22, 71.47 64.76, 70.23 66.19 C68.99 67.63, 67.63 68.99, 66.19 70.23 C64.76 71.47, 63.22 72.62, 61.63 73.65 C60.03 74.68, 58.34 75.6, 56.62 76.39 C54.89 77.17, 53.09 77.85, 51.27 78.38 C49.45 78.91, 47.57 79.32, 45.69 79.59 C43.81 79.86, 41.9 80, 40 80 C38.1 80, 36.19 79.86, 34.31 79.59 C32.43 79.32, 30.55 78.91, 28.73 78.38 C26.91 77.85, 25.11 77.17, 23.38 76.39 C21.66 75.6, 19.97 74.68, 18.37 73.65 C16.78 72.62, 15.24 71.47, 13.81 70.23 C12.37 68.99, 11.01 67.63, 9.77 66.19 C8.53 64.76, 7.38 63.22, 6.35 61.63 C5.32 60.03, 4.4 58.34, 3.61 56.62 C2.83 54.89, 2.15 53.09, 1.62 51.27 C1.09 49.45, 0.68 47.57, 0.41 45.69 C0.14 43.81, 0 41.9, 0 40 C0 38.1, 0.14 36.19, 0.41 34.31 C0.68 32.43, 1.09 30.55, 1.62 28.73 C2.15 26.91, 2.83 25.11, 3.61 23.38 C4.4 21.66, 5.32 19.97, 6.35 18.37 C7.38 16.78, 8.53 15.24, 9.77 13.81 C11.01 12.37, 12.37 11.01, 13.81 9.77 C15.24 8.53, 16.78 7.38, 18.37 6.35 C19.97 5.32, 21.66 4.4, 23.38 3.61 C25.11 2.83, 26.91 2.15, 28.73 1.62 C30.55 1.09, 32.43 0.68, 34.31 0.41 C36.19 0.14, 38.1 0, 40 0 C41.9 0, 43.81 0.14, 45.69 0.41 C47.57 0.68, 49.45 1.09, 51.27 1.62 C53.09 2.15, 54.89 2.83, 56.62 3.61 C58.34 4.4, 60.03 5.32, 61.63 6.35 C63.22 7.38, 64.76 8.53, 66.19 9.77 C67.63 11.01, 68.99 12.37, 70.23 13.81 C71.47 15.24, 72.62 16.78, 73.65 18.37 C74.68 19.97, 75.6 21.66, 76.39 23.38 C77.17 25.11, 77.85 26.91, 78.38 28.73 C78.91 30.55, 79.32 32.43, 79.59 34.31 C79.86 36.19, 79.93 39.05, 80 40 C80.07 40.95, 80.07 39.05, 80 40" stroke="#1e1e1e" stroke-width="2" fill="none"/></g><g stroke-linecap="round" transform="translate(550 530) rotate(0 40 40)"><path d="M80 40 C80 41.9, 79.86 43.81, 79.59 45.69 C79.32 47.57, 78.91 49.45, 78.38 51.27 C77.85 53.09, 77.17 54.89, 76.39 56.62 C75.6 58.34, 74.68 60.03, 73.65 61.63 C72.62 63.22, 71.47 64.76, 70.23 66.19 C68.99 67.63, 67.63 68.99, 66.19 70.23 C64.76 71.47, 63.22 72.62, 61.63 73.65 C60.03 74.68, 58.34 75.6, 56.62 76.39 C54.89 77.17, 53.09 77.85, 51.27 78.38 C49.45 78.91, 47.57 79.32, 45.69 79.59 C43.81 79.86, 41.9 80, 40 80 C38.1 80, 36.19 79.86, 34.31 79.59 C32.43 79.32, 30.55 78.91, 28.73 78.38 C26.91 77.85, 25.11 77.17, 23.38 76.39 C21.66 75.6, 19.97 74.68, 18.37 73.65 C16.78 72.62, 15.24 71.47, 13.81 70.23 C12.37 68.99, 11.01 67.63, 9.77 66.19 C8.53 64.76, 7.38 63.22, 6.35 61.63 C5.32 60.03, 4.4 58.34, 3.61 56.62 C2.83 54.89, 2.15 53.09, 1.62 51.27 C1.09 49.45, 0.68 47.57, 0.41 45.69 C0.14 43.81, 0 41.9, 0 40 C0 38.1, 0.14 36.19, 0.41 34.31 C0.68 32.43, 1.09 30.55, 1.62 28.73 C2.15 26.91, 2.83 25.11, 3.61 23.38 C4.4 21.66, 5.32 19.97, 6.35 18.37 C7.38 16.78, 8.53 15.24, 9.77 13.81 C11.01 12.37, 12.37 11.01, 13.81 9.77 C15.24 8.53, 16.78 7.38, 18.37 6.35 C19.97 5.32, 21.66 4.4, 23.38 3.61 C25.11 2.83, 26.91 2.15, 28.73 1.62 C30.55 1.09, 32.43 0.68, 34.31 0.41 C36.19 0.14, 38.1 0, 40 0 C41.9 0, 43.81 0.14, 45.69 0.41 C47.57 0.68, 49.45 1.09, 51.27 1.62 C53.09 2.15, 54.89 2.83, 56.62 3.61 C58.34 4.4, 60.03 5.32, 61.63 6.35 C63.22 7.38, 64.76 8.53, 66.19 9.77 C67.63 11.01, 68.99 12.37, 70.23 13.81 C71.47 15.24, 72.62 16.78, 73.65 18.37 C74.68 19.97, 75.6 21.66, 76.39 23.38 C77.17 25.11, 77.85 26.91, 78.38 28.73 C78.91 30.55, 79.32 32.43, 79.59 34.31 C79.86 36.19, 79.93 39.05, 80 40 C80.07 40.95, 80.07 39.05, 80 40" stroke="none" stroke-width="0" fill="#e9ecef"/><path d="M80 40 C80 41.9, 79.86 43.81, 79.59 45.69 C79.32 47.57, 78.91 49.45, 78.38 51.27 C77.85 53.09, 77.17 54.89, 76.39 56.62 C75.6 58.34, 74.68 60.03, 73.65 61.63 C72.62 63.22, 71.47 64.76, 70.23 66.19 C68.99 67.63, 67.63 68.99, 66.19 70.23 C64.76 71.47, 63.22 72.62, 61.63 73.65 C60.03 74.68, 58.34 75.6, 56.62 76.39 C54.89 77.17, 53.09 77.85, 51.27 78.38 C49.45 78.91, 47.57 79.32, 45.69 79.59 C43.81 79.86, 41.9 80, 40 80 C38.1 80, 36.19 79.86, 34.31 79.59 C32.43 79.32, 30.55 78.91, 28.73 78.38 C26.91 77.85, 25.11 77.17, 23.38 76.39 C21.66 75.6, 19.97 74.68, 18.37 73.65 C16.78 72.62, 15.24 71.47, 13.81 70.23 C12.37 68.99, 11.01 67.63, 9.77 66.19 C8.53 64.76, 7.38 63.22, 6.35 61.63 C5.32 60.03, 4.4 58.34, 3.61 56.62 C2.83 54.89, 2.15 53.09, 1.62 51.27 C1.09 49.45, 0.68 47.57, 0.41 45.69 C0.14 43.81, 0 41.9, 0 40 C0 38.1, 0.14 36.19, 0.41 34.31 C0.68 32.43, 1.09 30.55, 1.62 28.73 C2.15 26.91, 2.83 25.11, 3.61 23.38 C4.4 21.66, 5.32 19.97, 6.35 18.37 C7.38 16.78, 8.53 15.24, 9.77 13.81 C11.01 12.37, 12.37 11.01, 13.81 9.77 C15.24 8.53, 16.78 7.38, 18.37 6.35 C19.97 5.32, 21.66 4.4, 23.38 3.61 C25.11 2.83, 26.91 2.15, 28.73 1.62 C30.55 1.09, 32.43 0.68, 34.31 0.41 C36.19 0.14, 38.1 0, 40 0 C41.9 0, 43.81 0.14, 45.69 0.41 C47.57 0.68, 49.45 1.09, 51.27 1.62 C53.09 2.15, 54.89 2.83, 56.62 3.61 C58.34 4.4, 60.03 5.32, 61.63 6.35 C63.22 7.38, 64.76 8.53, 66.19 9.77 C67.63 11.01, 68.99 12.37, 70.23 13.81 C71.47 15.24, 72.62 16.78, 73.65 18.37 C74.68 19.97, 75.6 21.66, 76.39 23.38 C77.17 25.11, 77.85 26.91, 78.38 28.73 C78.91 30.55, 79.32 32.43, 79.59 34.31 C79.86 36.19, 79.93 39.05, 80 40 C80.07 40.95, 80.07 39.05, 80 40" stroke="#1e1e1e" stroke-width="2" fill="none"/></g><g stroke-linecap="round"><g transform="translate(470.90924833898595 430.9899166559052) rotate(0 48.17402179928135 52.44801064386062)"><path d="M0 0 C16.06 17.48, 80.29 87.41, 96.35 104.9 M0 0 C16.06 17.48, 80.29 87.41, 96.35 104.9" stroke="#1e1e1e" stroke-width="1" fill="none"/></g><g transform="translate(470.90924833898595 430.9899166559052) rotate(0 48.17402179928135 52.44801064386062)"><path d="M96.35 104.9 L82.48 99.17 L91.82 90.6 L96.35 104.9" stroke="none" stroke-width="0" fill="#1e1e1e" fill-rule="evenodd"/><path d="M96.35 104.9 C92.3 103.22, 88.25 101.55, 82.48 99.17 M96.35 104.9 C92.61 103.35, 88.87 101.81, 82.48 99.17 M82.48 99.17 C84.76 97.08, 87.04 94.99, 91.82 90.6 M82.48 99.17 C85.12 96.75, 87.76 94.32, 91.82 90.6 M91.82 90.6 C93.02 94.37, 94.21 98.14, 96.35 104.9 M91.82 90.6 C92.87 93.9, 93.91 97.2, 96.35 104.9 M96.35 104.9 C96.35 104.9, 96.35 104.9, 96.35 104.9 M96.35 104.9 C96.35 104.9, 96.35 104.9, 96.35 104.9" stroke="#1e1e1e" stroke-width="1" fill="none"/></g></g><mask/><g stroke-linecap="round" transform="translate(430 530) rotate(0 40 40)"><path d="M80 40 C80 41.9, 79.86 43.81, 79.59 45.69 C79.32 47.57, 78.91 49.45, 78.38 51.27 C77.85 53.09, 77.17 54.89, 76.39 56.62 C75.6 58.34, 74.68 60.03, 73.65 61.63 C72.62 63.22, 71.47 64.76, 70.23 66.19 C68.99 67.63, 67.63 68.99, 66.19 70.23 C64.76 71.47, 63.22 72.62, 61.63 73.65 C60.03 74.68, 58.34 75.6, 56.62 76.39 C54.89 77.17, 53.09 77.85, 51.27 78.38 C49.45 78.91, 47.57 79.32, 45.69 79.59 C43.81 79.86, 41.9 80, 40 80 C38.1 80, 36.19 79.86, 34.31 79.59 C32.43 79.32, 30.55 78.91, 28.73 78.38 C26.91 77.85, 25.11 77.17, 23.38 76.39 C21.66 75.6, 19.97 74.68, 18.37 73.65 C16.78 72.62, 15.24 71.47, 13.81 70.23 C12.37 68.99, 11.01 67.63, 9.77 66.19 C8.53 64.76, 7.38 63.22, 6.35 61.63 C5.32 60.03, 4.4 58.34, 3.61 56.62 C2.83 54.89, 2.15 53.09, 1.62 51.27 C1.09 49.45, 0.68 47.57, 0.41 45.69 C0.14 43.81, 0 41.9, 0 40 C0 38.1, 0.14 36.19, 0.41 34.31 C0.68 32.43, 1.09 30.55, 1.62 28.73 C2.15 26.91, 2.83 25.11, 3.61 23.38 C4.4 21.66, 5.32 19.97, 6.35 18.37 C7.38 16.78, 8.53 15.24, 9.77 13.81 C11.01 12.37, 12.37 11.01, 13.81 9.77 C15.24 8.53, 16.78 7.38, 18.37 6.35 C19.97 5.32, 21.66 4.4, 23.38 3.61 C25.11 2.83, 26.91 2.15, 28.73 1.62 C30.55 1.09, 32.43 0.68, 34.31 0.41 C36.19 0.14, 38.1 0, 40 0 C41.9 0, 43.81 0.14, 45.69 0.41 C47.57 0.68, 49.45 1.09, 51.27 1.62 C53.09 2.15, 54.89 2.83, 56.62 3.61 C58.34 4.4, 60.03 5.32, 61.63 6.35 C63.22 7.38, 64.76 8.53, 66.19 9.77 C67.63 11.01, 68.99 12.37, 70.23 13.81 C71.47 15.24, 72.62 16.78, 73.65 18.37 C74.68 19.97, 75.6 21.66, 76.39 23.38 C77.17 25.11, 77.85 26.91, 78.38 28.73 C78.91 30.55, 79.32 32.43, 79.59 34.31 C79.86 36.19, 79.93 39.05, 80 40 C80.07 40.95, 80.07 39.05, 80 40" stroke="none" stroke-width="0" fill="#e9ecef"/><path d="M80 40 C80 41.9, 79.86 43.81, 79.59 45.69 C79.32 47.57, 78.91 49.45, 78.38 51.27 C77.85 53.09, 77.17 54.89, 76.39 56.62 C75.6 58.34, 74.68 60.03, 73.65 61.63 C72.62 63.22, 71.47 64.76, 70.23 66.19 C68.99 67.63, 67.63 68.99, 66.19 70.23 C64.76 71.47, 63.22 72.62, 61.63 73.65 C60.03 74.68, 58.34 75.6, 56.62 76.39 C54.89 77.17, 53.09 77.85, 51.27 78.38 C49.45 78.91, 47.57 79.32, 45.69 79.59 C43.81 79.86, 41.9 80, 40 80 C38.1 80, 36.19 79.86, 34.31 79.59 C32.43 79.32, 30.55 78.91, 28.73 78.38 C26.91 77.85, 25.11 77.17, 23.38 76.39 C21.66 75.6, 19.97 74.68, 18.37 73.65 C16.78 72.62, 15.24 71.47, 13.81 70.23 C12.37 68.99, 11.01 67.63, 9.77 66.19 C8.53 64.76, 7.38 63.22, 6.35 61.63 C5.32 60.03, 4.4 58.34, 3.61 56.62 C2.83 54.89, 2.15 53.09, 1.62 51.27 C1.09 49.45, 0.68 47.57, 0.41 45.69 C0.14 43.81, 0 41.9, 0 40 C0 38.1, 0.14 36.19, 0.41 34.31 C0.68 32.43, 1.09 30.55, 1.62 28.73 C2.15 26.91, 2.83 25.11, 3.61 23.38 C4.4 21.66, 5.32 19.97, 6.35 18.37 C7.38 16.78, 8.53 15.24, 9.77 13.81 C11.01 12.37, 12.37 11.01, 13.81 9.77 C15.24 8.53, 16.78 7.38, 18.37 6.35 C19.97 5.32, 21.66 4.4, 23.38 3.61 C25.11 2.83, 26.91 2.15, 28.73 1.62 C30.55 1.09, 32.43 0.68, 34.31 0.41 C36.19 0.14, 38.1 0, 40 0 C41.9 0, 43.81 0.14, 45.69 0.41 C47.57 0.68, 49.45 1.09, 51.27 1.62 C53.09 2.15, 54.89 2.83, 56.62 3.61 C58.34 4.4, 60.03 5.32, 61.63 6.35 C63.22 7.38, 64.76 8.53, 66.19 9.77 C67.63 11.01, 68.99 12.37, 70.23 13.81 C71.47 15.24, 72.62 16.78, 73.65 18.37 C74.68 19.97, 75.6 21.66, 76.39 23.38 C77.17 25.11, 77.85 26.91, 78.38 28.73 C78.91 30.55, 79.32 32.43, 79.59 34.31 C79.86 36.19, 79.93 39.05, 80 40 C80.07 40.95, 80.07 39.05, 80 40" stroke="#1e1e1e" stroke-width="2" fill="none"/></g><g transform="translate(460.8778381275381 554.1157287525381) rotate(0 9.337890625 16.099999999999994)"><text x="9.337890625" y="0" font-family="Helvetica, Segoe UI Emoji" font-size="28px" fill="#1e1e1e" text-anchor="middle" style="white-space: pre;" direction="ltr" dominant-baseline="text-before-edge">B</text></g><g stroke-linecap="round"><g transform="translate(470 431) rotate(0 0 49)"><path d="M0 0 C0 16.33, 0 81.67, 0 98 M0 0 C0 16.33, 0 81.67, 0 98" stroke="#1e1e1e" stroke-width="1" fill="none"/></g><g transform="translate(470 431) rotate(0 0 49)"><path d="M0 98 L-6.34 84.41 L6.34 84.41 L0 98" stroke="none" stroke-width="0" fill="#1e1e1e" fill-rule="evenodd"/><path d="M0 98 C-1.93 93.87, -3.85 89.74, -6.34 84.41 M0 98 C-1.3 95.2, -2.61 92.41, -6.34 84.41 M-6.34 84.41 C-2.71 84.41, 0.92 84.41, 6.34 84.41 M-6.34 84.41 C-3.53 84.41, -0.73 84.41, 6.34 84.41 M6.34 84.41 C4.66 88.01, 2.98 91.61, 0 98 M6.34 84.41 C4.6 88.13, 2.86 91.86, 0 98 M0 98 C0 98, 0 98, 0 98 M0 98 C0 98, 0 98, 0 98" stroke="#1e1e1e" stroke-width="1" fill="none"/></g></g><mask/><g stroke-linecap="round" transform="translate(790 350) rotate(0 40 40)"><path d="M80 40 C80 41.9, 79.86 43.81, 79.59 45.69 C79.32 47.57, 78.91 49.45, 78.38 51.27 C77.85 53.09, 77.17 54.89, 76.39 56.62 C75.6 58.34, 74.68 60.03, 73.65 61.63 C72.62 63.22, 71.47 64.76, 70.23 66.19 C68.99 67.63, 67.63 68.99, 66.19 70.23 C64.76 71.47, 63.22 72.62, 61.63 73.65 C60.03 74.68, 58.34 75.6, 56.62 76.39 C54.89 77.17, 53.09 77.85, 51.27 78.38 C49.45 78.91, 47.57 79.32, 45.69 79.59 C43.81 79.86, 41.9 80, 40 80 C38.1 80, 36.19 79.86, 34.31 79.59 C32.43 79.32, 30.55 78.91, 28.73 78.38 C26.91 77.85, 25.11 77.17, 23.38 76.39 C21.66 75.6, 19.97 74.68, 18.37 73.65 C16.78 72.62, 15.24 71.47, 13.81 70.23 C12.37 68.99, 11.01 67.63, 9.77 66.19 C8.53 64.76, 7.38 63.22, 6.35 61.63 C5.32 60.03, 4.4 58.34, 3.61 56.62 C2.83 54.89, 2.15 53.09, 1.62 51.27 C1.09 49.45, 0.68 47.57, 0.41 45.69 C0.14 43.81, 0 41.9, 0 40 C0 38.1, 0.14 36.19, 0.41 34.31 C0.68 32.43, 1.09 30.55, 1.62 28.73 C2.15 26.91, 2.83 25.11, 3.61 23.38 C4.4 21.66, 5.32 19.97, 6.35 18.37 C7.38 16.78, 8.53 15.24, 9.77 13.81 C11.01 12.37, 12.37 11.01, 13.81 9.77 C15.24 8.53, 16.78 7.38, 18.37 6.35 C19.97 5.32, 21.66 4.4, 23.38 3.61 C25.11 2.83, 26.91 2.15, 28.73 1.62 C30.55 1.09, 32.43 0.68, 34.31 0.41 C36.19 0.14, 38.1 0, 40 0 C41.9 0, 43.81 0.14, 45.69 0.41 C47.57 0.68, 49.45 1.09, 51.27 1.62 C53.09 2.15, 54.89 2.83, 56.62 3.61 C58.34 4.4, 60.03 5.32, 61.63 6.35 C63.22 7.38, 64.76 8.53, 66.19 9.77 C67.63 11.01, 68.99 12.37, 70.23 13.81 C71.47 15.24, 72.62 16.78, 73.65 18.37 C74.68 19.97, 75.6 21.66, 76.39 23.38 C77.17 25.11, 77.85 26.91, 78.38 28.73 C78.91 30.55, 79.32 32.43, 79.59 34.31 C79.86 36.19, 79.93 39.05, 80 40 C80.07 40.95, 80.07 39.05, 80 40" stroke="none" stroke-width="0" fill="#e9ecef"/><path d="M80 40 C80 41.9, 79.86 43.81, 79.59 45.69 C79.32 47.57, 78.91 49.45, 78.38 51.27 C77.85 53.09, 77.17 54.89, 76.39 56.62 C75.6 58.34, 74.68 60.03, 73.65 61.63 C72.62 63.22, 71.47 64.76, 70.23 66.19 C68.99 67.63, 67.63 68.99, 66.19 70.23 C64.76 71.47, 63.22 72.62, 61.63 73.65 C60.03 74.68, 58.34 75.6, 56.62 76.39 C54.89 77.17, 53.09 77.85, 51.27 78.38 C49.45 78.91, 47.57 79.32, 45.69 79.59 C43.81 79.86, 41.9 80, 40 80 C38.1 80, 36.19 79.86, 34.31 79.59 C32.43 79.32, 30.55 78.91, 28.73 78.38 C26.91 77.85, 25.11 77.17, 23.38 76.39 C21.66 75.6, 19.97 74.68, 18.37 73.65 C16.78 72.62, 15.24 71.47, 13.81 70.23 C12.37 68.99, 11.01 67.63, 9.77 66.19 C8.53 64.76, 7.38 63.22, 6.35 61.63 C5.32 60.03, 4.4 58.34, 3.61 56.62 C2.83 54.89, 2.15 53.09, 1.62 51.27 C1.09 49.45, 0.68 47.57, 0.41 45.69 C0.14 43.81, 0 41.9, 0 40 C0 38.1, 0.14 36.19, 0.41 34.31 C0.68 32.43, 1.09 30.55, 1.62 28.73 C2.15 26.91, 2.83 25.11, 3.61 23.38 C4.4 21.66, 5.32 19.97, 6.35 18.37 C7.38 16.78, 8.53 15.24, 9.77 13.81 C11.01 12.37, 12.37 11.01, 13.81 9.77 C15.24 8.53, 16.78 7.38, 18.37 6.35 C19.97 5.32, 21.66 4.4, 23.38 3.61 C25.11 2.83, 26.91 2.15, 28.73 1.62 C30.55 1.09, 32.43 0.68, 34.31 0.41 C36.19 0.14, 38.1 0, 40 0 C41.9 0, 43.81 0.14, 45.69 0.41 C47.57 0.68, 49.45 1.09, 51.27 1.62 C53.09 2.15, 54.89 2.83, 56.62 3.61 C58.34 4.4, 60.03 5.32, 61.63 6.35 C63.22 7.38, 64.76 8.53, 66.19 9.77 C67.63 11.01, 68.99 12.37, 70.23 13.81 C71.47 15.24, 72.62 16.78, 73.65 18.37 C74.68 19.97, 75.6 21.66, 76.39 23.38 C77.17 25.11, 77.85 26.91, 78.38 28.73 C78.91 30.55, 79.32 32.43, 79.59 34.31 C79.86 36.19, 79.93 39.05, 80 40 C80.07 40.95, 80.07 39.05, 80 40" stroke="#1e1e1e" stroke-width="2" fill="none"/></g><g transform="translate(820.8778381275381 374.1157287525381) rotate(0 9.337890625 16.099999999999998)"><text x="9.337890625" y="0" font-family="Helvetica, Segoe UI Emoji" font-size="28px" fill="#1e1e1e" text-anchor="middle" style="white-space: pre;" direction="ltr" dominant-baseline="text-before-edge">B</text></g><g stroke-linecap="round"><g transform="translate(829.0907517458214 430.9899166577864) rotate(0 -48.174018971258135 52.44801255653824)"><path d="M0 0 C-16.06 17.48, -80.29 87.41, -96.35 104.9 M0 0 C-16.06 17.48, -80.29 87.41, -96.35 104.9" stroke="#1e1e1e" stroke-width="1" fill="none"/></g><g transform="translate(829.0907517458214 430.9899166577864) rotate(0 -48.174018971258135 52.44801255653824)"><path d="M-96.35 104.9 L-91.82 90.6 L-82.48 99.17 L-96.35 104.9" stroke="none" stroke-width="0" fill="#1e1e1e" fill-rule="evenodd"/><path d="M-96.35 104.9 C-94.66 99.58, -92.98 94.26, -91.82 90.6 M-96.35 104.9 C-95.32 101.63, -94.28 98.37, -91.82 90.6 M-91.82 90.6 C-89.9 92.36, -87.98 94.12, -82.48 99.17 M-91.82 90.6 C-89.1 93.09, -86.38 95.59, -82.48 99.17 M-82.48 99.17 C-85.72 100.51, -88.96 101.85, -96.35 104.9 M-82.48 99.17 C-87.14 101.1, -91.8 103.02, -96.35 104.9 M-96.35 104.9 C-96.35 104.9, -96.35 104.9, -96.35 104.9 M-96.35 104.9 C-96.35 104.9, -96.35 104.9, -96.35 104.9" stroke="#1e1e1e" stroke-width="1" fill="none"/></g></g><mask/><g stroke-linecap="round" transform="translate(670 530) rotate(0 40 40)"><path d="M80 40 C80 41.9, 79.86 43.81, 79.59 45.69 C79.32 47.57, 78.91 49.45, 78.38 51.27 C77.85 53.09, 77.17 54.89, 76.39 56.62 C75.6 58.34, 74.68 60.03, 73.65 61.63 C72.62 63.22, 71.47 64.76, 70.23 66.19 C68.99 67.63, 67.63 68.99, 66.19 70.23 C64.76 71.47, 63.22 72.62, 61.63 73.65 C60.03 74.68, 58.34 75.6, 56.62 76.39 C54.89 77.17, 53.09 77.85, 51.27 78.38 C49.45 78.91, 47.57 79.32, 45.69 79.59 C43.81 79.86, 41.9 80, 40 80 C38.1 80, 36.19 79.86, 34.31 79.59 C32.43 79.32, 30.55 78.91, 28.73 78.38 C26.91 77.85, 25.11 77.17, 23.38 76.39 C21.66 75.6, 19.97 74.68, 18.37 73.65 C16.78 72.62, 15.24 71.47, 13.81 70.23 C12.37 68.99, 11.01 67.63, 9.77 66.19 C8.53 64.76, 7.38 63.22, 6.35 61.63 C5.32 60.03, 4.4 58.34, 3.61 56.62 C2.83 54.89, 2.15 53.09, 1.62 51.27 C1.09 49.45, 0.68 47.57, 0.41 45.69 C0.14 43.81, 0 41.9, 0 40 C0 38.1, 0.14 36.19, 0.41 34.31 C0.68 32.43, 1.09 30.55, 1.62 28.73 C2.15 26.91, 2.83 25.11, 3.61 23.38 C4.4 21.66, 5.32 19.97, 6.35 18.37 C7.38 16.78, 8.53 15.24, 9.77 13.81 C11.01 12.37, 12.37 11.01, 13.81 9.77 C15.24 8.53, 16.78 7.38, 18.37 6.35 C19.97 5.32, 21.66 4.4, 23.38 3.61 C25.11 2.83, 26.91 2.15, 28.73 1.62 C30.55 1.09, 32.43 0.68, 34.31 0.41 C36.19 0.14, 38.1 0, 40 0 C41.9 0, 43.81 0.14, 45.69 0.41 C47.57 0.68, 49.45 1.09, 51.27 1.62 C53.09 2.15, 54.89 2.83, 56.62 3.61 C58.34 4.4, 60.03 5.32, 61.63 6.35 C63.22 7.38, 64.76 8.53, 66.19 9.77 C67.63 11.01, 68.99 12.37, 70.23 13.81 C71.47 15.24, 72.62 16.78, 73.65 18.37 C74.68 19.97, 75.6 21.66, 76.39 23.38 C77.17 25.11, 77.85 26.91, 78.38 28.73 C78.91 30.55, 79.32 32.43, 79.59 34.31 C79.86 36.19, 79.93 39.05, 80 40 C80.07 40.95, 80.07 39.05, 80 40" stroke="none" stroke-width="0" fill="#e9ecef"/><path d="M80 40 C80 41.9, 79.86 43.81, 79.59 45.69 C79.32 47.57, 78.91 49.45, 78.38 51.27 C77.85 53.09, 77.17 54.89, 76.39 56.62 C75.6 58.34, 74.68 60.03, 73.65 61.63 C72.62 63.22, 71.47 64.76, 70.23 66.19 C68.99 67.63, 67.63 68.99, 66.19 70.23 C64.76 71.47, 63.22 72.62, 61.63 73.65 C60.03 74.68, 58.34 75.6, 56.62 76.39 C54.89 77.17, 53.09 77.85, 51.27 78.38 C49.45 78.91, 47.57 79.32, 45.69 79.59 C43.81 79.86, 41.9 80, 40 80 C38.1 80, 36.19 79.86, 34.31 79.59 C32.43 79.32, 30.55 78.91, 28.73 78.38 C26.91 77.85, 25.11 77.17, 23.38 76.39 C21.66 75.6, 19.97 74.68, 18.37 73.65 C16.78 72.62, 15.24 71.47, 13.81 70.23 C12.37 68.99, 11.01 67.63, 9.77 66.19 C8.53 64.76, 7.38 63.22, 6.35 61.63 C5.32 60.03, 4.4 58.34, 3.61 56.62 C2.83 54.89, 2.15 53.09, 1.62 51.27 C1.09 49.45, 0.68 47.57, 0.41 45.69 C0.14 43.81, 0 41.9, 0 40 C0 38.1, 0.14 36.19, 0.41 34.31 C0.68 32.43, 1.09 30.55, 1.62 28.73 C2.15 26.91, 2.83 25.11, 3.61 23.38 C4.4 21.66, 5.32 19.97, 6.35 18.37 C7.38 16.78, 8.53 15.24, 9.77 13.81 C11.01 12.37, 12.37 11.01, 13.81 9.77 C15.24 8.53, 16.78 7.38, 18.37 6.35 C19.97 5.32, 21.66 4.4, 23.38 3.61 C25.11 2.83, 26.91 2.15, 28.73 1.62 C30.55 1.09, 32.43 0.68, 34.31 0.41 C36.19 0.14, 38.1 0, 40 0 C41.9 0, 43.81 0.14, 45.69 0.41 C47.57 0.68, 49.45 1.09, 51.27 1.62 C53.09 2.15, 54.89 2.83, 56.62 3.61 C58.34 4.4, 60.03 5.32, 61.63 6.35 C63.22 7.38, 64.76 8.53, 66.19 9.77 C67.63 11.01, 68.99 12.37, 70.23 13.81 C71.47 15.24, 72.62 16.78, 73.65 18.37 C74.68 19.97, 75.6 21.66, 76.39 23.38 C77.17 25.11, 77.85 26.91, 78.38 28.73 C78.91 30.55, 79.32 32.43, 79.59 34.31 C79.86 36.19, 79.93 39.05, 80 40 C80.07 40.95, 80.07 39.05, 80 40" stroke="#1e1e1e" stroke-width="2" fill="none"/></g><g stroke-linecap="round" transform="translate(910 530) rotate(0 40 40)"><path d="M80 40 C80 41.9, 79.86 43.81, 79.59 45.69 C79.32 47.57, 78.91 49.45, 78.38 51.27 C77.85 53.09, 77.17 54.89, 76.39 56.62 C75.6 58.34, 74.68 60.03, 73.65 61.63 C72.62 63.22, 71.47 64.76, 70.23 66.19 C68.99 67.63, 67.63 68.99, 66.19 70.23 C64.76 71.47, 63.22 72.62, 61.63 73.65 C60.03 74.68, 58.34 75.6, 56.62 76.39 C54.89 77.17, 53.09 77.85, 51.27 78.38 C49.45 78.91, 47.57 79.32, 45.69 79.59 C43.81 79.86, 41.9 80, 40 80 C38.1 80, 36.19 79.86, 34.31 79.59 C32.43 79.32, 30.55 78.91, 28.73 78.38 C26.91 77.85, 25.11 77.17, 23.38 76.39 C21.66 75.6, 19.97 74.68, 18.37 73.65 C16.78 72.62, 15.24 71.47, 13.81 70.23 C12.37 68.99, 11.01 67.63, 9.77 66.19 C8.53 64.76, 7.38 63.22, 6.35 61.63 C5.32 60.03, 4.4 58.34, 3.61 56.62 C2.83 54.89, 2.15 53.09, 1.62 51.27 C1.09 49.45, 0.68 47.57, 0.41 45.69 C0.14 43.81, 0 41.9, 0 40 C0 38.1, 0.14 36.19, 0.41 34.31 C0.68 32.43, 1.09 30.55, 1.62 28.73 C2.15 26.91, 2.83 25.11, 3.61 23.38 C4.4 21.66, 5.32 19.97, 6.35 18.37 C7.38 16.78, 8.53 15.24, 9.77 13.81 C11.01 12.37, 12.37 11.01, 13.81 9.77 C15.24 8.53, 16.78 7.38, 18.37 6.35 C19.97 5.32, 21.66 4.4, 23.38 3.61 C25.11 2.83, 26.91 2.15, 28.73 1.62 C30.55 1.09, 32.43 0.68, 34.31 0.41 C36.19 0.14, 38.1 0, 40 0 C41.9 0, 43.81 0.14, 45.69 0.41 C47.57 0.68, 49.45 1.09, 51.27 1.62 C53.09 2.15, 54.89 2.83, 56.62 3.61 C58.34 4.4, 60.03 5.32, 61.63 6.35 C63.22 7.38, 64.76 8.53, 66.19 9.77 C67.63 11.01, 68.99 12.37, 70.23 13.81 C71.47 15.24, 72.62 16.78, 73.65 18.37 C74.68 19.97, 75.6 21.66, 76.39 23.38 C77.17 25.11, 77.85 26.91, 78.38 28.73 C78.91 30.55, 79.32 32.43, 79.59 34.31 C79.86 36.19, 79.93 39.05, 80 40 C80.07 40.95, 80.07 39.05, 80 40" stroke="none" stroke-width="0" fill="#e9ecef"/><path d="M80 40 C80 41.9, 79.86 43.81, 79.59 45.69 C79.32 47.57, 78.91 49.45, 78.38 51.27 C77.85 53.09, 77.17 54.89, 76.39 56.62 C75.6 58.34, 74.68 60.03, 73.65 61.63 C72.62 63.22, 71.47 64.76, 70.23 66.19 C68.99 67.63, 67.63 68.99, 66.19 70.23 C64.76 71.47, 63.22 72.62, 61.63 73.65 C60.03 74.68, 58.34 75.6, 56.62 76.39 C54.89 77.17, 53.09 77.85, 51.27 78.38 C49.45 78.91, 47.57 79.32, 45.69 79.59 C43.81 79.86, 41.9 80, 40 80 C38.1 80, 36.19 79.86, 34.31 79.59 C32.43 79.32, 30.55 78.91, 28.73 78.38 C26.91 77.85, 25.11 77.17, 23.38 76.39 C21.66 75.6, 19.97 74.68, 18.37 73.65 C16.78 72.62, 15.24 71.47, 13.81 70.23 C12.37 68.99, 11.01 67.63, 9.77 66.19 C8.53 64.76, 7.38 63.22, 6.35 61.63 C5.32 60.03, 4.4 58.34, 3.61 56.62 C2.83 54.89, 2.15 53.09, 1.62 51.27 C1.09 49.45, 0.68 47.57, 0.41 45.69 C0.14 43.81, 0 41.9, 0 40 C0 38.1, 0.14 36.19, 0.41 34.31 C0.68 32.43, 1.09 30.55, 1.62 28.73 C2.15 26.91, 2.83 25.11, 3.61 23.38 C4.4 21.66, 5.32 19.97, 6.35 18.37 C7.38 16.78, 8.53 15.24, 9.77 13.81 C11.01 12.37, 12.37 11.01, 13.81 9.77 C15.24 8.53, 16.78 7.38, 18.37 6.35 C19.97 5.32, 21.66 4.4, 23.38 3.61 C25.11 2.83, 26.91 2.15, 28.73 1.62 C30.55 1.09, 32.43 0.68, 34.31 0.41 C36.19 0.14, 38.1 0, 40 0 C41.9 0, 43.81 0.14, 45.69 0.41 C47.57 0.68, 49.45 1.09, 51.27 1.62 C53.09 2.15, 54.89 2.83, 56.62 3.61 C58.34 4.4, 60.03 5.32, 61.63 6.35 C63.22 7.38, 64.76 8.53, 66.19 9.77 C67.63 11.01, 68.99 12.37, 70.23 13.81 C71.47 15.24, 72.62 16.78, 73.65 18.37 C74.68 19.97, 75.6 21.66, 76.39 23.38 C77.17 25.11, 77.85 26.91, 78.38 28.73 C78.91 30.55, 79.32 32.43, 79.59 34.31 C79.86 36.19, 79.93 39.05, 80 40 C80.07 40.95, 80.07 39.05, 80 40" stroke="#1e1e1e" stroke-width="2" fill="none"/></g><g stroke-linecap="round"><g transform="translate(830.9092483389859 430.9899166559052) rotate(0 48.17402179928138 52.44801064386062)"><path d="M0 0 C16.06 17.48, 80.29 87.41, 96.35 104.9 M0 0 C16.06 17.48, 80.29 87.41, 96.35 104.9" stroke="#1e1e1e" stroke-width="1" fill="none"/></g><g transform="translate(830.9092483389859 430.9899166559052) rotate(0 48.17402179928138 52.44801064386062)"><path d="M96.35 104.9 L82.48 99.17 L91.82 90.6 L96.35 104.9" stroke="none" stroke-width="0" fill="#1e1e1e" fill-rule="evenodd"/><path d="M96.35 104.9 C92.06 103.13, 87.78 101.36, 82.48 99.17 M96.35 104.9 C92.17 103.17, 88 101.45, 82.48 99.17 M82.48 99.17 C84.45 97.37, 86.41 95.56, 91.82 90.6 M82.48 99.17 C84.94 96.92, 87.39 94.66, 91.82 90.6 M91.82 90.6 C93.15 94.78, 94.47 98.97, 96.35 104.9 M91.82 90.6 C93.08 94.58, 94.35 98.57, 96.35 104.9 M96.35 104.9 C96.35 104.9, 96.35 104.9, 96.35 104.9 M96.35 104.9 C96.35 104.9, 96.35 104.9, 96.35 104.9" stroke="#1e1e1e" stroke-width="1" fill="none"/></g></g><mask/><g stroke-linecap="round"><g transform="translate(651.1586500084546 230.9836251466108) rotate(0 75.70689263374817 64.27066225601726)"><path d="M0 0 C25.24 21.42, 126.18 107.12, 151.41 128.54 M0 0 C25.24 21.42, 126.18 107.12, 151.41 128.54" stroke="#1e1e1e" stroke-width="1" fill="none"/></g><g transform="translate(651.1586500084546 230.9836251466108) rotate(0 75.70689263374817 64.27066225601726)"><path d="M151.41 128.54 L136.95 124.58 L145.15 114.91 L151.41 128.54" stroke="none" stroke-width="0" fill="#1e1e1e" fill-rule="evenodd"/><path d="M151.41 128.54 C147.05 127.34, 142.68 126.15, 136.95 124.58 M151.41 128.54 C148.04 127.62, 144.67 126.69, 136.95 124.58 M136.95 124.58 C140.23 120.71, 143.5 116.85, 145.15 114.91 M136.95 124.58 C139.35 121.74, 141.76 118.91, 145.15 114.91 M145.15 114.91 C147.23 119.44, 149.32 123.97, 151.41 128.54 M145.15 114.91 C147.4 119.8, 149.64 124.68, 151.41 128.54 M151.41 128.54 C151.41 128.54, 151.41 128.54, 151.41 128.54 M151.41 128.54 C151.41 128.54, 151.41 128.54, 151.41 128.54" stroke="#1e1e1e" stroke-width="1" fill="none"/></g></g><mask/><g transform="translate(90 10) rotate(0 58.0341796875 20.69999999999999)"><text x="0" y="0" font-family="Helvetica, Segoe UI Emoji" font-size="36px" fill="#1e1e1e" text-anchor="start" style="white-space: pre;" direction="ltr" dominant-baseline="text-before-edge">Pattern</text></g><g transform="translate(610 10) rotate(0 36.3427734375 20.69999999999999)"><text x="0" y="0" font-family="Helvetica, Segoe UI Emoji" font-size="36px" fill="#1e1e1e" text-anchor="start" style="white-space: pre;" direction="ltr" dominant-baseline="text-before-edge">Tree</text></g><g stroke-linecap="round"><g transform="translate(190.99923803141718 190.24996168345365) rotate(0 129.5003809842914 79.87501915827318)"><path d="M0 0 C26.5 6.63, 115.83 13.13, 159 39.75 C202.17 66.38, 242.33 139.75, 259 159.75" stroke="#2f9e44" stroke-width="4.5" fill="none" stroke-dasharray="1.5 10"/></g><g transform="translate(190.99923803141718 190.24996168345365) rotate(0 129.5003809842914 79.87501915827318)"><path d="M268.5 159.75 C268.5 160.3, 268.45 160.86, 268.36 161.4 C268.26 161.94, 268.12 162.48, 267.93 163 C267.74 163.52, 267.5 164.02, 267.23 164.5 C266.95 164.98, 266.63 165.44, 266.28 165.86 C265.92 166.28, 265.53 166.67, 265.11 167.03 C264.69 167.38, 264.23 167.7, 263.75 167.98 C263.27 168.25, 262.77 168.49, 262.25 168.68 C261.73 168.87, 261.19 169.01, 260.65 169.11 C260.11 169.2, 259.55 169.25, 259 169.25 C258.45 169.25, 257.89 169.2, 257.35 169.11 C256.81 169.01, 256.27 168.87, 255.75 168.68 C255.23 168.49, 254.73 168.25, 254.25 167.98 C253.77 167.7, 253.32 167.38, 252.89 167.03 C252.47 166.67, 252.08 166.28, 251.72 165.86 C251.37 165.44, 251.05 164.98, 250.77 164.5 C250.5 164.02, 250.26 163.52, 250.07 163 C249.89 162.48, 249.74 161.94, 249.65 161.4 C249.55 160.86, 249.5 160.3, 249.5 159.75 C249.5 159.2, 249.55 158.64, 249.65 158.1 C249.74 157.56, 249.89 157.02, 250.07 156.5 C250.26 155.98, 250.5 155.48, 250.77 155 C251.05 154.52, 251.37 154.06, 251.72 153.64 C252.08 153.22, 252.47 152.83, 252.89 152.47 C253.32 152.12, 253.77 151.8, 254.25 151.52 C254.73 151.25, 255.23 151.01, 255.75 150.82 C256.27 150.63, 256.81 150.49, 257.35 150.39 C257.89 150.3, 258.45 150.25, 259 150.25 C259.55 150.25, 260.11 150.3, 260.65 150.39 C261.19 150.49, 261.73 150.63, 262.25 150.82 C262.77 151.01, 263.27 151.25, 263.75 151.52 C264.23 151.8, 264.69 152.12, 265.11 152.47 C265.53 152.83, 265.92 153.22, 266.28 153.64 C266.63 154.06, 266.95 154.52, 267.23 155 C267.5 155.48, 267.74 155.98, 267.93 156.5 C268.12 157.02, 268.26 157.56, 268.36 158.1 C268.45 158.64, 268.48 159.48, 268.5 159.75 C268.52 160.02, 268.52 159.48, 268.5 159.75" stroke="none" stroke-width="0" fill="#2f9e44"/></g></g><mask/><g stroke-linecap="round"><g transform="translate(190.99776999791163 390.4276157133907) rotate(0 119.50111500104418 79.78619214330465)"><path d="M0 0 C23.17 6.6, 99.17 12.98, 139 39.57 C178.84 66.17, 222.34 139.57, 239 159.57" stroke="#2f9e44" stroke-width="4.5" fill="none" stroke-dasharray="1.5 10"/></g><g transform="translate(190.99776999791163 390.4276157133907) rotate(0 119.50111500104418 79.78619214330465)"><path d="M248.5 159.57 C248.5 160.12, 248.45 160.68, 248.36 161.22 C248.26 161.76, 248.12 162.3, 247.93 162.82 C247.74 163.34, 247.5 163.85, 247.23 164.32 C246.95 164.8, 246.63 165.26, 246.28 165.68 C245.93 166.1, 245.53 166.5, 245.11 166.85 C244.69 167.2, 244.23 167.52, 243.75 167.8 C243.28 168.07, 242.77 168.31, 242.25 168.5 C241.73 168.69, 241.19 168.83, 240.65 168.93 C240.11 169.02, 239.55 169.07, 239 169.07 C238.45 169.07, 237.89 169.02, 237.35 168.93 C236.81 168.83, 236.27 168.69, 235.75 168.5 C235.24 168.31, 234.73 168.07, 234.25 167.8 C233.78 167.52, 233.32 167.2, 232.9 166.85 C232.47 166.5, 232.08 166.1, 231.72 165.68 C231.37 165.26, 231.05 164.8, 230.77 164.32 C230.5 163.85, 230.26 163.34, 230.08 162.82 C229.89 162.3, 229.74 161.76, 229.65 161.22 C229.55 160.68, 229.5 160.12, 229.5 159.57 C229.5 159.02, 229.55 158.46, 229.65 157.92 C229.74 157.38, 229.89 156.84, 230.08 156.32 C230.26 155.81, 230.5 155.3, 230.77 154.82 C231.05 154.35, 231.37 153.89, 231.72 153.47 C232.08 153.04, 232.47 152.65, 232.9 152.29 C233.32 151.94, 233.78 151.62, 234.25 151.35 C234.73 151.07, 235.24 150.83, 235.75 150.65 C236.27 150.46, 236.81 150.31, 237.35 150.22 C237.89 150.12, 238.45 150.07, 239 150.07 C239.55 150.07, 240.11 150.12, 240.65 150.22 C241.19 150.31, 241.73 150.46, 242.25 150.65 C242.77 150.83, 243.28 151.07, 243.75 151.35 C244.23 151.62, 244.69 151.94, 245.11 152.29 C245.53 152.65, 245.93 153.04, 246.28 153.47 C246.63 153.89, 246.95 154.35, 247.23 154.82 C247.5 155.3, 247.74 155.81, 247.93 156.32 C248.12 156.84, 248.26 157.38, 248.36 157.92 C248.45 158.46, 248.48 159.3, 248.5 159.57 C248.53 159.85, 248.53 159.3, 248.5 159.57" stroke="none" stroke-width="0" fill="#2f9e44"/></g></g><mask/><g stroke-linecap="round"><g transform="translate(190.99865288878908 189.66764280572335) rotate(0 208.5011435725328 -19.778686115832073)"><path d="M0 0 C39.83 -6.61, 169.5 -39.69, 239 -39.67 C308.5 -39.65, 387.34 -6.52, 417 0.11" stroke="#1971c2" stroke-width="4.5" fill="none" stroke-dasharray="1.5 10"/></g><g transform="translate(190.99865288878908 189.66764280572335) rotate(0 208.5011435725328 -19.778686115832073)"><path d="M426.5 0.11 C426.5 0.66, 426.45 1.22, 426.36 1.76 C426.26 2.3, 426.12 2.84, 425.93 3.36 C425.74 3.88, 425.5 4.38, 425.23 4.86 C424.95 5.34, 424.63 5.8, 424.28 6.22 C423.93 6.64, 423.53 7.03, 423.11 7.39 C422.69 7.74, 422.23 8.06, 421.75 8.34 C421.28 8.61, 420.77 8.85, 420.25 9.04 C419.73 9.23, 419.19 9.37, 418.65 9.47 C418.11 9.56, 417.55 9.61, 417 9.61 C416.45 9.61, 415.89 9.56, 415.35 9.47 C414.81 9.37, 414.27 9.23, 413.75 9.04 C413.24 8.85, 412.73 8.61, 412.25 8.34 C411.78 8.06, 411.32 7.74, 410.9 7.39 C410.47 7.03, 410.08 6.64, 409.72 6.22 C409.37 5.8, 409.05 5.34, 408.78 4.86 C408.5 4.38, 408.26 3.88, 408.08 3.36 C407.89 2.84, 407.74 2.3, 407.65 1.76 C407.55 1.22, 407.5 0.66, 407.5 0.11 C407.5 -0.44, 407.55 -1, 407.65 -1.54 C407.74 -2.08, 407.89 -2.62, 408.08 -3.14 C408.26 -3.66, 408.5 -4.16, 408.78 -4.64 C409.05 -5.12, 409.37 -5.57, 409.72 -6 C410.08 -6.42, 410.47 -6.81, 410.9 -7.17 C411.32 -7.52, 411.78 -7.84, 412.25 -8.12 C412.73 -8.39, 413.24 -8.63, 413.75 -8.82 C414.27 -9, 414.81 -9.15, 415.35 -9.25 C415.89 -9.34, 416.45 -9.39, 417 -9.39 C417.55 -9.39, 418.11 -9.34, 418.65 -9.25 C419.19 -9.15, 419.73 -9, 420.25 -8.82 C420.77 -8.63, 421.28 -8.39, 421.75 -8.12 C422.23 -7.84, 422.69 -7.52, 423.11 -7.17 C423.53 -6.81, 423.93 -6.42, 424.28 -6 C424.63 -5.57, 424.95 -5.12, 425.23 -4.64 C425.5 -4.16, 425.74 -3.66, 425.93 -3.14 C426.12 -2.62, 426.26 -2.08, 426.36 -1.54 C426.45 -1, 426.48 -0.16, 426.5 0.11 C426.53 0.39, 426.53 -0.16, 426.5 0.11" stroke="none" stroke-width="0" fill="#1971c2"/></g></g><mask/><g stroke-linecap="round"><g transform="translate(190.99980952336034 390.12497619042006) rotate(0 129.50009523831983 69.87502380957996)"><path d="M0 0 C26.5 -0.02, 115.83 -23.44, 159 -0.12 C202.17 23.19, 242.33 116.54, 259 139.88" stroke="#1971c2" stroke-width="4.5" fill="none" stroke-dasharray="1.5 10"/></g><g transform="translate(190.99980952336034 390.12497619042006) rotate(0 129.50009523831983 69.87502380957996)"><path d="M268.5 139.88 C268.5 140.42, 268.45 140.98, 268.36 141.52 C268.26 142.07, 268.12 142.61, 267.93 143.12 C267.74 143.64, 267.5 144.15, 267.23 144.63 C266.95 145.1, 266.63 145.56, 266.28 145.98 C265.92 146.4, 265.53 146.8, 265.11 147.15 C264.69 147.51, 264.23 147.83, 263.75 148.1 C263.27 148.38, 262.77 148.61, 262.25 148.8 C261.73 148.99, 261.19 149.14, 260.65 149.23 C260.11 149.33, 259.55 149.38, 259 149.38 C258.45 149.38, 257.89 149.33, 257.35 149.23 C256.81 149.14, 256.27 148.99, 255.75 148.8 C255.23 148.61, 254.73 148.38, 254.25 148.1 C253.77 147.83, 253.31 147.51, 252.89 147.15 C252.47 146.8, 252.08 146.4, 251.72 145.98 C251.37 145.56, 251.05 145.1, 250.77 144.63 C250.5 144.15, 250.26 143.64, 250.07 143.12 C249.89 142.61, 249.74 142.07, 249.64 141.52 C249.55 140.98, 249.5 140.42, 249.5 139.88 C249.5 139.33, 249.55 138.77, 249.64 138.23 C249.74 137.68, 249.89 137.14, 250.07 136.63 C250.26 136.11, 250.5 135.6, 250.77 135.13 C251.05 134.65, 251.37 134.19, 251.72 133.77 C252.08 133.35, 252.47 132.95, 252.89 132.6 C253.31 132.24, 253.77 131.92, 254.25 131.65 C254.73 131.37, 255.23 131.14, 255.75 130.95 C256.27 130.76, 256.81 130.61, 257.35 130.52 C257.89 130.42, 258.45 130.38, 259 130.38 C259.55 130.38, 260.11 130.42, 260.65 130.52 C261.19 130.61, 261.73 130.76, 262.25 130.95 C262.77 131.14, 263.27 131.37, 263.75 131.65 C264.23 131.92, 264.69 132.24, 265.11 132.6 C265.53 132.95, 265.92 133.35, 266.28 133.77 C266.63 134.19, 266.95 134.65, 267.23 135.13 C267.5 135.6, 267.74 136.11, 267.93 136.63 C268.12 137.14, 268.26 137.68, 268.36 138.23 C268.45 138.77, 268.48 139.6, 268.5 139.88 C268.52 140.15, 268.52 139.6, 268.5 139.88" stroke="none" stroke-width="0" fill="#1971c2"/></g></g><mask/><g stroke-linecap="round"><g transform="translate(190.99949422525813 189.79635012147014) rotate(0 209.50025288737095 -39.89817506073507)"><path d="M0 0 C39.83 -13.3, 169.17 -76.5, 239 -79.8 C308.83 -83.1, 389 -29.8, 419 -19.8" stroke="#f08c00" stroke-width="4.5" fill="none" stroke-dasharray="1.5 10"/></g><g transform="translate(190.99949422525813 189.79635012147014) rotate(0 209.50025288737095 -39.89817506073507)"><path d="M428.5 -19.8 C428.5 -19.25, 428.45 -18.69, 428.36 -18.15 C428.26 -17.61, 428.12 -17.06, 427.93 -16.55 C427.74 -16.03, 427.5 -15.52, 427.23 -15.05 C426.95 -14.57, 426.63 -14.11, 426.28 -13.69 C425.92 -13.27, 425.53 -12.87, 425.11 -12.52 C424.69 -12.17, 424.23 -11.84, 423.75 -11.57 C423.27 -11.29, 422.77 -11.06, 422.25 -10.87 C421.73 -10.68, 421.19 -10.54, 420.65 -10.44 C420.11 -10.35, 419.55 -10.3, 419 -10.3 C418.45 -10.3, 417.89 -10.35, 417.35 -10.44 C416.81 -10.54, 416.27 -10.68, 415.75 -10.87 C415.23 -11.06, 414.73 -11.29, 414.25 -11.57 C413.77 -11.84, 413.32 -12.17, 412.89 -12.52 C412.47 -12.87, 412.08 -13.27, 411.72 -13.69 C411.37 -14.11, 411.05 -14.57, 410.77 -15.05 C410.5 -15.52, 410.26 -16.03, 410.07 -16.55 C409.89 -17.06, 409.74 -17.61, 409.64 -18.15 C409.55 -18.69, 409.5 -19.25, 409.5 -19.8 C409.5 -20.35, 409.55 -20.9, 409.64 -21.45 C409.74 -21.99, 409.89 -22.53, 410.07 -23.05 C410.26 -23.56, 410.5 -24.07, 410.77 -24.55 C411.05 -25.02, 411.37 -25.48, 411.72 -25.9 C412.08 -26.32, 412.47 -26.72, 412.89 -27.07 C413.32 -27.43, 413.77 -27.75, 414.25 -28.02 C414.73 -28.3, 415.23 -28.54, 415.75 -28.72 C416.27 -28.91, 416.81 -29.06, 417.35 -29.15 C417.89 -29.25, 418.45 -29.3, 419 -29.3 C419.55 -29.3, 420.11 -29.25, 420.65 -29.15 C421.19 -29.06, 421.73 -28.91, 422.25 -28.72 C422.77 -28.54, 423.27 -28.3, 423.75 -28.02 C424.23 -27.75, 424.69 -27.43, 425.11 -27.07 C425.53 -26.72, 425.92 -26.32, 426.28 -25.9 C426.63 -25.48, 426.95 -25.02, 427.23 -24.55 C427.5 -24.07, 427.74 -23.56, 427.93 -23.05 C428.12 -22.53, 428.26 -21.99, 428.36 -21.45 C428.45 -20.9, 428.48 -20.07, 428.5 -19.8 C428.52 -19.52, 428.52 -20.07, 428.5 -19.8" stroke="none" stroke-width="0" fill="#f08c00"/></g></g><mask/><g stroke-linecap="round"><g transform="translate(190.99999615808923 390.01774927230366) rotate(0 299.00059598037626 -50.008874636151816)"><path d="M0 0 C46.5 -16.67, 179.33 -99.96, 279 -100.02 C378.67 -100.07, 544.83 -16.94, 598 -0.33" stroke="#f08c00" stroke-width="4.5" fill="none" stroke-dasharray="1.5 10"/></g><g transform="translate(190.99999615808923 390.01774927230366) rotate(0 299.00059598037626 -50.008874636151816)"><path d="M607.5 -0.33 C607.5 0.22, 607.45 0.78, 607.36 1.32 C607.26 1.86, 607.12 2.4, 606.93 2.92 C606.74 3.44, 606.5 3.94, 606.23 4.42 C605.95 4.9, 605.63 5.36, 605.28 5.78 C604.93 6.2, 604.53 6.59, 604.11 6.95 C603.69 7.3, 603.23 7.62, 602.75 7.9 C602.27 8.17, 601.77 8.41, 601.25 8.6 C600.73 8.79, 600.19 8.93, 599.65 9.03 C599.11 9.12, 598.55 9.17, 598 9.17 C597.45 9.17, 596.89 9.12, 596.35 9.03 C595.81 8.93, 595.27 8.79, 594.75 8.6 C594.24 8.41, 593.73 8.17, 593.25 7.9 C592.77 7.62, 592.32 7.3, 591.89 6.95 C591.47 6.59, 591.08 6.2, 590.72 5.78 C590.37 5.36, 590.05 4.9, 589.77 4.42 C589.5 3.94, 589.26 3.44, 589.07 2.92 C588.89 2.4, 588.74 1.86, 588.65 1.32 C588.55 0.78, 588.5 0.22, 588.5 -0.33 C588.5 -0.88, 588.55 -1.44, 588.65 -1.98 C588.74 -2.52, 588.89 -3.06, 589.07 -3.58 C589.26 -4.1, 589.5 -4.6, 589.77 -5.08 C590.05 -5.56, 590.37 -6.02, 590.72 -6.44 C591.08 -6.86, 591.47 -7.25, 591.89 -7.61 C592.32 -7.96, 592.77 -8.28, 593.25 -8.56 C593.73 -8.83, 594.24 -9.07, 594.75 -9.26 C595.27 -9.45, 595.81 -9.59, 596.35 -9.69 C596.89 -9.78, 597.45 -9.83, 598 -9.83 C598.55 -9.83, 599.11 -9.78, 599.65 -9.69 C600.19 -9.59, 600.73 -9.45, 601.25 -9.26 C601.77 -9.07, 602.27 -8.83, 602.75 -8.56 C603.23 -8.28, 603.69 -7.96, 604.11 -7.61 C604.53 -7.25, 604.93 -6.86, 605.28 -6.44 C605.63 -6.02, 605.95 -5.56, 606.23 -5.08 C606.5 -4.6, 606.74 -4.1, 606.93 -3.58 C607.12 -3.06, 607.26 -2.52, 607.36 -1.98 C607.45 -1.44, 607.48 -0.6, 607.5 -0.33 C607.53 -0.05, 607.53 -0.6, 607.5 -0.33" stroke="none" stroke-width="0" fill="#f08c00"/></g></g><mask/><g transform="translate(10 250) rotate(0 35.5712890625 11.5)"><text x="0" y="0" font-family="Helvetica, Segoe UI Emoji" font-size="20px" fill="#f08c00" text-anchor="start" style="white-space: pre;" direction="ltr" dominant-baseline="text-before-edge">Match 1</text></g><g transform="translate(10 290) rotate(0 35.5712890625 11.5)"><text x="0" y="0" font-family="Helvetica, Segoe UI Emoji" font-size="20px" fill="#1971c2" text-anchor="start" style="white-space: pre;" direction="ltr" dominant-baseline="text-before-edge">Match 2</text></g><g transform="translate(10 330) rotate(0 35.5712890625 11.5)"><text x="0" y="0" font-family="Helvetica, Segoe UI Emoji" font-size="20px" fill="#2f9e44" text-anchor="start" style="white-space: pre;" direction="ltr" dominant-baseline="text-before-edge">Match 3</text></g></svg>