<svg version="1.1" xmlns="http://www.w3.org/2000/svg" viewBox="0 0 1100 720" width="1100" height="720">
  <!-- svg-source:excalidraw -->
  
  <defs>
    <style class="style-fonts">
      @font-face {
        font-family: "Virgil";
        src: url("https://excalidraw.com/Virgil.woff2");
      }
      @font-face {
        font-family: "Cascadia";
        src: url("https://excalidraw.com/Cascadia.woff2");
      }
    </style>
    
  </defs>
  <rect x="0" y="0" width="1100" height="720" fill="#ffffff"/><g stroke-linecap="round"><g transform="translate(70 110) rotate(0 0 40)"><path d="M0 0 C9.94 19.88, 19.88 39.77, 40 80 M40 80 C15.68 80, -8.63 80, -40 80 M-40 80 C-24.07 48.14, -8.14 16.27, 0 0" stroke="#1e1e1e" stroke-width="2.5" fill="none" stroke-dasharray="1.5 8"/></g></g><mask/><g stroke-linecap="round" transform="translate(30 70) rotate(0 40 40)"><path d="M80 40 C80 41.9, 79.86 43.81, 79.59 45.69 C79.32 47.57, 78.91 49.45, 78.38 51.27 C77.85 53.09, 77.17 54.89, 76.39 56.62 C75.6 58.34, 74.68 60.03, 73.65 61.63 C72.62 63.22, 71.47 64.76, 70.23 66.19 C68.99 67.63, 67.63 68.99, 66.19 70.23 C64.76 71.47, 63.22 72.62, 61.63 73.65 C60.03 74.68, 58.34 75.6, 56.62 76.39 C54.89 77.17, 53.09 77.85, 51.27 78.38 C49.45 78.91, 47.57 79.32, 45.69 79.59 C43.81 79.86, 41.9 80, 40 80 C38.1 80, 36.19 79.86, 34.31 79.59 C32.43 79.32, 30.55 78.91, 28.73 78.38 C26.91 77.85, 25.11 77.17, 23.38 76.39 C21.66 75.6, 19.97 74.68, 18.37 73.65 C16.78 72.62, 15.24 71.47, 13.81 70.23 C12.37 68.99, 11.01 67.63, 9.77 66.19 C8.53 64.76, 7.38 63.22, 6.35 61.63 C5.32 60.03, 4.4 58.34, 3.61 56.62 C2.83 54.89, 2.15 53.09, 1.62 51.27 C1.09 49.45, 0.68 47.57, 0.41 45.69 C0.14 43.81, 0 41.9, 0 40 C0 38.1, 0.14 36.19, 0.41 34.31 C0.68 32.43, 1.09 30.55, 1.62 28.73 C2.15 26.91, 2.83 25.11, 3.61 23.38 C4.4 21.66, 5.32 19.97, 6.35 18.37 C7.38 16.78, 8.53 15.24, 9.77 13.81 C11.01 12.37, 12.37 11.01, 13.81 9.77 C15.24 8.53, 16.78 7.38, 18.37 6.35 C19.97 5.32, 21.66 4.4, 23.38 3.61 C25.11 2.83, 26.91 2.15, 28.73 1.62 C30.55 1.09, 32.43 0.68, 34.31 0.41 C36.19 0.14, 38.1 0, 40 0 C41.9 0, 43.81 0.14, 45.69 0.41 C47.57 0.68, 49.45 1.09, 51.27 1.62 C53.09 2.15, 54.89 2.83, 56.62 3.61 C58.34 4.4, 60.03 5.32, 61.63 6.35 C63.22 7.38, 64.76 8.53, 66.19 9.77 C67.63 11.01, 68.99 12.37, 70.23 13.81 C71.47 15.24, 72.62 16.78, 73.65 18.37 C74.68 19.97, 75.6 21.66, 76.39 23.38 C77.17 25.11, 77.85 26.91, 78.38 28.73 C78.91 30.55, 79.32 32.43, 79.59 34.31 C79.86 36.19, 79.93 39.05, 80 40 C80.07 40.95, 80.07 39.05, 80 40" stroke="none" stroke-width="0" fill="#e9ecef"/><path d="M80 40 C80 41.9, 79.86 43.81, 79.59 45.69 C79.32 47.57, 78.91 49.45, 78.38 51.27 C77.85 53.09, 77.17 54.89, 76.39 56.62 C75.6 58.34, 74.68 60.03, 73.65 61.63 C72.62 63.22, 71.47 64.76, 70.23 66.19 C68.99 67.63, 67.63 68.99, 66.19 70.23 C64.76 71.47, 63.22 72.62, 61.63 73.65 C60.03 74.68, 58.34 75.6, 56.62 76.39 C54.89 77.17, 53.09 77.85, 51.27 78.38 C49.45 78.91, 47.57 79.32, 45.69 79.59 C43.81 79.86, 41.9 80, 40 80 C38.1 80, 36.19 79.86, 34.31 79.59 C32.43 79.32, 30.55 78.91, 28.73 78.38 C26.91 77.85, 25.11 77.17, 23.38 76.39 C21.66 75.6, 19.97 74.68, 18.37 73.65 C16.78 72.62, 15.24 71.47, 13.81 70.23 C12.37 68.99, 11.01 67.63, 9.77 66.19 C8.53 64.76, 7.38 63.22, 6.35 61.63 C5.32 60.03, 4.4 58.34, 3.61 56.62 C2.83 54.89, 2.15 53.09, 1.62 51.27 C1.09 49.45, 0.68 47.57, 0.41 45.69 C0.14 43.81, 0 41.9, 0 40 C0 38.1, 0.14 36.19, 0.41 34.31 C0.68 32.43, 1.09 30.55, 1.62 28.73 C2.15 26.91, 2.83 25.11, 3.61 23.38 C4.4 21.66, 5.32 19.97, 6.35 18.37 C7.38 16.78, 8.53 15.24, 9.77 13.81 C11.01 12.37, 12.37 11.01, 13.81 9.77 C15.24 8.53, 16.78 7.38, 18.37 6.35 C19.97 5.32, 21.66 4.4, 23.38 3.61 C25.11 2.83, 26.91 2.15, 28.73 1.62 C30.55 1.09, 32.43 0.68, 34.31 0.41 C36.19 0.14, 38.1 0, 40 0 C41.9 0, 43.81 0.14, 45.69 0.41 C47.57 0.68, 49.45 1.09, 51.27 1.62 C53.09 2.15, 54.89 2.83, 56.62 3.61 C58.34 4.4, 60.03 5.32, 61.63 6.35 C63.22 7.38, 64.76 8.53, 66.19 9.77 C67.63 11.01, 68.99 12.37, 70.23 13.81 C71.47 15.24, 72.62 16.78, 73.65 18.37 C74.68 19.97, 75.6 21.66, 76.39 23.38 C77.17 25.11, 77.85 26.91, 78.38 28.73 C78.91 30.55, 79.32 32.43, 79.59 34.31 C79.86 36.19, 79.93 39.05, 80 40 C80.07 40.95, 80.07 39.05, 80 40" stroke="#1e1e1e" stroke-width="2" fill="none"/></g><g transform="translate(60.8778381275381 94.11572875253808) rotate(0 9.337890625 16.099999999999994)"><text x="9.337890625" y="0" font-family="Helvetica, Segoe UI Emoji" font-size="28px" fill="#1e1e1e" text-anchor="middle" style="white-space: pre;" direction="ltr" dominant-baseline="text-before-edge">X</text></g><g stroke-linecap="round"><g transform="translate(70 310) rotate(0 0 40)"><path d="M0 0 C15.11 30.22, 30.22 60.45, 40 80 M40 80 C16.24 80, -7.52 80, -40 80 M-40 80 C-29.26 58.52, -18.52 37.03, 0 0" stroke="#1e1e1e" stroke-width="2.5" fill="none" stroke-dasharray="1.5 8"/></g></g><mask/><g stroke-linecap="round" transform="translate(30 270) rotate(0 40 40)"><path d="M80 40 C80 41.9, 79.86 43.81, 79.59 45.69 C79.32 47.57, 78.91 49.45, 78.38 51.27 C77.85 53.09, 77.17 54.89, 76.39 56.62 C75.6 58.34, 74.68 60.03, 73.65 61.63 C72.62 63.22, 71.47 64.76, 70.23 66.19 C68.99 67.63, 67.63 68.99, 66.19 70.23 C64.76 71.47, 63.22 72.62, 61.63 73.65 C60.03 74.68, 58.34 75.6, 56.62 76.39 C54.89 77.17, 53.09 77.85, 51.27 78.38 C49.45 78.91, 47.57 79.32, 45.69 79.59 C43.81 79.86, 41.9 80, 40 80 C38.1 80, 36.19 79.86, 34.31 79.59 C32.43 79.32, 30.55 78.91, 28.73 78.38 C26.91 77.85, 25.11 77.17, 23.38 76.39 C21.66 75.6, 19.97 74.68, 18.37 73.65 C16.78 72.62, 15.24 71.47, 13.81 70.23 C12.37 68.99, 11.01 67.63, 9.77 66.19 C8.53 64.76, 7.38 63.22, 6.35 61.63 C5.32 60.03, 4.4 58.34, 3.61 56.62 C2.83 54.89, 2.15 53.09, 1.62 51.27 C1.09 49.45, 0.68 47.57, 0.41 45.69 C0.14 43.81, 0 41.9, 0 40 C0 38.1, 0.14 36.19, 0.41 34.31 C0.68 32.43, 1.09 30.55, 1.62 28.73 C2.15 26.91, 2.83 25.11, 3.61 23.38 C4.4 21.66, 5.32 19.97, 6.35 18.37 C7.38 16.78, 8.53 15.24, 9.77 13.81 C11.01 12.37, 12.37 11.01, 13.81 9.77 C15.24 8.53, 16.78 7.38, 18.37 6.35 C19.97 5.32, 21.66 4.4, 23.38 3.61 C25.11 2.83, 26.91 2.15, 28.73 1.62 C30.55 1.09, 32.43 0.68, 34.31 0.41 C36.19 0.14, 38.1 0, 40 0 C41.9 0, 43.81 0.14, 45.69 0.41 C47.57 0.68, 49.45 1.09, 51.27 1.62 C53.09 2.15, 54.89 2.83, 56.62 3.61 C58.34 4.4, 60.03 5.32, 61.63 6.35 C63.22 7.38, 64.76 8.53, 66.19 9.77 C67.63 11.01, 68.99 12.37, 70.23 13.81 C71.47 15.24, 72.62 16.78, 73.65 18.37 C74.68 19.97, 75.6 21.66, 76.39 23.38 C77.17 25.11, 77.85 26.91, 78.38 28.73 C78.91 30.55, 79.32 32.43, 79.59 34.31 C79.86 36.19, 79.93 39.05, 80 40 C80.07 40.95, 80.07 39.05, 80 40" stroke="none" stroke-width="0" fill="#e9ecef"/><path d="M80 40 C80 41.9, 79.86 43.81, 79.59 45.69 C79.32 47.57, 78.91 49.45, 78.38 51.27 C77.85 53.09, 77.17 54.89, 76.39 56.62 C75.6 58.34, 74.68 60.03, 73.65 61.63 C72.62 63.22, 71.47 64.76, 70.23 66.19 C68.99 67.63, 67.63 68.99, 66.19 70.23 C64.76 71.47, 63.22 72.62, 61.63 73.65 C60.03 74.68, 58.34 75.6, 56.62 76.39 C54.89 77.17, 53.09 77.85, 51.27 78.38 C49.45 78.91, 47.57 79.32, 45.69 79.59 C43.81 79.86, 41.9 80, 40 80 C38.1 80, 36.19 79.86, 34.31 79.59 C32.43 79.32, 30.55 78.91, 28.73 78.38 C26.91 77.85, 25.11 77.17, 23.38 76.39 C21.66 75.6, 19.97 74.68, 18.37 73.65 C16.78 72.62, 15.24 71.47, 13.81 70.23 C12.37 68.99, 11.01 67.63, 9.77 66.19 C8.53 64.76, 7.38 63.22, 6.35 61.63 C5.32 60.03, 4.4 58.34, 3.61 56.62 C2.83 54.89, 2.15 53.09, 1.62 51.27 C1.09 49.45, 0.68 47.57, 0.41 45.69 C0.14 43.81, 0 41.9, 0 40 C0 38.1, 0.14 36.19, 0.41 34.31 C0.68 32.43, 1.09 30.55, 1.62 28.73 C2.15 26.91, 2.83 25.11, 3.61 23.38 C4.4 21.66, 5.32 19.97, 6.35 18.37 C7.38 16.78, 8.53 15.24, 9.77 13.81 C11.01 12.37, 12.37 11.01, 13.81 9.77 C15.24 8.53, 16.78 7.38, 18.37 6.35 C19.97 5.32, 21.66 4.4, 23.38 3.61 C25.11 2.83, 26.91 2.15, 28.73 1.62 C30.55 1.09, 32.43 0.68, 34.31 0.41 C36.19 0.14, 38.1 0, 40 0 C41.9 0, 43.81 0.14, 45.69 0.41 C47.57 0.68, 49.45 1.09, 51.27 1.62 C53.09 2.15, 54.89 2.83, 56.62 3.61 C58.34 4.4, 60.03 5.32, 61.63 6.35 C63.22 7.38, 64.76 8.53, 66.19 9.77 C67.63 11.01, 68.99 12.37, 70.23 13.81 C71.47 15.24, 72.62 16.78, 73.65 18.37 C74.68 19.97, 75.6 21.66, 76.39 23.38 C77.17 25.11, 77.85 26.91, 78.38 28.73 C78.91 30.55, 79.32 32.43, 79.59 34.31 C79.86 36.19, 79.93 39.05, 80 40 C80.07 40.95, 80.07 39.05, 80 40" stroke="#1e1e1e" stroke-width="2" fill="none"/></g><g transform="translate(60.8778381275381 294.1157287525381) rotate(0 9.337890625 16.099999999999994)"><text x="9.337890625" y="0" font-family="Helvetica, Segoe UI Emoji" font-size="28px" fill="#1e1e1e" text-anchor="middle" style="white-space: pre;" direction="ltr" dominant-baseline="text-before-edge">A</text></g><g stroke-linecap="round"><g transform="translate(70 151) rotate(0 0 59)"><path d="M0 0 C0 35.4, 0 70.8, 0 118" stroke="#1e1e1e" stroke-width="2.5" fill="none" stroke-dasharray="1.5 8"/></g><g transform="translate(70 151) rotate(0 0 59)"><path d="M0 118 L-6.34 104.41 L6.34 104.41 L0 118" stroke="none" stroke-width="0" fill="#1e1e1e" fill-rule="evenodd"/><path d="M0 118 C-1.9 113.92, -3.8 109.84, -6.34 104.41 M-6.34 104.41 C-1.99 104.41, 2.37 104.41, 6.34 104.41 M6.34 104.41 C3.91 109.62, 1.47 114.84, 0 118 M0 118 C0 118, 0 118, 0 118" stroke="#1e1e1e" stroke-width="2.5" fill="none"/></g></g><mask/><g stroke-linecap="round" transform="translate(250 70) rotate(0 40 40)"><path d="M80 40 C80 41.9, 79.86 43.81, 79.59 45.69 C79.32 47.57, 78.91 49.45, 78.38 51.27 C77.85 53.09, 77.17 54.89, 76.39 56.62 C75.6 58.34, 74.68 60.03, 73.65 61.63 C72.62 63.22, 71.47 64.76, 70.23 66.19 C68.99 67.63, 67.63 68.99, 66.19 70.23 C64.76 71.47, 63.22 72.62, 61.63 73.65 C60.03 74.68, 58.34 75.6, 56.62 76.39 C54.89 77.17, 53.09 77.85, 51.27 78.38 C49.45 78.91, 47.57 79.32, 45.69 79.59 C43.81 79.86, 41.9 80, 40 80 C38.1 80, 36.19 79.86, 34.31 79.59 C32.43 79.32, 30.55 78.91, 28.73 78.38 C26.91 77.85, 25.11 77.17, 23.38 76.39 C21.66 75.6, 19.97 74.68, 18.37 73.65 C16.78 72.62, 15.24 71.47, 13.81 70.23 C12.37 68.99, 11.01 67.63, 9.77 66.19 C8.53 64.76, 7.38 63.22, 6.35 61.63 C5.32 60.03, 4.4 58.34, 3.61 56.62 C2.83 54.89, 2.15 53.09, 1.62 51.27 C1.09 49.45, 0.68 47.57, 0.41 45.69 C0.14 43.81, 0 41.9, 0 40 C0 38.1, 0.14 36.19, 0.41 34.31 C0.68 32.43, 1.09 30.55, 1.62 28.73 C2.15 26.91, 2.83 25.11, 3.61 23.38 C4.4 21.66, 5.32 19.97, 6.35 18.37 C7.38 16.78, 8.53 15.24, 9.77 13.81 C11.01 12.37, 12.37 11.01, 13.81 9.77 C15.24 8.53, 16.78 7.38, 18.37 6.35 C19.97 5.32, 21.66 4.4, 23.38 3.61 C25.11 2.83, 26.91 2.15, 28.73 1.62 C30.55 1.09, 32.43 0.68, 34.31 0.41 C36.19 0.14, 38.1 0, 40 0 C41.9 0, 43.81 0.14, 45.69 0.41 C47.57 0.68, 49.45 1.09, 51.27 1.62 C53.09 2.15, 54.89 2.83, 56.62 3.61 C58.34 4.4, 60.03 5.32, 61.63 6.35 C63.22 7.38, 64.76 8.53, 66.19 9.77 C67.63 11.01, 68.99 12.37, 70.23 13.81 C71.47 15.24, 72.62 16.78, 73.65 18.37 C74.68 19.97, 75.6 21.66, 76.39 23.38 C77.17 25.11, 77.85 26.91, 78.38 28.73 C78.91 30.55, 79.32 32.43, 79.59 34.31 C79.86 36.19, 79.93 39.05, 80 40 C80.07 40.95, 80.07 39.05, 80 40" stroke="none" stroke-width="0" fill="#e9ecef"/><path d="M80 40 C80 41.9, 79.86 43.81, 79.59 45.69 C79.32 47.57, 78.91 49.45, 78.38 51.27 C77.85 53.09, 77.17 54.89, 76.39 56.62 C75.6 58.34, 74.68 60.03, 73.65 61.63 C72.62 63.22, 71.47 64.76, 70.23 66.19 C68.99 67.63, 67.63 68.99, 66.19 70.23 C64.76 71.47, 63.22 72.62, 61.63 73.65 C60.03 74.68, 58.34 75.6, 56.62 76.39 C54.89 77.17, 53.09 77.85, 51.27 78.38 C49.45 78.91, 47.57 79.32, 45.69 79.59 C43.81 79.86, 41.9 80, 40 80 C38.1 80, 36.19 79.86, 34.31 79.59 C32.43 79.32, 30.55 78.91, 28.73 78.38 C26.91 77.85, 25.11 77.17, 23.38 76.39 C21.66 75.6, 19.97 74.68, 18.37 73.65 C16.78 72.62, 15.24 71.47, 13.81 70.23 C12.37 68.99, 11.01 67.63, 9.77 66.19 C8.53 64.76, 7.38 63.22, 6.35 61.63 C5.32 60.03, 4.4 58.34, 3.61 56.62 C2.83 54.89, 2.15 53.09, 1.62 51.27 C1.09 49.45, 0.68 47.57, 0.41 45.69 C0.14 43.81, 0 41.9, 0 40 C0 38.1, 0.14 36.19, 0.41 34.31 C0.68 32.43, 1.09 30.55, 1.62 28.73 C2.15 26.91, 2.83 25.11, 3.61 23.38 C4.4 21.66, 5.32 19.97, 6.35 18.37 C7.38 16.78, 8.53 15.24, 9.77 13.81 C11.01 12.37, 12.37 11.01, 13.81 9.77 C15.24 8.53, 16.78 7.38, 18.37 6.35 C19.97 5.32, 21.66 4.4, 23.38 3.61 C25.11 2.83, 26.91 2.15, 28.73 1.62 C30.55 1.09, 32.43 0.68, 34.31 0.41 C36.19 0.14, 38.1 0, 40 0 C41.9 0, 43.81 0.14, 45.69 0.41 C47.57 0.68, 49.45 1.09, 51.27 1.62 C53.09 2.15, 54.89 2.83, 56.62 3.61 C58.34 4.4, 60.03 5.32, 61.63 6.35 C63.22 7.38, 64.76 8.53, 66.19 9.77 C67.63 11.01, 68.99 12.37, 70.23 13.81 C71.47 15.24, 72.62 16.78, 73.65 18.37 C74.68 19.97, 75.6 21.66, 76.39 23.38 C77.17 25.11, 77.85 26.91, 78.38 28.73 C78.91 30.55, 79.32 32.43, 79.59 34.31 C79.86 36.19, 79.93 39.05, 80 40 C80.07 40.95, 80.07 39.05, 80 40" stroke="#1e1e1e" stroke-width="2" fill="none"/></g><g transform="translate(280.8778381275381 94.11572875253808) rotate(0 9.337890625 16.099999999999994)"><text x="9.337890625" y="0" font-family="Helvetica, Segoe UI Emoji" font-size="28px" fill="#1e1e1e" text-anchor="middle" style="white-space: pre;" direction="ltr" dominant-baseline="text-before-edge">X</text></g><g stroke-linecap="round"><g transform="translate(290.6350264001986 150.99508191809173) rotate(0 26.06450102487139 40.84289041498323)"><path d="M0 0 C8.69 13.61, 43.44 68.07, 52.13 81.69 M0 0 C8.69 13.61, 43.44 68.07, 52.13 81.69" stroke="#1e1e1e" stroke-width="1" fill="none"/></g><g transform="translate(290.6350264001986 150.99508191809173) rotate(0 26.06450102487139 40.84289041498323)"><path d="M52.13 81.69 L39.47 73.64 L50.16 66.82 L52.13 81.69" stroke="none" stroke-width="0" fill="#1e1e1e" fill-rule="evenodd"/><path d="M52.13 81.69 C47.95 79.03, 43.78 76.37, 39.47 73.64 M52.13 81.69 C49.4 79.95, 46.66 78.21, 39.47 73.64 M39.47 73.64 C43.35 71.16, 47.23 68.68, 50.16 66.82 M39.47 73.64 C42.18 71.91, 44.88 70.19, 50.16 66.82 M50.16 66.82 C50.65 70.49, 51.13 74.17, 52.13 81.69 M50.16 66.82 C50.57 69.88, 50.97 72.95, 52.13 81.69 M52.13 81.69 C52.13 81.69, 52.13 81.69, 52.13 81.69 M52.13 81.69 C52.13 81.69, 52.13 81.69, 52.13 81.69" stroke="#1e1e1e" stroke-width="1" fill="none"/></g></g><mask/><g stroke-linecap="round" transform="translate(310 230) rotate(0 40 40)"><path d="M80 40 C80 41.9, 79.86 43.81, 79.59 45.69 C79.32 47.57, 78.91 49.45, 78.38 51.27 C77.85 53.09, 77.17 54.89, 76.39 56.62 C75.6 58.34, 74.68 60.03, 73.65 61.63 C72.62 63.22, 71.47 64.76, 70.23 66.19 C68.99 67.63, 67.63 68.99, 66.19 70.23 C64.76 71.47, 63.22 72.62, 61.63 73.65 C60.03 74.68, 58.34 75.6, 56.62 76.39 C54.89 77.17, 53.09 77.85, 51.27 78.38 C49.45 78.91, 47.57 79.32, 45.69 79.59 C43.81 79.86, 41.9 80, 40 80 C38.1 80, 36.19 79.86, 34.31 79.59 C32.43 79.32, 30.55 78.91, 28.73 78.38 C26.91 77.85, 25.11 77.17, 23.38 76.39 C21.66 75.6, 19.97 74.68, 18.37 73.65 C16.78 72.62, 15.24 71.47, 13.81 70.23 C12.37 68.99, 11.01 67.63, 9.77 66.19 C8.53 64.76, 7.38 63.22, 6.35 61.63 C5.32 60.03, 4.4 58.34, 3.61 56.62 C2.83 54.89, 2.15 53.09, 1.62 51.27 C1.09 49.45, 0.68 47.57, 0.41 45.69 C0.14 43.81, 0 41.9, 0 40 C0 38.1, 0.14 36.19, 0.41 34.31 C0.68 32.43, 1.09 30.55, 1.62 28.73 C2.15 26.91, 2.83 25.11, 3.61 23.38 C4.4 21.66, 5.32 19.97, 6.35 18.37 C7.38 16.78, 8.53 15.24, 9.77 13.81 C11.01 12.37, 12.37 11.01, 13.81 9.77 C15.24 8.53, 16.78 7.38, 18.37 6.35 C19.97 5.32, 21.66 4.4, 23.38 3.61 C25.11 2.83, 26.91 2.15, 28.73 1.62 C30.55 1.09, 32.43 0.68, 34.31 0.41 C36.19 0.14, 38.1 0, 40 0 C41.9 0, 43.81 0.14, 45.69 0.41 C47.57 0.68, 49.45 1.09, 51.27 1.62 C53.09 2.15, 54.89 2.83, 56.62 3.61 C58.34 4.4, 60.03 5.32, 61.63 6.35 C63.22 7.38, 64.76 8.53, 66.19 9.77 C67.63 11.01, 68.99 12.37, 70.23 13.81 C71.47 15.24, 72.62 16.78, 73.65 18.37 C74.68 19.97, 75.6 21.66, 76.39 23.38 C77.17 25.11, 77.85 26.91, 78.38 28.73 C78.91 30.55, 79.32 32.43, 79.59 34.31 C79.86 36.19, 79.93 39.05, 80 40 C80.07 40.95, 80.07 39.05, 80 40" stroke="none" stroke-width="0" fill="#e9ecef"/><path d="M80 40 C80 41.9, 79.86 43.81, 79.59 45.69 C79.32 47.57, 78.91 49.45, 78.38 51.27 C77.85 53.09, 77.17 54.89, 76.39 56.62 C75.6 58.34, 74.68 60.03, 73.65 61.63 C72.62 63.22, 71.47 64.76, 70.23 66.19 C68.99 67.63, 67.63 68.99, 66.19 70.23 C64.76 71.47, 63.22 72.62, 61.63 73.65 C60.03 74.68, 58.34 75.6, 56.62 76.39 C54.89 77.17, 53.09 77.85, 51.27 78.38 C49.45 78.91, 47.57 79.32, 45.69 79.59 C43.81 79.86, 41.9 80, 40 80 C38.1 80, 36.19 79.86, 34.31 79.59 C32.43 79.32, 30.55 78.91, 28.73 78.38 C26.91 77.85, 25.11 77.17, 23.38 76.39 C21.66 75.6, 19.97 74.68, 18.37 73.65 C16.78 72.62, 15.24 71.47, 13.81 70.23 C12.37 68.99, 11.01 67.63, 9.77 66.19 C8.53 64.76, 7.38 63.22, 6.35 61.63 C5.32 60.03, 4.4 58.34, 3.61 56.62 C2.83 54.89, 2.15 53.09, 1.62 51.27 C1.09 49.45, 0.68 47.57, 0.41 45.69 C0.14 43.81, 0 41.9, 0 40 C0 38.1, 0.14 36.19, 0.41 34.31 C0.68 32.43, 1.09 30.55, 1.62 28.73 C2.15 26.91, 2.83 25.11, 3.61 23.38 C4.4 21.66, 5.32 19.97, 6.35 18.37 C7.38 16.78, 8.53 15.24, 9.77 13.81 C11.01 12.37, 12.37 11.01, 13.81 9.77 C15.24 8.53, 16.78 7.38, 18.37 6.35 C19.97 5.32, 21.66 4.4, 23.38 3.61 C25.11 2.83, 26.91 2.15, 28.73 1.62 C30.55 1.09, 32.43 0.68, 34.31 0.41 C36.19 0.14, 38.1 0, 40 0 C41.9 0, 43.81 0.14, 45.69 0.41 C47.57 0.68, 49.45 1.09, 51.27 1.62 C53.09 2.15, 54.89 2.83, 56.62 3.61 C58.34 4.4, 60.03 5.32, 61.63 6.35 C63.22 7.38, 64.76 8.53, 66.19 9.77 C67.63 11.01, 68.99 12.37, 70.23 13.81 C71.47 15.24, 72.62 16.78, 73.65 18.37 C74.68 19.97, 75.6 21.66, 76.39 23.38 C77.17 25.11, 77.85 26.91, 78.38 28.73 C78.91 30.55, 79.32 32.43, 79.59 34.31 C79.86 36.19, 79.93 39.05, 80 40 C80.07 40.95, 80.07 39.05, 80 40" stroke="#1e1e1e" stroke-width="2" fill="none"/></g><g stroke-linecap="round"><g transform="translate(349.41481786028487 310.9958237124632) rotate(0 -41.544378313008394 70.69743629525672)"><path d="M0 0 C-13.85 23.57, -69.24 117.83, -83.09 141.39 M0 0 C-13.85 23.57, -69.24 117.83, -83.09 141.39" stroke="#1e1e1e" stroke-width="1" fill="none"/></g><g transform="translate(349.41481786028487 310.9958237124632) rotate(0 -41.544378313008394 70.69743629525672)"><path d="M-83.09 141.39 L-81.67 126.46 L-70.74 132.89 L-83.09 141.39" stroke="none" stroke-width="0" fill="#1e1e1e" fill-rule="evenodd"/><path d="M-83.09 141.39 C-82.52 135.45, -81.96 129.5, -81.67 126.46 M-83.09 141.39 C-82.62 136.52, -82.16 131.64, -81.67 126.46 M-81.67 126.46 C-79.37 127.81, -77.07 129.16, -70.74 132.89 M-81.67 126.46 C-77.57 128.87, -73.47 131.28, -70.74 132.89 M-70.74 132.89 C-73.72 134.94, -76.71 137, -83.09 141.39 M-70.74 132.89 C-75.18 135.95, -79.62 139.01, -83.09 141.39 M-83.09 141.39 C-83.09 141.39, -83.09 141.39, -83.09 141.39 M-83.09 141.39 C-83.09 141.39, -83.09 141.39, -83.09 141.39" stroke="#1e1e1e" stroke-width="1" fill="none"/></g></g><mask/><g stroke-linecap="round" transform="translate(210 450) rotate(0 40 40)"><path d="M80 40 C80 41.9, 79.86 43.81, 79.59 45.69 C79.32 47.57, 78.91 49.45, 78.38 51.27 C77.85 53.09, 77.17 54.89, 76.39 56.62 C75.6 58.34, 74.68 60.03, 73.65 61.63 C72.62 63.22, 71.47 64.76, 70.23 66.19 C68.99 67.63, 67.63 68.99, 66.19 70.23 C64.76 71.47, 63.22 72.62, 61.63 73.65 C60.03 74.68, 58.34 75.6, 56.62 76.39 C54.89 77.17, 53.09 77.85, 51.27 78.38 C49.45 78.91, 47.57 79.32, 45.69 79.59 C43.81 79.86, 41.9 80, 40 80 C38.1 80, 36.19 79.86, 34.31 79.59 C32.43 79.32, 30.55 78.91, 28.73 78.38 C26.91 77.85, 25.11 77.17, 23.38 76.39 C21.66 75.6, 19.97 74.68, 18.37 73.65 C16.78 72.62, 15.24 71.47, 13.81 70.23 C12.37 68.99, 11.01 67.63, 9.77 66.19 C8.53 64.76, 7.38 63.22, 6.35 61.63 C5.32 60.03, 4.4 58.34, 3.61 56.62 C2.83 54.89, 2.15 53.09, 1.62 51.27 C1.09 49.45, 0.68 47.57, 0.41 45.69 C0.14 43.81, 0 41.9, 0 40 C0 38.1, 0.14 36.19, 0.41 34.31 C0.68 32.43, 1.09 30.55, 1.62 28.73 C2.15 26.91, 2.83 25.11, 3.61 23.38 C4.4 21.66, 5.32 19.97, 6.35 18.37 C7.38 16.78, 8.53 15.24, 9.77 13.81 C11.01 12.37, 12.37 11.01, 13.81 9.77 C15.24 8.53, 16.78 7.38, 18.37 6.35 C19.97 5.32, 21.66 4.4, 23.38 3.61 C25.11 2.83, 26.91 2.15, 28.73 1.62 C30.55 1.09, 32.43 0.68, 34.31 0.41 C36.19 0.14, 38.1 0, 40 0 C41.9 0, 43.81 0.14, 45.69 0.41 C47.57 0.68, 49.45 1.09, 51.27 1.62 C53.09 2.15, 54.89 2.83, 56.62 3.61 C58.34 4.4, 60.03 5.32, 61.63 6.35 C63.22 7.38, 64.76 8.53, 66.19 9.77 C67.63 11.01, 68.99 12.37, 70.23 13.81 C71.47 15.24, 72.62 16.78, 73.65 18.37 C74.68 19.97, 75.6 21.66, 76.39 23.38 C77.17 25.11, 77.85 26.91, 78.38 28.73 C78.91 30.55, 79.32 32.43, 79.59 34.31 C79.86 36.19, 79.93 39.05, 80 40 C80.07 40.95, 80.07 39.05, 80 40" stroke="none" stroke-width="0" fill="#e9ecef"/><path d="M80 40 C80 41.9, 79.86 43.81, 79.59 45.69 C79.32 47.57, 78.91 49.45, 78.38 51.27 C77.85 53.09, 77.17 54.89, 76.39 56.62 C75.6 58.34, 74.68 60.03, 73.65 61.63 C72.62 63.22, 71.47 64.76, 70.23 66.19 C68.99 67.63, 67.63 68.99, 66.19 70.23 C64.76 71.47, 63.22 72.62, 61.63 73.65 C60.03 74.68, 58.34 75.6, 56.62 76.39 C54.89 77.17, 53.09 77.85, 51.27 78.38 C49.45 78.91, 47.57 79.32, 45.69 79.59 C43.81 79.86, 41.9 80, 40 80 C38.1 80, 36.19 79.86, 34.31 79.59 C32.43 79.32, 30.55 78.91, 28.73 78.38 C26.91 77.85, 25.11 77.17, 23.38 76.39 C21.66 75.6, 19.97 74.68, 18.37 73.65 C16.78 72.62, 15.24 71.47, 13.81 70.23 C12.37 68.99, 11.01 67.63, 9.77 66.19 C8.53 64.76, 7.38 63.22, 6.35 61.63 C5.32 60.03, 4.4 58.34, 3.61 56.62 C2.83 54.89, 2.15 53.09, 1.62 51.27 C1.09 49.45, 0.68 47.57, 0.41 45.69 C0.14 43.81, 0 41.9, 0 40 C0 38.1, 0.14 36.19, 0.41 34.31 C0.68 32.43, 1.09 30.55, 1.62 28.73 C2.15 26.91, 2.83 25.11, 3.61 23.38 C4.4 21.66, 5.32 19.97, 6.35 18.37 C7.38 16.78, 8.53 15.24, 9.77 13.81 C11.01 12.37, 12.37 11.01, 13.81 9.77 C15.24 8.53, 16.78 7.38, 18.37 6.35 C19.97 5.32, 21.66 4.4, 23.38 3.61 C25.11 2.83, 26.91 2.15, 28.73 1.62 C30.55 1.09, 32.43 0.68, 34.31 0.41 C36.19 0.14, 38.1 0, 40 0 C41.9 0, 43.81 0.14, 45.69 0.41 C47.57 0.68, 49.45 1.09, 51.27 1.62 C53.09 2.15, 54.89 2.83, 56.62 3.61 C58.34 4.4, 60.03 5.32, 61.63 6.35 C63.22 7.38, 64.76 8.53, 66.19 9.77 C67.63 11.01, 68.99 12.37, 70.23 13.81 C71.47 15.24, 72.62 16.78, 73.65 18.37 C74.68 19.97, 75.6 21.66, 76.39 23.38 C77.17 25.11, 77.85 26.91, 78.38 28.73 C78.91 30.55, 79.32 32.43, 79.59 34.31 C79.86 36.19, 79.93 39.05, 80 40 C80.07 40.95, 80.07 39.05, 80 40" stroke="#1e1e1e" stroke-width="2" fill="none"/></g><g stroke-linecap="round" transform="translate(410 450) rotate(0 40 40)"><path d="M80 40 C80 41.9, 79.86 43.81, 79.59 45.69 C79.32 47.57, 78.91 49.45, 78.38 51.27 C77.85 53.09, 77.17 54.89, 76.39 56.62 C75.6 58.34, 74.68 60.03, 73.65 61.63 C72.62 63.22, 71.47 64.76, 70.23 66.19 C68.99 67.63, 67.63 68.99, 66.19 70.23 C64.76 71.47, 63.22 72.62, 61.63 73.65 C60.03 74.68, 58.34 75.6, 56.62 76.39 C54.89 77.17, 53.09 77.85, 51.27 78.38 C49.45 78.91, 47.57 79.32, 45.69 79.59 C43.81 79.86, 41.9 80, 40 80 C38.1 80, 36.19 79.86, 34.31 79.59 C32.43 79.32, 30.55 78.91, 28.73 78.38 C26.91 77.85, 25.11 77.17, 23.38 76.39 C21.66 75.6, 19.97 74.68, 18.37 73.65 C16.78 72.62, 15.24 71.47, 13.81 70.23 C12.37 68.99, 11.01 67.63, 9.77 66.19 C8.53 64.76, 7.38 63.22, 6.35 61.63 C5.32 60.03, 4.4 58.34, 3.61 56.62 C2.83 54.89, 2.15 53.09, 1.62 51.27 C1.09 49.45, 0.68 47.57, 0.41 45.69 C0.14 43.81, 0 41.9, 0 40 C0 38.1, 0.14 36.19, 0.41 34.31 C0.68 32.43, 1.09 30.55, 1.62 28.73 C2.15 26.91, 2.83 25.11, 3.61 23.38 C4.4 21.66, 5.32 19.97, 6.35 18.37 C7.38 16.78, 8.53 15.24, 9.77 13.81 C11.01 12.37, 12.37 11.01, 13.81 9.77 C15.24 8.53, 16.78 7.38, 18.37 6.35 C19.97 5.32, 21.66 4.4, 23.38 3.61 C25.11 2.83, 26.91 2.15, 28.73 1.62 C30.55 1.09, 32.43 0.68, 34.31 0.41 C36.19 0.14, 38.1 0, 40 0 C41.9 0, 43.81 0.14, 45.69 0.41 C47.57 0.68, 49.45 1.09, 51.27 1.62 C53.09 2.15, 54.89 2.83, 56.62 3.61 C58.34 4.4, 60.03 5.32, 61.63 6.35 C63.22 7.38, 64.76 8.53, 66.19 9.77 C67.63 11.01, 68.99 12.37, 70.23 13.81 C71.47 15.24, 72.62 16.78, 73.65 18.37 C74.68 19.97, 75.6 21.66, 76.39 23.38 C77.17 25.11, 77.85 26.91, 78.38 28.73 C78.91 30.55, 79.32 32.43, 79.59 34.31 C79.86 36.19, 79.93 39.05, 80 40 C80.07 40.95, 80.07 39.05, 80 40" stroke="none" stroke-width="0" fill="#e9ecef"/><path d="M80 40 C80 41.9, 79.86 43.81, 79.59 45.69 C79.32 47.57, 78.91 49.45, 78.38 51.27 C77.85 53.09, 77.17 54.89, 76.39 56.62 C75.6 58.34, 74.68 60.03, 73.65 61.63 C72.62 63.22, 71.47 64.76, 70.23 66.19 C68.99 67.63, 67.63 68.99, 66.19 70.23 C64.76 71.47, 63.22 72.62, 61.63 73.65 C60.03 74.68, 58.34 75.6, 56.62 76.39 C54.89 77.17, 53.09 77.85, 51.27 78.38 C49.45 78.91, 47.57 79.32, 45.69 79.59 C43.81 79.86, 41.9 80, 40 80 C38.1 80, 36.19 79.86, 34.31 79.59 C32.43 79.32, 30.55 78.91, 28.73 78.38 C26.91 77.85, 25.11 77.17, 23.38 76.39 C21.66 75.6, 19.97 74.68, 18.37 73.65 C16.78 72.62, 15.24 71.47, 13.81 70.23 C12.37 68.99, 11.01 67.63, 9.77 66.19 C8.53 64.76, 7.38 63.22, 6.35 61.63 C5.32 60.03, 4.4 58.34, 3.61 56.62 C2.83 54.89, 2.15 53.09, 1.62 51.27 C1.09 49.45, 0.68 47.57, 0.41 45.69 C0.14 43.81, 0 41.9, 0 40 C0 38.1, 0.14 36.19, 0.41 34.31 C0.68 32.43, 1.09 30.55, 1.62 28.73 C2.15 26.91, 2.83 25.11, 3.61 23.38 C4.4 21.66, 5.32 19.97, 6.35 18.37 C7.38 16.78, 8.53 15.24, 9.77 13.81 C11.01 12.37, 12.37 11.01, 13.81 9.77 C15.24 8.53, 16.78 7.38, 18.37 6.35 C19.97 5.32, 21.66 4.4, 23.38 3.61 C25.11 2.83, 26.91 2.15, 28.73 1.62 C30.55 1.09, 32.43 0.68, 34.31 0.41 C36.19 0.14, 38.1 0, 40 0 C41.9 0, 43.81 0.14, 45.69 0.41 C47.57 0.68, 49.45 1.09, 51.27 1.62 C53.09 2.15, 54.89 2.83, 56.62 3.61 C58.34 4.4, 60.03 5.32, 61.63 6.35 C63.22 7.38, 64.76 8.53, 66.19 9.77 C67.63 11.01, 68.99 12.37, 70.23 13.81 C71.47 15.24, 72.62 16.78, 73.65 18.37 C74.68 19.97, 75.6 21.66, 76.39 23.38 C77.17 25.11, 77.85 26.91, 78.38 28.73 C78.91 30.55, 79.32 32.43, 79.59 34.31 C79.86 36.19, 79.93 39.05, 80 40 C80.07 40.95, 80.07 39.05, 80 40" stroke="#1e1e1e" stroke-width="2" fill="none"/></g><g stroke-linecap="round"><g transform="translate(350.585182196474 310.995823711653) rotate(0 41.54438154491382 70.69743488038445)"><path d="M0 0 C13.85 23.57, 69.24 117.83, 83.09 141.39 M0 0 C13.85 23.57, 69.24 117.83, 83.09 141.39" stroke="#1e1e1e" stroke-width="1" fill="none"/></g><g transform="translate(350.585182196474 310.995823711653) rotate(0 41.54438154491382 70.69743488038445)"><path d="M83.09 141.39 L70.74 132.89 L81.67 126.46 L83.09 141.39" stroke="none" stroke-width="0" fill="#1e1e1e" fill-rule="evenodd"/><path d="M83.09 141.39 C79.77 139.11, 76.45 136.82, 70.74 132.89 M83.09 141.39 C80.03 139.29, 76.98 137.18, 70.74 132.89 M70.74 132.89 C74.42 130.72, 78.1 128.56, 81.67 126.46 M70.74 132.89 C75.04 130.36, 79.35 127.83, 81.67 126.46 M81.67 126.46 C82.2 132.03, 82.73 137.59, 83.09 141.39 M81.67 126.46 C82 129.91, 82.32 133.37, 83.09 141.39 M83.09 141.39 C83.09 141.39, 83.09 141.39, 83.09 141.39 M83.09 141.39 C83.09 141.39, 83.09 141.39, 83.09 141.39" stroke="#1e1e1e" stroke-width="1" fill="none"/></g></g><mask/><g stroke-linecap="round" transform="translate(310 450) rotate(0 40 40)"><path d="M80 40 C80 41.9, 79.86 43.81, 79.59 45.69 C79.32 47.57, 78.91 49.45, 78.38 51.27 C77.85 53.09, 77.17 54.89, 76.39 56.62 C75.6 58.34, 74.68 60.03, 73.65 61.63 C72.62 63.22, 71.47 64.76, 70.23 66.19 C68.99 67.63, 67.63 68.99, 66.19 70.23 C64.76 71.47, 63.22 72.62, 61.63 73.65 C60.03 74.68, 58.34 75.6, 56.62 76.39 C54.89 77.17, 53.09 77.85, 51.27 78.38 C49.45 78.91, 47.57 79.32, 45.69 79.59 C43.81 79.86, 41.9 80, 40 80 C38.1 80, 36.19 79.86, 34.31 79.59 C32.43 79.32, 30.55 78.91, 28.73 78.38 C26.91 77.85, 25.11 77.17, 23.38 76.39 C21.66 75.6, 19.97 74.68, 18.37 73.65 C16.78 72.62, 15.24 71.47, 13.81 70.23 C12.37 68.99, 11.01 67.63, 9.77 66.19 C8.53 64.76, 7.38 63.22, 6.35 61.63 C5.32 60.03, 4.4 58.34, 3.61 56.62 C2.83 54.89, 2.15 53.09, 1.62 51.27 C1.09 49.45, 0.68 47.57, 0.41 45.69 C0.14 43.81, 0 41.9, 0 40 C0 38.1, 0.14 36.19, 0.41 34.31 C0.68 32.43, 1.09 30.55, 1.62 28.73 C2.15 26.91, 2.83 25.11, 3.61 23.38 C4.4 21.66, 5.32 19.97, 6.35 18.37 C7.38 16.78, 8.53 15.24, 9.77 13.81 C11.01 12.37, 12.37 11.01, 13.81 9.77 C15.24 8.53, 16.78 7.38, 18.37 6.35 C19.97 5.32, 21.66 4.4, 23.38 3.61 C25.11 2.83, 26.91 2.15, 28.73 1.62 C30.55 1.09, 32.43 0.68, 34.31 0.41 C36.19 0.14, 38.1 0, 40 0 C41.9 0, 43.81 0.14, 45.69 0.41 C47.57 0.68, 49.45 1.09, 51.27 1.62 C53.09 2.15, 54.89 2.83, 56.62 3.61 C58.34 4.4, 60.03 5.32, 61.63 6.35 C63.22 7.38, 64.76 8.53, 66.19 9.77 C67.63 11.01, 68.99 12.37, 70.23 13.81 C71.47 15.24, 72.62 16.78, 73.65 18.37 C74.68 19.97, 75.6 21.66, 76.39 23.38 C77.17 25.11, 77.85 26.91, 78.38 28.73 C78.91 30.55, 79.32 32.43, 79.59 34.31 C79.86 36.19, 79.93 39.05, 80 40 C80.07 40.95, 80.07 39.05, 80 40" stroke="none" stroke-width="0" fill="#e9ecef"/><path d="M80 40 C80 41.9, 79.86 43.81, 79.59 45.69 C79.32 47.57, 78.91 49.45, 78.38 51.27 C77.85 53.09, 77.17 54.89, 76.39 56.62 C75.6 58.34, 74.68 60.03, 73.65 61.63 C72.62 63.22, 71.47 64.76, 70.23 66.19 C68.99 67.63, 67.63 68.99, 66.19 70.23 C64.76 71.47, 63.22 72.62, 61.63 73.65 C60.03 74.68, 58.34 75.6, 56.62 76.39 C54.89 77.17, 53.09 77.85, 51.27 78.38 C49.45 78.91, 47.57 79.32, 45.69 79.59 C43.81 79.86, 41.9 80, 40 80 C38.1 80, 36.19 79.86, 34.31 79.59 C32.43 79.32, 30.55 78.91, 28.73 78.38 C26.91 77.85, 25.11 77.17, 23.38 76.39 C21.66 75.6, 19.97 74.68, 18.37 73.65 C16.78 72.62, 15.24 71.47, 13.81 70.23 C12.37 68.99, 11.01 67.63, 9.77 66.19 C8.53 64.76, 7.38 63.22, 6.35 61.63 C5.32 60.03, 4.4 58.34, 3.61 56.62 C2.83 54.89, 2.15 53.09, 1.62 51.27 C1.09 49.45, 0.68 47.57, 0.41 45.69 C0.14 43.81, 0 41.9, 0 40 C0 38.1, 0.14 36.19, 0.41 34.31 C0.68 32.43, 1.09 30.55, 1.62 28.73 C2.15 26.91, 2.83 25.11, 3.61 23.38 C4.4 21.66, 5.32 19.97, 6.35 18.37 C7.38 16.78, 8.53 15.24, 9.77 13.81 C11.01 12.37, 12.37 11.01, 13.81 9.77 C15.24 8.53, 16.78 7.38, 18.37 6.35 C19.97 5.32, 21.66 4.4, 23.38 3.61 C25.11 2.83, 26.91 2.15, 28.73 1.62 C30.55 1.09, 32.43 0.68, 34.31 0.41 C36.19 0.14, 38.1 0, 40 0 C41.9 0, 43.81 0.14, 45.69 0.41 C47.57 0.68, 49.45 1.09, 51.27 1.62 C53.09 2.15, 54.89 2.83, 56.62 3.61 C58.34 4.4, 60.03 5.32, 61.63 6.35 C63.22 7.38, 64.76 8.53, 66.19 9.77 C67.63 11.01, 68.99 12.37, 70.23 13.81 C71.47 15.24, 72.62 16.78, 73.65 18.37 C74.68 19.97, 75.6 21.66, 76.39 23.38 C77.17 25.11, 77.85 26.91, 78.38 28.73 C78.91 30.55, 79.32 32.43, 79.59 34.31 C79.86 36.19, 79.93 39.05, 80 40 C80.07 40.95, 80.07 39.05, 80 40" stroke="#1e1e1e" stroke-width="2" fill="none"/></g><g transform="translate(340.8778381275381 474.1157287525381) rotate(0 9.337890625 16.099999999999994)"><text x="9.337890625" y="0" font-family="Helvetica, Segoe UI Emoji" font-size="28px" fill="#1e1e1e" text-anchor="middle" style="white-space: pre;" direction="ltr" dominant-baseline="text-before-edge">A</text></g><g stroke-linecap="round"><g transform="translate(350 311) rotate(0 0 69)"><path d="M0 0 C0 23, 0 115, 0 138 M0 0 C0 23, 0 115, 0 138" stroke="#1e1e1e" stroke-width="1" fill="none"/></g><g transform="translate(350 311) rotate(0 0 69)"><path d="M0 138 L-6.34 124.41 L6.34 124.41 L0 138" stroke="none" stroke-width="0" fill="#1e1e1e" fill-rule="evenodd"/><path d="M0 138 C-2.43 132.78, -4.86 127.57, -6.34 124.41 M0 138 C-2.4 132.86, -4.8 127.72, -6.34 124.41 M-6.34 124.41 C-3.36 124.41, -0.38 124.41, 6.34 124.41 M-6.34 124.41 C-1.96 124.41, 2.43 124.41, 6.34 124.41 M6.34 124.41 C4.15 129.1, 1.96 133.8, 0 138 M6.34 124.41 C4.09 129.23, 1.84 134.05, 0 138 M0 138 C0 138, 0 138, 0 138 M0 138 C0 138, 0 138, 0 138" stroke="#1e1e1e" stroke-width="1" fill="none"/></g></g><mask/><g transform="translate(10 10) rotate(0 58.0341796875 20.69999999999999)"><text x="0" y="0" font-family="Helvetica, Segoe UI Emoji" font-size="36px" fill="#1e1e1e" text-anchor="start" style="white-space: pre;" direction="ltr" dominant-baseline="text-before-edge">Pattern</text></g><g transform="translate(250 10) rotate(0 36.3427734375 20.69999999999999)"><text x="0" y="0" font-family="Helvetica, Segoe UI Emoji" font-size="36px" fill="#1e1e1e" text-anchor="start" style="white-space: pre;" direction="ltr" dominant-baseline="text-before-edge">Tree</text></g><g stroke-linecap="round"><g transform="translate(110.99776999791163 310.42761571339037) rotate(0 109.50111500104418 69.78619214330482)"><path d="M0 0 C19.83 6.6, 82.5 16.31, 119 39.57 C155.5 62.83, 202.34 122.91, 219 139.57" stroke="#1e1e1e" stroke-width="4.5" fill="none" stroke-dasharray="1.5 10"/></g><g transform="translate(110.99776999791163 310.42761571339037) rotate(0 109.50111500104418 69.78619214330482)"><path d="M228.5 139.57 C228.5 140.12, 228.45 140.68, 228.36 141.22 C228.26 141.76, 228.12 142.3, 227.93 142.82 C227.74 143.34, 227.5 143.85, 227.23 144.32 C226.95 144.8, 226.63 145.26, 226.28 145.68 C225.93 146.1, 225.53 146.5, 225.11 146.85 C224.69 147.2, 224.23 147.52, 223.75 147.8 C223.28 148.07, 222.77 148.31, 222.25 148.5 C221.73 148.69, 221.19 148.83, 220.65 148.93 C220.11 149.02, 219.55 149.07, 219 149.07 C218.45 149.07, 217.89 149.02, 217.35 148.93 C216.81 148.83, 216.27 148.69, 215.75 148.5 C215.24 148.31, 214.73 148.07, 214.25 147.8 C213.78 147.52, 213.32 147.2, 212.9 146.85 C212.47 146.5, 212.08 146.1, 211.72 145.68 C211.37 145.26, 211.05 144.8, 210.77 144.32 C210.5 143.85, 210.26 143.34, 210.08 142.82 C209.89 142.3, 209.74 141.76, 209.65 141.22 C209.55 140.68, 209.5 140.12, 209.5 139.57 C209.5 139.02, 209.55 138.46, 209.65 137.92 C209.74 137.38, 209.89 136.84, 210.08 136.32 C210.26 135.81, 210.5 135.3, 210.77 134.82 C211.05 134.35, 211.37 133.89, 211.72 133.47 C212.08 133.04, 212.47 132.65, 212.9 132.29 C213.32 131.94, 213.78 131.62, 214.25 131.35 C214.73 131.07, 215.24 130.83, 215.75 130.65 C216.27 130.46, 216.81 130.31, 217.35 130.22 C217.89 130.12, 218.45 130.07, 219 130.07 C219.55 130.07, 220.11 130.12, 220.65 130.22 C221.19 130.31, 221.73 130.46, 222.25 130.65 C222.77 130.83, 223.28 131.07, 223.75 131.35 C224.23 131.62, 224.69 131.94, 225.11 132.29 C225.53 132.65, 225.93 133.04, 226.28 133.47 C226.63 133.89, 226.95 134.35, 227.23 134.82 C227.5 135.3, 227.74 135.81, 227.93 136.32 C228.12 136.84, 228.26 137.38, 228.36 137.92 C228.45 138.46, 228.48 139.3, 228.5 139.57 C228.53 139.85, 228.53 139.3, 228.5 139.57" stroke="none" stroke-width="0" fill="#1e1e1e"/></g></g><mask/><g stroke-linecap="round"><g transform="translate(370 450) rotate(0 79.50097184391636 -89.80038873756655)"><path d="M0 0 C10 -23.33, 33.5 -110.07, 60 -140 C86.5 -169.93, 142.5 -173, 159 -179.6" stroke="#1e1e1e" stroke-width="4.5" fill="none" stroke-dasharray="8 12"/></g><g transform="translate(370 450) rotate(0 79.50097184391636 -89.80038873756655)"><path d="M134.07 -162.91 C140.94 -167.51, 147.82 -172.11, 159 -179.6" stroke="#1e1e1e" stroke-width="4.5" fill="none"/></g><g transform="translate(370 450) rotate(0 79.50097184391636 -89.80038873756655)"><path d="M129.18 -182.84 C137.4 -181.95, 145.62 -181.06, 159 -179.6" stroke="#1e1e1e" stroke-width="4.5" fill="none"/></g></g><mask/><g transform="translate(570 10) rotate(0 50.02734375 20.69999999999999)"><text x="0" y="0" font-family="Helvetica, Segoe UI Emoji" font-size="36px" fill="#1e1e1e" text-anchor="start" style="white-space: pre;" direction="ltr" dominant-baseline="text-before-edge">Target</text></g><g stroke-linecap="round"><g transform="translate(289.4433122889484 150.99622054278132) rotate(0 -22.52361885098469 40.307144116293074)"><path d="M0 0 C-7.51 13.44, -37.54 67.18, -45.05 80.61 M0 0 C-7.51 13.44, -37.54 67.18, -45.05 80.61" stroke="#1e1e1e" stroke-width="1" fill="none"/></g><g transform="translate(289.4433122889484 150.99622054278132) rotate(0 -22.52361885098469 40.307144116293074)"><path d="M-45.05 80.61 L-43.95 65.65 L-32.88 71.84 L-45.05 80.61" stroke="none" stroke-width="0" fill="#1e1e1e" fill-rule="evenodd"/><path d="M-45.05 80.61 C-44.81 77.38, -44.57 74.14, -43.95 65.65 M-45.05 80.61 C-44.82 77.53, -44.6 74.46, -43.95 65.65 M-43.95 65.65 C-40.9 67.36, -37.85 69.06, -32.88 71.84 M-43.95 65.65 C-40.81 67.41, -37.67 69.16, -32.88 71.84 M-32.88 71.84 C-36.32 74.32, -39.77 76.81, -45.05 80.61 M-32.88 71.84 C-35.57 73.78, -38.26 75.72, -45.05 80.61 M-45.05 80.61 C-45.05 80.61, -45.05 80.61, -45.05 80.61 M-45.05 80.61 C-45.05 80.61, -45.05 80.61, -45.05 80.61" stroke="#1e1e1e" stroke-width="1" fill="none"/></g></g><mask/><g stroke-linecap="round" transform="translate(190 230) rotate(0 40 40)"><path d="M80 40 C80 41.9, 79.86 43.81, 79.59 45.69 C79.32 47.57, 78.91 49.45, 78.38 51.27 C77.85 53.09, 77.17 54.89, 76.39 56.62 C75.6 58.34, 74.68 60.03, 73.65 61.63 C72.62 63.22, 71.47 64.76, 70.23 66.19 C68.99 67.63, 67.63 68.99, 66.19 70.23 C64.76 71.47, 63.22 72.62, 61.63 73.65 C60.03 74.68, 58.34 75.6, 56.62 76.39 C54.89 77.17, 53.09 77.85, 51.27 78.38 C49.45 78.91, 47.57 79.32, 45.69 79.59 C43.81 79.86, 41.9 80, 40 80 C38.1 80, 36.19 79.86, 34.31 79.59 C32.43 79.32, 30.55 78.91, 28.73 78.38 C26.91 77.85, 25.11 77.17, 23.38 76.39 C21.66 75.6, 19.97 74.68, 18.37 73.65 C16.78 72.62, 15.24 71.47, 13.81 70.23 C12.37 68.99, 11.01 67.63, 9.77 66.19 C8.53 64.76, 7.38 63.22, 6.35 61.63 C5.32 60.03, 4.4 58.34, 3.61 56.62 C2.83 54.89, 2.15 53.09, 1.62 51.27 C1.09 49.45, 0.68 47.57, 0.41 45.69 C0.14 43.81, 0 41.9, 0 40 C0 38.1, 0.14 36.19, 0.41 34.31 C0.68 32.43, 1.09 30.55, 1.62 28.73 C2.15 26.91, 2.83 25.11, 3.61 23.38 C4.4 21.66, 5.32 19.97, 6.35 18.37 C7.38 16.78, 8.53 15.24, 9.77 13.81 C11.01 12.37, 12.37 11.01, 13.81 9.77 C15.24 8.53, 16.78 7.38, 18.37 6.35 C19.97 5.32, 21.66 4.4, 23.38 3.61 C25.11 2.83, 26.91 2.15, 28.73 1.62 C30.55 1.09, 32.43 0.68, 34.31 0.41 C36.19 0.14, 38.1 0, 40 0 C41.9 0, 43.81 0.14, 45.69 0.41 C47.57 0.68, 49.45 1.09, 51.27 1.62 C53.09 2.15, 54.89 2.83, 56.62 3.61 C58.34 4.4, 60.03 5.32, 61.63 6.35 C63.22 7.38, 64.76 8.53, 66.19 9.77 C67.63 11.01, 68.99 12.37, 70.23 13.81 C71.47 15.24, 72.62 16.78, 73.65 18.37 C74.68 19.97, 75.6 21.66, 76.39 23.38 C77.17 25.11, 77.85 26.91, 78.38 28.73 C78.91 30.55, 79.32 32.43, 79.59 34.31 C79.86 36.19, 79.93 39.05, 80 40 C80.07 40.95, 80.07 39.05, 80 40" stroke="none" stroke-width="0" fill="#e9ecef"/><path d="M80 40 C80 41.9, 79.86 43.81, 79.59 45.69 C79.32 47.57, 78.91 49.45, 78.38 51.27 C77.85 53.09, 77.17 54.89, 76.39 56.62 C75.6 58.34, 74.68 60.03, 73.65 61.63 C72.62 63.22, 71.47 64.76, 70.23 66.19 C68.99 67.63, 67.63 68.99, 66.19 70.23 C64.76 71.47, 63.22 72.62, 61.63 73.65 C60.03 74.68, 58.34 75.6, 56.62 76.39 C54.89 77.17, 53.09 77.85, 51.27 78.38 C49.45 78.91, 47.57 79.32, 45.69 79.59 C43.81 79.86, 41.9 80, 40 80 C38.1 80, 36.19 79.86, 34.31 79.59 C32.43 79.32, 30.55 78.91, 28.73 78.38 C26.91 77.85, 25.11 77.17, 23.38 76.39 C21.66 75.6, 19.97 74.68, 18.37 73.65 C16.78 72.62, 15.24 71.47, 13.81 70.23 C12.37 68.99, 11.01 67.63, 9.77 66.19 C8.53 64.76, 7.38 63.22, 6.35 61.63 C5.32 60.03, 4.4 58.34, 3.61 56.62 C2.83 54.89, 2.15 53.09, 1.62 51.27 C1.09 49.45, 0.68 47.57, 0.41 45.69 C0.14 43.81, 0 41.9, 0 40 C0 38.1, 0.14 36.19, 0.41 34.31 C0.68 32.43, 1.09 30.55, 1.62 28.73 C2.15 26.91, 2.83 25.11, 3.61 23.38 C4.4 21.66, 5.32 19.97, 6.35 18.37 C7.38 16.78, 8.53 15.24, 9.77 13.81 C11.01 12.37, 12.37 11.01, 13.81 9.77 C15.24 8.53, 16.78 7.38, 18.37 6.35 C19.97 5.32, 21.66 4.4, 23.38 3.61 C25.11 2.83, 26.91 2.15, 28.73 1.62 C30.55 1.09, 32.43 0.68, 34.31 0.41 C36.19 0.14, 38.1 0, 40 0 C41.9 0, 43.81 0.14, 45.69 0.41 C47.57 0.68, 49.45 1.09, 51.27 1.62 C53.09 2.15, 54.89 2.83, 56.62 3.61 C58.34 4.4, 60.03 5.32, 61.63 6.35 C63.22 7.38, 64.76 8.53, 66.19 9.77 C67.63 11.01, 68.99 12.37, 70.23 13.81 C71.47 15.24, 72.62 16.78, 73.65 18.37 C74.68 19.97, 75.6 21.66, 76.39 23.38 C77.17 25.11, 77.85 26.91, 78.38 28.73 C78.91 30.55, 79.32 32.43, 79.59 34.31 C79.86 36.19, 79.93 39.05, 80 40 C80.07 40.95, 80.07 39.05, 80 40" stroke="#1e1e1e" stroke-width="2" fill="none"/></g><g stroke-linecap="round" transform="translate(590 70) rotate(0 40 40)"><path d="M80 40 C80 41.9, 79.86 43.81, 79.59 45.69 C79.32 47.57, 78.91 49.45, 78.38 51.27 C77.85 53.09, 77.17 54.89, 76.39 56.62 C75.6 58.34, 74.68 60.03, 73.65 61.63 C72.62 63.22, 71.47 64.76, 70.23 66.19 C68.99 67.63, 67.63 68.99, 66.19 70.23 C64.76 71.47, 63.22 72.62, 61.63 73.65 C60.03 74.68, 58.34 75.6, 56.62 76.39 C54.89 77.17, 53.09 77.85, 51.27 78.38 C49.45 78.91, 47.57 79.32, 45.69 79.59 C43.81 79.86, 41.9 80, 40 80 C38.1 80, 36.19 79.86, 34.31 79.59 C32.43 79.32, 30.55 78.91, 28.73 78.38 C26.91 77.85, 25.11 77.17, 23.38 76.39 C21.66 75.6, 19.97 74.68, 18.37 73.65 C16.78 72.62, 15.24 71.47, 13.81 70.23 C12.37 68.99, 11.01 67.63, 9.77 66.19 C8.53 64.76, 7.38 63.22, 6.35 61.63 C5.32 60.03, 4.4 58.34, 3.61 56.62 C2.83 54.89, 2.15 53.09, 1.62 51.27 C1.09 49.45, 0.68 47.57, 0.41 45.69 C0.14 43.81, 0 41.9, 0 40 C0 38.1, 0.14 36.19, 0.41 34.31 C0.68 32.43, 1.09 30.55, 1.62 28.73 C2.15 26.91, 2.83 25.11, 3.61 23.38 C4.4 21.66, 5.32 19.97, 6.35 18.37 C7.38 16.78, 8.53 15.24, 9.77 13.81 C11.01 12.37, 12.37 11.01, 13.81 9.77 C15.24 8.53, 16.78 7.38, 18.37 6.35 C19.97 5.32, 21.66 4.4, 23.38 3.61 C25.11 2.83, 26.91 2.15, 28.73 1.62 C30.55 1.09, 32.43 0.68, 34.31 0.41 C36.19 0.14, 38.1 0, 40 0 C41.9 0, 43.81 0.14, 45.69 0.41 C47.57 0.68, 49.45 1.09, 51.27 1.62 C53.09 2.15, 54.89 2.83, 56.62 3.61 C58.34 4.4, 60.03 5.32, 61.63 6.35 C63.22 7.38, 64.76 8.53, 66.19 9.77 C67.63 11.01, 68.99 12.37, 70.23 13.81 C71.47 15.24, 72.62 16.78, 73.65 18.37 C74.68 19.97, 75.6 21.66, 76.39 23.38 C77.17 25.11, 77.85 26.91, 78.38 28.73 C78.91 30.55, 79.32 32.43, 79.59 34.31 C79.86 36.19, 79.93 39.05, 80 40 C80.07 40.95, 80.07 39.05, 80 40" stroke="none" stroke-width="0" fill="#e9ecef"/><path d="M80 40 C80 41.9, 79.86 43.81, 79.59 45.69 C79.32 47.57, 78.91 49.45, 78.38 51.27 C77.85 53.09, 77.17 54.89, 76.39 56.62 C75.6 58.34, 74.68 60.03, 73.65 61.63 C72.62 63.22, 71.47 64.76, 70.23 66.19 C68.99 67.63, 67.63 68.99, 66.19 70.23 C64.76 71.47, 63.22 72.62, 61.63 73.65 C60.03 74.68, 58.34 75.6, 56.62 76.39 C54.89 77.17, 53.09 77.85, 51.27 78.38 C49.45 78.91, 47.57 79.32, 45.69 79.59 C43.81 79.86, 41.9 80, 40 80 C38.1 80, 36.19 79.86, 34.31 79.59 C32.43 79.32, 30.55 78.91, 28.73 78.38 C26.91 77.85, 25.11 77.17, 23.38 76.39 C21.66 75.6, 19.97 74.68, 18.37 73.65 C16.78 72.62, 15.24 71.47, 13.81 70.23 C12.37 68.99, 11.01 67.63, 9.77 66.19 C8.53 64.76, 7.38 63.22, 6.35 61.63 C5.32 60.03, 4.4 58.34, 3.61 56.62 C2.83 54.89, 2.15 53.09, 1.62 51.27 C1.09 49.45, 0.68 47.57, 0.41 45.69 C0.14 43.81, 0 41.9, 0 40 C0 38.1, 0.14 36.19, 0.41 34.31 C0.68 32.43, 1.09 30.55, 1.62 28.73 C2.15 26.91, 2.83 25.11, 3.61 23.38 C4.4 21.66, 5.32 19.97, 6.35 18.37 C7.38 16.78, 8.53 15.24, 9.77 13.81 C11.01 12.37, 12.37 11.01, 13.81 9.77 C15.24 8.53, 16.78 7.38, 18.37 6.35 C19.97 5.32, 21.66 4.4, 23.38 3.61 C25.11 2.83, 26.91 2.15, 28.73 1.62 C30.55 1.09, 32.43 0.68, 34.31 0.41 C36.19 0.14, 38.1 0, 40 0 C41.9 0, 43.81 0.14, 45.69 0.41 C47.57 0.68, 49.45 1.09, 51.27 1.62 C53.09 2.15, 54.89 2.83, 56.62 3.61 C58.34 4.4, 60.03 5.32, 61.63 6.35 C63.22 7.38, 64.76 8.53, 66.19 9.77 C67.63 11.01, 68.99 12.37, 70.23 13.81 C71.47 15.24, 72.62 16.78, 73.65 18.37 C74.68 19.97, 75.6 21.66, 76.39 23.38 C77.17 25.11, 77.85 26.91, 78.38 28.73 C78.91 30.55, 79.32 32.43, 79.59 34.31 C79.86 36.19, 79.93 39.05, 80 40 C80.07 40.95, 80.07 39.05, 80 40" stroke="#1e1e1e" stroke-width="2" fill="none"/></g><g transform="translate(620.8778381275381 94.11572875253808) rotate(0 9.337890625 16.099999999999994)"><text x="9.337890625" y="0" font-family="Helvetica, Segoe UI Emoji" font-size="28px" fill="#1e1e1e" text-anchor="middle" style="white-space: pre;" direction="ltr" dominant-baseline="text-before-edge">S</text></g><g stroke-linecap="round"><g transform="translate(629.3244087256743 150.9944334810234) rotate(0 -21.33917955348148 40.76839621259373)"><path d="M0 0 C-7.11 13.59, -35.57 67.95, -42.68 81.54 M0 0 C-7.11 13.59, -35.57 67.95, -42.68 81.54" stroke="#1e1e1e" stroke-width="1" fill="none"/></g><g transform="translate(629.3244087256743 150.9944334810234) rotate(0 -21.33917955348148 40.76839621259373)"><path d="M-42.68 81.54 L-41.99 66.55 L-30.76 72.43 L-42.68 81.54" stroke="none" stroke-width="0" fill="#1e1e1e" fill-rule="evenodd"/><path d="M-42.68 81.54 C-42.48 77.11, -42.27 72.68, -41.99 66.55 M-42.68 81.54 C-42.4 75.54, -42.13 69.55, -41.99 66.55 M-41.99 66.55 C-39.46 67.87, -36.94 69.2, -30.76 72.43 M-41.99 66.55 C-38.77 68.24, -35.55 69.92, -30.76 72.43 M-30.76 72.43 C-34.6 75.36, -38.44 78.3, -42.68 81.54 M-30.76 72.43 C-34.69 75.43, -38.62 78.44, -42.68 81.54 M-42.68 81.54 C-42.68 81.54, -42.68 81.54, -42.68 81.54 M-42.68 81.54 C-42.68 81.54, -42.68 81.54, -42.68 81.54" stroke="#1e1e1e" stroke-width="1" fill="none"/></g></g><mask/><g stroke-linecap="round" transform="translate(530 230) rotate(0 40 40)"><path d="M80 40 C80 41.9, 79.86 43.81, 79.59 45.69 C79.32 47.57, 78.91 49.45, 78.38 51.27 C77.85 53.09, 77.17 54.89, 76.39 56.62 C75.6 58.34, 74.68 60.03, 73.65 61.63 C72.62 63.22, 71.47 64.76, 70.23 66.19 C68.99 67.63, 67.63 68.99, 66.19 70.23 C64.76 71.47, 63.22 72.62, 61.63 73.65 C60.03 74.68, 58.34 75.6, 56.62 76.39 C54.89 77.17, 53.09 77.85, 51.27 78.38 C49.45 78.91, 47.57 79.32, 45.69 79.59 C43.81 79.86, 41.9 80, 40 80 C38.1 80, 36.19 79.86, 34.31 79.59 C32.43 79.32, 30.55 78.91, 28.73 78.38 C26.91 77.85, 25.11 77.17, 23.38 76.39 C21.66 75.6, 19.97 74.68, 18.37 73.65 C16.78 72.62, 15.24 71.47, 13.81 70.23 C12.37 68.99, 11.01 67.63, 9.77 66.19 C8.53 64.76, 7.38 63.22, 6.35 61.63 C5.32 60.03, 4.4 58.34, 3.61 56.62 C2.83 54.89, 2.15 53.09, 1.62 51.27 C1.09 49.45, 0.68 47.57, 0.41 45.69 C0.14 43.81, 0 41.9, 0 40 C0 38.1, 0.14 36.19, 0.41 34.31 C0.68 32.43, 1.09 30.55, 1.62 28.73 C2.15 26.91, 2.83 25.11, 3.61 23.38 C4.4 21.66, 5.32 19.97, 6.35 18.37 C7.38 16.78, 8.53 15.24, 9.77 13.81 C11.01 12.37, 12.37 11.01, 13.81 9.77 C15.24 8.53, 16.78 7.38, 18.37 6.35 C19.97 5.32, 21.66 4.4, 23.38 3.61 C25.11 2.83, 26.91 2.15, 28.73 1.62 C30.55 1.09, 32.43 0.68, 34.31 0.41 C36.19 0.14, 38.1 0, 40 0 C41.9 0, 43.81 0.14, 45.69 0.41 C47.57 0.68, 49.45 1.09, 51.27 1.62 C53.09 2.15, 54.89 2.83, 56.62 3.61 C58.34 4.4, 60.03 5.32, 61.63 6.35 C63.22 7.38, 64.76 8.53, 66.19 9.77 C67.63 11.01, 68.99 12.37, 70.23 13.81 C71.47 15.24, 72.62 16.78, 73.65 18.37 C74.68 19.97, 75.6 21.66, 76.39 23.38 C77.17 25.11, 77.85 26.91, 78.38 28.73 C78.91 30.55, 79.32 32.43, 79.59 34.31 C79.86 36.19, 79.93 39.05, 80 40 C80.07 40.95, 80.07 39.05, 80 40" stroke="none" stroke-width="0" fill="#e9ecef"/><path d="M80 40 C80 41.9, 79.86 43.81, 79.59 45.69 C79.32 47.57, 78.91 49.45, 78.38 51.27 C77.85 53.09, 77.17 54.89, 76.39 56.62 C75.6 58.34, 74.68 60.03, 73.65 61.63 C72.62 63.22, 71.47 64.76, 70.23 66.19 C68.99 67.63, 67.63 68.99, 66.19 70.23 C64.76 71.47, 63.22 72.62, 61.63 73.65 C60.03 74.68, 58.34 75.6, 56.62 76.39 C54.89 77.17, 53.09 77.85, 51.27 78.38 C49.45 78.91, 47.57 79.32, 45.69 79.59 C43.81 79.86, 41.9 80, 40 80 C38.1 80, 36.19 79.86, 34.31 79.59 C32.43 79.32, 30.55 78.91, 28.73 78.38 C26.91 77.85, 25.11 77.17, 23.38 76.39 C21.66 75.6, 19.97 74.68, 18.37 73.65 C16.78 72.62, 15.24 71.47, 13.81 70.23 C12.37 68.99, 11.01 67.63, 9.77 66.19 C8.53 64.76, 7.38 63.22, 6.35 61.63 C5.32 60.03, 4.4 58.34, 3.61 56.62 C2.83 54.89, 2.15 53.09, 1.62 51.27 C1.09 49.45, 0.68 47.57, 0.41 45.69 C0.14 43.81, 0 41.9, 0 40 C0 38.1, 0.14 36.19, 0.41 34.31 C0.68 32.43, 1.09 30.55, 1.62 28.73 C2.15 26.91, 2.83 25.11, 3.61 23.38 C4.4 21.66, 5.32 19.97, 6.35 18.37 C7.38 16.78, 8.53 15.24, 9.77 13.81 C11.01 12.37, 12.37 11.01, 13.81 9.77 C15.24 8.53, 16.78 7.38, 18.37 6.35 C19.97 5.32, 21.66 4.4, 23.38 3.61 C25.11 2.83, 26.91 2.15, 28.73 1.62 C30.55 1.09, 32.43 0.68, 34.31 0.41 C36.19 0.14, 38.1 0, 40 0 C41.9 0, 43.81 0.14, 45.69 0.41 C47.57 0.68, 49.45 1.09, 51.27 1.62 C53.09 2.15, 54.89 2.83, 56.62 3.61 C58.34 4.4, 60.03 5.32, 61.63 6.35 C63.22 7.38, 64.76 8.53, 66.19 9.77 C67.63 11.01, 68.99 12.37, 70.23 13.81 C71.47 15.24, 72.62 16.78, 73.65 18.37 C74.68 19.97, 75.6 21.66, 76.39 23.38 C77.17 25.11, 77.85 26.91, 78.38 28.73 C78.91 30.55, 79.32 32.43, 79.59 34.31 C79.86 36.19, 79.93 39.05, 80 40 C80.07 40.95, 80.07 39.05, 80 40" stroke="#1e1e1e" stroke-width="2" fill="none"/></g><g stroke-linecap="round" transform="translate(650 230) rotate(0 40 40)"><path d="M80 40 C80 41.9, 79.86 43.81, 79.59 45.69 C79.32 47.57, 78.91 49.45, 78.38 51.27 C77.85 53.09, 77.17 54.89, 76.39 56.62 C75.6 58.34, 74.68 60.03, 73.65 61.63 C72.62 63.22, 71.47 64.76, 70.23 66.19 C68.99 67.63, 67.63 68.99, 66.19 70.23 C64.76 71.47, 63.22 72.62, 61.63 73.65 C60.03 74.68, 58.34 75.6, 56.62 76.39 C54.89 77.17, 53.09 77.85, 51.27 78.38 C49.45 78.91, 47.57 79.32, 45.69 79.59 C43.81 79.86, 41.9 80, 40 80 C38.1 80, 36.19 79.86, 34.31 79.59 C32.43 79.32, 30.55 78.91, 28.73 78.38 C26.91 77.85, 25.11 77.17, 23.38 76.39 C21.66 75.6, 19.97 74.68, 18.37 73.65 C16.78 72.62, 15.24 71.47, 13.81 70.23 C12.37 68.99, 11.01 67.63, 9.77 66.19 C8.53 64.76, 7.38 63.22, 6.35 61.63 C5.32 60.03, 4.4 58.34, 3.61 56.62 C2.83 54.89, 2.15 53.09, 1.62 51.27 C1.09 49.45, 0.68 47.57, 0.41 45.69 C0.14 43.81, 0 41.9, 0 40 C0 38.1, 0.14 36.19, 0.41 34.31 C0.68 32.43, 1.09 30.55, 1.62 28.73 C2.15 26.91, 2.83 25.11, 3.61 23.38 C4.4 21.66, 5.32 19.97, 6.35 18.37 C7.38 16.78, 8.53 15.24, 9.77 13.81 C11.01 12.37, 12.37 11.01, 13.81 9.77 C15.24 8.53, 16.78 7.38, 18.37 6.35 C19.97 5.32, 21.66 4.4, 23.38 3.61 C25.11 2.83, 26.91 2.15, 28.73 1.62 C30.55 1.09, 32.43 0.68, 34.31 0.41 C36.19 0.14, 38.1 0, 40 0 C41.9 0, 43.81 0.14, 45.69 0.41 C47.57 0.68, 49.45 1.09, 51.27 1.62 C53.09 2.15, 54.89 2.83, 56.62 3.61 C58.34 4.4, 60.03 5.32, 61.63 6.35 C63.22 7.38, 64.76 8.53, 66.19 9.77 C67.63 11.01, 68.99 12.37, 70.23 13.81 C71.47 15.24, 72.62 16.78, 73.65 18.37 C74.68 19.97, 75.6 21.66, 76.39 23.38 C77.17 25.11, 77.85 26.91, 78.38 28.73 C78.91 30.55, 79.32 32.43, 79.59 34.31 C79.86 36.19, 79.93 39.05, 80 40 C80.07 40.95, 80.07 39.05, 80 40" stroke="none" stroke-width="0" fill="#e9ecef"/><path d="M80 40 C80 41.9, 79.86 43.81, 79.59 45.69 C79.32 47.57, 78.91 49.45, 78.38 51.27 C77.85 53.09, 77.17 54.89, 76.39 56.62 C75.6 58.34, 74.68 60.03, 73.65 61.63 C72.62 63.22, 71.47 64.76, 70.23 66.19 C68.99 67.63, 67.63 68.99, 66.19 70.23 C64.76 71.47, 63.22 72.62, 61.63 73.65 C60.03 74.68, 58.34 75.6, 56.62 76.39 C54.89 77.17, 53.09 77.85, 51.27 78.38 C49.45 78.91, 47.57 79.32, 45.69 79.59 C43.81 79.86, 41.9 80, 40 80 C38.1 80, 36.19 79.86, 34.31 79.59 C32.43 79.32, 30.55 78.91, 28.73 78.38 C26.91 77.85, 25.11 77.17, 23.38 76.39 C21.66 75.6, 19.97 74.68, 18.37 73.65 C16.78 72.62, 15.24 71.47, 13.81 70.23 C12.37 68.99, 11.01 67.63, 9.77 66.19 C8.53 64.76, 7.38 63.22, 6.35 61.63 C5.32 60.03, 4.4 58.34, 3.61 56.62 C2.83 54.89, 2.15 53.09, 1.62 51.27 C1.09 49.45, 0.68 47.57, 0.41 45.69 C0.14 43.81, 0 41.9, 0 40 C0 38.1, 0.14 36.19, 0.41 34.31 C0.68 32.43, 1.09 30.55, 1.62 28.73 C2.15 26.91, 2.83 25.11, 3.61 23.38 C4.4 21.66, 5.32 19.97, 6.35 18.37 C7.38 16.78, 8.53 15.24, 9.77 13.81 C11.01 12.37, 12.37 11.01, 13.81 9.77 C15.24 8.53, 16.78 7.38, 18.37 6.35 C19.97 5.32, 21.66 4.4, 23.38 3.61 C25.11 2.83, 26.91 2.15, 28.73 1.62 C30.55 1.09, 32.43 0.68, 34.31 0.41 C36.19 0.14, 38.1 0, 40 0 C41.9 0, 43.81 0.14, 45.69 0.41 C47.57 0.68, 49.45 1.09, 51.27 1.62 C53.09 2.15, 54.89 2.83, 56.62 3.61 C58.34 4.4, 60.03 5.32, 61.63 6.35 C63.22 7.38, 64.76 8.53, 66.19 9.77 C67.63 11.01, 68.99 12.37, 70.23 13.81 C71.47 15.24, 72.62 16.78, 73.65 18.37 C74.68 19.97, 75.6 21.66, 76.39 23.38 C77.17 25.11, 77.85 26.91, 78.38 28.73 C78.91 30.55, 79.32 32.43, 79.59 34.31 C79.86 36.19, 79.93 39.05, 80 40 C80.07 40.95, 80.07 39.05, 80 40" stroke="#1e1e1e" stroke-width="2" fill="none"/></g><g transform="translate(680.8778381275381 254.1157287525381) rotate(0 9.337890625 16.099999999999994)"><text x="9.337890625" y="0" font-family="Helvetica, Segoe UI Emoji" font-size="28px" fill="#1e1e1e" text-anchor="middle" style="white-space: pre;" direction="ltr" dominant-baseline="text-before-edge">Y</text></g><g stroke-linecap="round"><g transform="translate(630.6741284852412 150.99445756178983) rotate(0 21.332866197593283 40.771515491601775)"><path d="M0 0 C7.11 13.59, 35.55 67.95, 42.67 81.54 M0 0 C7.11 13.59, 35.55 67.95, 42.67 81.54" stroke="#1e1e1e" stroke-width="1" fill="none"/></g><g transform="translate(630.6741284852412 150.99445756178983) rotate(0 21.332866197593283 40.771515491601775)"><path d="M42.67 81.54 L30.75 72.44 L41.98 66.56 L42.67 81.54" stroke="none" stroke-width="0" fill="#1e1e1e" fill-rule="evenodd"/><path d="M42.67 81.54 C39.48 79.11, 36.3 76.68, 30.75 72.44 M42.67 81.54 C39.29 78.96, 35.91 76.38, 30.75 72.44 M30.75 72.44 C34.73 70.35, 38.72 68.26, 41.98 66.56 M30.75 72.44 C33.79 70.84, 36.83 69.25, 41.98 66.56 M41.98 66.56 C42.23 72.09, 42.49 77.62, 42.67 81.54 M41.98 66.56 C42.15 70.36, 42.33 74.17, 42.67 81.54 M42.67 81.54 C42.67 81.54, 42.67 81.54, 42.67 81.54 M42.67 81.54 C42.67 81.54, 42.67 81.54, 42.67 81.54" stroke="#1e1e1e" stroke-width="1" fill="none"/></g></g><mask/><g stroke-linecap="round"><g transform="translate(110.99696955782451 109.50151522108774) rotate(0 69.50151522108774 -19.75075761054387)"><path d="M0 0 C13.17 -6.58, 55.84 -36.25, 79 -39.5 C102.17 -42.75, 129 -22.83, 139 -19.5" stroke="#1e1e1e" stroke-width="4.5" fill="none" stroke-dasharray="1.5 10"/></g><g transform="translate(110.99696955782451 109.50151522108774) rotate(0 69.50151522108774 -19.75075761054387)"><path d="M148.5 -19.5 C148.5 -18.95, 148.45 -18.39, 148.36 -17.85 C148.26 -17.31, 148.12 -16.77, 147.93 -16.25 C147.74 -15.74, 147.51 -15.23, 147.23 -14.75 C146.96 -14.28, 146.63 -13.82, 146.28 -13.4 C145.93 -12.97, 145.53 -12.58, 145.11 -12.22 C144.69 -11.87, 144.23 -11.55, 143.75 -11.27 C143.28 -11, 142.77 -10.76, 142.25 -10.57 C141.74 -10.39, 141.19 -10.24, 140.65 -10.15 C140.11 -10.05, 139.55 -10, 139 -10 C138.45 -10, 137.89 -10.05, 137.35 -10.15 C136.81 -10.24, 136.27 -10.39, 135.75 -10.57 C135.24 -10.76, 134.73 -11, 134.25 -11.27 C133.78 -11.55, 133.32 -11.87, 132.9 -12.22 C132.48 -12.58, 132.08 -12.97, 131.73 -13.4 C131.37 -13.82, 131.05 -14.28, 130.78 -14.75 C130.5 -15.23, 130.26 -15.74, 130.08 -16.25 C129.89 -16.77, 129.74 -17.31, 129.65 -17.85 C129.55 -18.39, 129.5 -18.95, 129.5 -19.5 C129.5 -20.05, 129.55 -20.61, 129.65 -21.15 C129.74 -21.69, 129.89 -22.23, 130.08 -22.75 C130.26 -23.27, 130.5 -23.78, 130.78 -24.25 C131.05 -24.73, 131.37 -25.19, 131.73 -25.61 C132.08 -26.03, 132.48 -26.43, 132.9 -26.78 C133.32 -27.13, 133.78 -27.45, 134.25 -27.73 C134.73 -28, 135.24 -28.24, 135.75 -28.43 C136.27 -28.62, 136.81 -28.76, 137.35 -28.86 C137.89 -28.95, 138.45 -29, 139 -29 C139.55 -29, 140.11 -28.95, 140.65 -28.86 C141.19 -28.76, 141.74 -28.62, 142.25 -28.43 C142.77 -28.24, 143.28 -28, 143.75 -27.73 C144.23 -27.45, 144.69 -27.13, 145.11 -26.78 C145.53 -26.43, 145.93 -26.03, 146.28 -25.61 C146.63 -25.19, 146.96 -24.73, 147.23 -24.25 C147.51 -23.78, 147.74 -23.27, 147.93 -22.75 C148.12 -22.23, 148.26 -21.69, 148.36 -21.15 C148.45 -20.61, 148.48 -19.78, 148.5 -19.5 C148.53 -19.23, 148.53 -19.78, 148.5 -19.5" stroke="none" stroke-width="0" fill="#1e1e1e"/></g></g><mask/><g transform="translate(870 10) rotate(0 51.0205078125 20.69999999999999)"><text x="0" y="0" font-family="Helvetica, Segoe UI Emoji" font-size="36px" fill="#1e1e1e" text-anchor="start" style="white-space: pre;" direction="ltr" dominant-baseline="text-before-edge">Result</text></g><g stroke-linecap="round" transform="translate(930 70) rotate(0 40 40)"><path d="M80 40 C80 41.9, 79.86 43.81, 79.59 45.69 C79.32 47.57, 78.91 49.45, 78.38 51.27 C77.85 53.09, 77.17 54.89, 76.39 56.62 C75.6 58.34, 74.68 60.03, 73.65 61.63 C72.62 63.22, 71.47 64.76, 70.23 66.19 C68.99 67.63, 67.63 68.99, 66.19 70.23 C64.76 71.47, 63.22 72.62, 61.63 73.65 C60.03 74.68, 58.34 75.6, 56.62 76.39 C54.89 77.17, 53.09 77.85, 51.27 78.38 C49.45 78.91, 47.57 79.32, 45.69 79.59 C43.81 79.86, 41.9 80, 40 80 C38.1 80, 36.19 79.86, 34.31 79.59 C32.43 79.32, 30.55 78.91, 28.73 78.38 C26.91 77.85, 25.11 77.17, 23.38 76.39 C21.66 75.6, 19.97 74.68, 18.37 73.65 C16.78 72.62, 15.24 71.47, 13.81 70.23 C12.37 68.99, 11.01 67.63, 9.77 66.19 C8.53 64.76, 7.38 63.22, 6.35 61.63 C5.32 60.03, 4.4 58.34, 3.61 56.62 C2.83 54.89, 2.15 53.09, 1.62 51.27 C1.09 49.45, 0.68 47.57, 0.41 45.69 C0.14 43.81, 0 41.9, 0 40 C0 38.1, 0.14 36.19, 0.41 34.31 C0.68 32.43, 1.09 30.55, 1.62 28.73 C2.15 26.91, 2.83 25.11, 3.61 23.38 C4.4 21.66, 5.32 19.97, 6.35 18.37 C7.38 16.78, 8.53 15.24, 9.77 13.81 C11.01 12.37, 12.37 11.01, 13.81 9.77 C15.24 8.53, 16.78 7.38, 18.37 6.35 C19.97 5.32, 21.66 4.4, 23.38 3.61 C25.11 2.83, 26.91 2.15, 28.73 1.62 C30.55 1.09, 32.43 0.68, 34.31 0.41 C36.19 0.14, 38.1 0, 40 0 C41.9 0, 43.81 0.14, 45.69 0.41 C47.57 0.68, 49.45 1.09, 51.27 1.62 C53.09 2.15, 54.89 2.83, 56.62 3.61 C58.34 4.4, 60.03 5.32, 61.63 6.35 C63.22 7.38, 64.76 8.53, 66.19 9.77 C67.63 11.01, 68.99 12.37, 70.23 13.81 C71.47 15.24, 72.62 16.78, 73.65 18.37 C74.68 19.97, 75.6 21.66, 76.39 23.38 C77.17 25.11, 77.85 26.91, 78.38 28.73 C78.91 30.55, 79.32 32.43, 79.59 34.31 C79.86 36.19, 79.93 39.05, 80 40 C80.07 40.95, 80.07 39.05, 80 40" stroke="none" stroke-width="0" fill="#e9ecef"/><path d="M80 40 C80 41.9, 79.86 43.81, 79.59 45.69 C79.32 47.57, 78.91 49.45, 78.38 51.27 C77.85 53.09, 77.17 54.89, 76.39 56.62 C75.6 58.34, 74.68 60.03, 73.65 61.63 C72.62 63.22, 71.47 64.76, 70.23 66.19 C68.99 67.63, 67.63 68.99, 66.19 70.23 C64.76 71.47, 63.22 72.62, 61.63 73.65 C60.03 74.68, 58.34 75.6, 56.62 76.39 C54.89 77.17, 53.09 77.85, 51.27 78.38 C49.45 78.91, 47.57 79.32, 45.69 79.59 C43.81 79.86, 41.9 80, 40 80 C38.1 80, 36.19 79.86, 34.31 79.59 C32.43 79.32, 30.55 78.91, 28.73 78.38 C26.91 77.85, 25.11 77.17, 23.38 76.39 C21.66 75.6, 19.97 74.68, 18.37 73.65 C16.78 72.62, 15.24 71.47, 13.81 70.23 C12.37 68.99, 11.01 67.63, 9.77 66.19 C8.53 64.76, 7.38 63.22, 6.35 61.63 C5.32 60.03, 4.4 58.34, 3.61 56.62 C2.83 54.89, 2.15 53.09, 1.62 51.27 C1.09 49.45, 0.68 47.57, 0.41 45.69 C0.14 43.81, 0 41.9, 0 40 C0 38.1, 0.14 36.19, 0.41 34.31 C0.68 32.43, 1.09 30.55, 1.62 28.73 C2.15 26.91, 2.83 25.11, 3.61 23.38 C4.4 21.66, 5.32 19.97, 6.35 18.37 C7.38 16.78, 8.53 15.24, 9.77 13.81 C11.01 12.37, 12.37 11.01, 13.81 9.77 C15.24 8.53, 16.78 7.38, 18.37 6.35 C19.97 5.32, 21.66 4.4, 23.38 3.61 C25.11 2.83, 26.91 2.15, 28.73 1.62 C30.55 1.09, 32.43 0.68, 34.31 0.41 C36.19 0.14, 38.1 0, 40 0 C41.9 0, 43.81 0.14, 45.69 0.41 C47.57 0.68, 49.45 1.09, 51.27 1.62 C53.09 2.15, 54.89 2.83, 56.62 3.61 C58.34 4.4, 60.03 5.32, 61.63 6.35 C63.22 7.38, 64.76 8.53, 66.19 9.77 C67.63 11.01, 68.99 12.37, 70.23 13.81 C71.47 15.24, 72.62 16.78, 73.65 18.37 C74.68 19.97, 75.6 21.66, 76.39 23.38 C77.17 25.11, 77.85 26.91, 78.38 28.73 C78.91 30.55, 79.32 32.43, 79.59 34.31 C79.86 36.19, 79.93 39.05, 80 40 C80.07 40.95, 80.07 39.05, 80 40" stroke="#1e1e1e" stroke-width="2" fill="none"/></g><g transform="translate(960.8778381275381 94.11572875253808) rotate(0 9.337890625 16.099999999999994)"><text x="9.337890625" y="0" font-family="Helvetica, Segoe UI Emoji" font-size="28px" fill="#1e1e1e" text-anchor="middle" style="white-space: pre;" direction="ltr" dominant-baseline="text-before-edge">S</text></g><g stroke-linecap="round"><g transform="translate(969.3244087256743 150.9944334810234) rotate(0 -21.339179553481472 40.76839621259373)"><path d="M0 0 C-7.11 13.59, -35.57 67.95, -42.68 81.54 M0 0 C-7.11 13.59, -35.57 67.95, -42.68 81.54" stroke="#1e1e1e" stroke-width="1" fill="none"/></g><g transform="translate(969.3244087256743 150.9944334810234) rotate(0 -21.339179553481472 40.76839621259373)"><path d="M-42.68 81.54 L-41.99 66.55 L-30.76 72.43 L-42.68 81.54" stroke="none" stroke-width="0" fill="#1e1e1e" fill-rule="evenodd"/><path d="M-42.68 81.54 C-42.52 78.17, -42.37 74.8, -41.99 66.55 M-42.68 81.54 C-42.48 77.24, -42.28 72.95, -41.99 66.55 M-41.99 66.55 C-38.37 68.45, -34.76 70.34, -30.76 72.43 M-41.99 66.55 C-38.29 68.49, -34.58 70.43, -30.76 72.43 M-30.76 72.43 C-34.49 75.29, -38.23 78.14, -42.68 81.54 M-30.76 72.43 C-33.3 74.37, -35.84 76.31, -42.68 81.54 M-42.68 81.54 C-42.68 81.54, -42.68 81.54, -42.68 81.54 M-42.68 81.54 C-42.68 81.54, -42.68 81.54, -42.68 81.54" stroke="#1e1e1e" stroke-width="1" fill="none"/></g></g><mask/><g stroke-linecap="round" transform="translate(990 230) rotate(0 40 40)"><path d="M80 40 C80 41.9, 79.86 43.81, 79.59 45.69 C79.32 47.57, 78.91 49.45, 78.38 51.27 C77.85 53.09, 77.17 54.89, 76.39 56.62 C75.6 58.34, 74.68 60.03, 73.65 61.63 C72.62 63.22, 71.47 64.76, 70.23 66.19 C68.99 67.63, 67.63 68.99, 66.19 70.23 C64.76 71.47, 63.22 72.62, 61.63 73.65 C60.03 74.68, 58.34 75.6, 56.62 76.39 C54.89 77.17, 53.09 77.85, 51.27 78.38 C49.45 78.91, 47.57 79.32, 45.69 79.59 C43.81 79.86, 41.9 80, 40 80 C38.1 80, 36.19 79.86, 34.31 79.59 C32.43 79.32, 30.55 78.91, 28.73 78.38 C26.91 77.85, 25.11 77.17, 23.38 76.39 C21.66 75.6, 19.97 74.68, 18.37 73.65 C16.78 72.62, 15.24 71.47, 13.81 70.23 C12.37 68.99, 11.01 67.63, 9.77 66.19 C8.53 64.76, 7.38 63.22, 6.35 61.63 C5.32 60.03, 4.4 58.34, 3.61 56.62 C2.83 54.89, 2.15 53.09, 1.62 51.27 C1.09 49.45, 0.68 47.57, 0.41 45.69 C0.14 43.81, 0 41.9, 0 40 C0 38.1, 0.14 36.19, 0.41 34.31 C0.68 32.43, 1.09 30.55, 1.62 28.73 C2.15 26.91, 2.83 25.11, 3.61 23.38 C4.4 21.66, 5.32 19.97, 6.35 18.37 C7.38 16.78, 8.53 15.24, 9.77 13.81 C11.01 12.37, 12.37 11.01, 13.81 9.77 C15.24 8.53, 16.78 7.38, 18.37 6.35 C19.97 5.32, 21.66 4.4, 23.38 3.61 C25.11 2.83, 26.91 2.15, 28.73 1.62 C30.55 1.09, 32.43 0.68, 34.31 0.41 C36.19 0.14, 38.1 0, 40 0 C41.9 0, 43.81 0.14, 45.69 0.41 C47.57 0.68, 49.45 1.09, 51.27 1.62 C53.09 2.15, 54.89 2.83, 56.62 3.61 C58.34 4.4, 60.03 5.32, 61.63 6.35 C63.22 7.38, 64.76 8.53, 66.19 9.77 C67.63 11.01, 68.99 12.37, 70.23 13.81 C71.47 15.24, 72.62 16.78, 73.65 18.37 C74.68 19.97, 75.6 21.66, 76.39 23.38 C77.17 25.11, 77.85 26.91, 78.38 28.73 C78.91 30.55, 79.32 32.43, 79.59 34.31 C79.86 36.19, 79.93 39.05, 80 40 C80.07 40.95, 80.07 39.05, 80 40" stroke="none" stroke-width="0" fill="#e9ecef"/><path d="M80 40 C80 41.9, 79.86 43.81, 79.59 45.69 C79.32 47.57, 78.91 49.45, 78.38 51.27 C77.85 53.09, 77.17 54.89, 76.39 56.62 C75.6 58.34, 74.68 60.03, 73.65 61.63 C72.62 63.22, 71.47 64.76, 70.23 66.19 C68.99 67.63, 67.63 68.99, 66.19 70.23 C64.76 71.47, 63.22 72.62, 61.63 73.65 C60.03 74.68, 58.34 75.6, 56.62 76.39 C54.89 77.17, 53.09 77.85, 51.27 78.38 C49.45 78.91, 47.57 79.32, 45.69 79.59 C43.81 79.86, 41.9 80, 40 80 C38.1 80, 36.19 79.86, 34.31 79.59 C32.43 79.32, 30.55 78.91, 28.73 78.38 C26.91 77.85, 25.11 77.17, 23.38 76.39 C21.66 75.6, 19.97 74.68, 18.37 73.65 C16.78 72.62, 15.24 71.47, 13.81 70.23 C12.37 68.99, 11.01 67.63, 9.77 66.19 C8.53 64.76, 7.38 63.22, 6.35 61.63 C5.32 60.03, 4.4 58.34, 3.61 56.62 C2.83 54.89, 2.15 53.09, 1.62 51.27 C1.09 49.45, 0.68 47.57, 0.41 45.69 C0.14 43.81, 0 41.9, 0 40 C0 38.1, 0.14 36.19, 0.41 34.31 C0.68 32.43, 1.09 30.55, 1.62 28.73 C2.15 26.91, 2.83 25.11, 3.61 23.38 C4.4 21.66, 5.32 19.97, 6.35 18.37 C7.38 16.78, 8.53 15.24, 9.77 13.81 C11.01 12.37, 12.37 11.01, 13.81 9.77 C15.24 8.53, 16.78 7.38, 18.37 6.35 C19.97 5.32, 21.66 4.4, 23.38 3.61 C25.11 2.83, 26.91 2.15, 28.73 1.62 C30.55 1.09, 32.43 0.68, 34.31 0.41 C36.19 0.14, 38.1 0, 40 0 C41.9 0, 43.81 0.14, 45.69 0.41 C47.57 0.68, 49.45 1.09, 51.27 1.62 C53.09 2.15, 54.89 2.83, 56.62 3.61 C58.34 4.4, 60.03 5.32, 61.63 6.35 C63.22 7.38, 64.76 8.53, 66.19 9.77 C67.63 11.01, 68.99 12.37, 70.23 13.81 C71.47 15.24, 72.62 16.78, 73.65 18.37 C74.68 19.97, 75.6 21.66, 76.39 23.38 C77.17 25.11, 77.85 26.91, 78.38 28.73 C78.91 30.55, 79.32 32.43, 79.59 34.31 C79.86 36.19, 79.93 39.05, 80 40 C80.07 40.95, 80.07 39.05, 80 40" stroke="#1e1e1e" stroke-width="2" fill="none"/></g><g transform="translate(1020.8778381275381 254.1157287525381) rotate(0 9.337890625 16.099999999999994)"><text x="9.337890625" y="0" font-family="Helvetica, Segoe UI Emoji" font-size="28px" fill="#1e1e1e" text-anchor="middle" style="white-space: pre;" direction="ltr" dominant-baseline="text-before-edge">Y</text></g><g stroke-linecap="round"><g transform="translate(970.6741284852412 150.99445756178983) rotate(0 21.33286619759329 40.771515491601775)"><path d="M0 0 C7.11 13.59, 35.55 67.95, 42.67 81.54 M0 0 C7.11 13.59, 35.55 67.95, 42.67 81.54" stroke="#1e1e1e" stroke-width="1" fill="none"/></g><g transform="translate(970.6741284852412 150.99445756178983) rotate(0 21.33286619759329 40.771515491601775)"><path d="M42.67 81.54 L30.75 72.44 L41.98 66.56 L42.67 81.54" stroke="none" stroke-width="0" fill="#1e1e1e" fill-rule="evenodd"/><path d="M42.67 81.54 C38.46 78.33, 34.26 75.12, 30.75 72.44 M42.67 81.54 C38.22 78.15, 33.78 74.75, 30.75 72.44 M30.75 72.44 C33.65 70.91, 36.56 69.39, 41.98 66.56 M30.75 72.44 C34.88 70.27, 39.01 68.11, 41.98 66.56 M41.98 66.56 C42.24 72.17, 42.49 77.77, 42.67 81.54 M41.98 66.56 C42.16 70.39, 42.33 74.22, 42.67 81.54 M42.67 81.54 C42.67 81.54, 42.67 81.54, 42.67 81.54 M42.67 81.54 C42.67 81.54, 42.67 81.54, 42.67 81.54" stroke="#1e1e1e" stroke-width="1" fill="none"/></g></g><mask/><g stroke-linecap="round" transform="translate(870 230) rotate(0 40 40)"><path d="M80 40 C80 41.9, 79.86 43.81, 79.59 45.69 C79.32 47.57, 78.91 49.45, 78.38 51.27 C77.85 53.09, 77.17 54.89, 76.39 56.62 C75.6 58.34, 74.68 60.03, 73.65 61.63 C72.62 63.22, 71.47 64.76, 70.23 66.19 C68.99 67.63, 67.63 68.99, 66.19 70.23 C64.76 71.47, 63.22 72.62, 61.63 73.65 C60.03 74.68, 58.34 75.6, 56.62 76.39 C54.89 77.17, 53.09 77.85, 51.27 78.38 C49.45 78.91, 47.57 79.32, 45.69 79.59 C43.81 79.86, 41.9 80, 40 80 C38.1 80, 36.19 79.86, 34.31 79.59 C32.43 79.32, 30.55 78.91, 28.73 78.38 C26.91 77.85, 25.11 77.17, 23.38 76.39 C21.66 75.6, 19.97 74.68, 18.37 73.65 C16.78 72.62, 15.24 71.47, 13.81 70.23 C12.37 68.99, 11.01 67.63, 9.77 66.19 C8.53 64.76, 7.38 63.22, 6.35 61.63 C5.32 60.03, 4.4 58.34, 3.61 56.62 C2.83 54.89, 2.15 53.09, 1.62 51.27 C1.09 49.45, 0.68 47.57, 0.41 45.69 C0.14 43.81, 0 41.9, 0 40 C0 38.1, 0.14 36.19, 0.41 34.31 C0.68 32.43, 1.09 30.55, 1.62 28.73 C2.15 26.91, 2.83 25.11, 3.61 23.38 C4.4 21.66, 5.32 19.97, 6.35 18.37 C7.38 16.78, 8.53 15.24, 9.77 13.81 C11.01 12.37, 12.37 11.01, 13.81 9.77 C15.24 8.53, 16.78 7.38, 18.37 6.35 C19.97 5.32, 21.66 4.4, 23.38 3.61 C25.11 2.83, 26.91 2.15, 28.73 1.62 C30.55 1.09, 32.43 0.68, 34.31 0.41 C36.19 0.14, 38.1 0, 40 0 C41.9 0, 43.81 0.14, 45.69 0.41 C47.57 0.68, 49.45 1.09, 51.27 1.62 C53.09 2.15, 54.89 2.83, 56.62 3.61 C58.34 4.4, 60.03 5.32, 61.63 6.35 C63.22 7.38, 64.76 8.53, 66.19 9.77 C67.63 11.01, 68.99 12.37, 70.23 13.81 C71.47 15.24, 72.62 16.78, 73.65 18.37 C74.68 19.97, 75.6 21.66, 76.39 23.38 C77.17 25.11, 77.85 26.91, 78.38 28.73 C78.91 30.55, 79.32 32.43, 79.59 34.31 C79.86 36.19, 79.93 39.05, 80 40 C80.07 40.95, 80.07 39.05, 80 40" stroke="none" stroke-width="0" fill="#e9ecef"/><path d="M80 40 C80 41.9, 79.86 43.81, 79.59 45.69 C79.32 47.57, 78.91 49.45, 78.38 51.27 C77.85 53.09, 77.17 54.89, 76.39 56.62 C75.6 58.34, 74.68 60.03, 73.65 61.63 C72.62 63.22, 71.47 64.76, 70.23 66.19 C68.99 67.63, 67.63 68.99, 66.19 70.23 C64.76 71.47, 63.22 72.62, 61.63 73.65 C60.03 74.68, 58.34 75.6, 56.62 76.39 C54.89 77.17, 53.09 77.85, 51.27 78.38 C49.45 78.91, 47.57 79.32, 45.69 79.59 C43.81 79.86, 41.9 80, 40 80 C38.1 80, 36.19 79.86, 34.31 79.59 C32.43 79.32, 30.55 78.91, 28.73 78.38 C26.91 77.85, 25.11 77.17, 23.38 76.39 C21.66 75.6, 19.97 74.68, 18.37 73.65 C16.78 72.62, 15.24 71.47, 13.81 70.23 C12.37 68.99, 11.01 67.63, 9.77 66.19 C8.53 64.76, 7.38 63.22, 6.35 61.63 C5.32 60.03, 4.4 58.34, 3.61 56.62 C2.83 54.89, 2.15 53.09, 1.62 51.27 C1.09 49.45, 0.68 47.57, 0.41 45.69 C0.14 43.81, 0 41.9, 0 40 C0 38.1, 0.14 36.19, 0.41 34.31 C0.68 32.43, 1.09 30.55, 1.62 28.73 C2.15 26.91, 2.83 25.11, 3.61 23.38 C4.4 21.66, 5.32 19.97, 6.35 18.37 C7.38 16.78, 8.53 15.24, 9.77 13.81 C11.01 12.37, 12.37 11.01, 13.81 9.77 C15.24 8.53, 16.78 7.38, 18.37 6.35 C19.97 5.32, 21.66 4.4, 23.38 3.61 C25.11 2.83, 26.91 2.15, 28.73 1.62 C30.55 1.09, 32.43 0.68, 34.31 0.41 C36.19 0.14, 38.1 0, 40 0 C41.9 0, 43.81 0.14, 45.69 0.41 C47.57 0.68, 49.45 1.09, 51.27 1.62 C53.09 2.15, 54.89 2.83, 56.62 3.61 C58.34 4.4, 60.03 5.32, 61.63 6.35 C63.22 7.38, 64.76 8.53, 66.19 9.77 C67.63 11.01, 68.99 12.37, 70.23 13.81 C71.47 15.24, 72.62 16.78, 73.65 18.37 C74.68 19.97, 75.6 21.66, 76.39 23.38 C77.17 25.11, 77.85 26.91, 78.38 28.73 C78.91 30.55, 79.32 32.43, 79.59 34.31 C79.86 36.19, 79.93 39.05, 80 40 C80.07 40.95, 80.07 39.05, 80 40" stroke="#1e1e1e" stroke-width="2" fill="none"/></g><g stroke-linecap="round"><g transform="translate(909.4148178602848 310.9958237124632) rotate(0 -41.544378313008394 70.69743629525672)"><path d="M0 0 C-13.85 23.57, -69.24 117.83, -83.09 141.39 M0 0 C-13.85 23.57, -69.24 117.83, -83.09 141.39" stroke="#1e1e1e" stroke-width="1" fill="none"/></g><g transform="translate(909.4148178602848 310.9958237124632) rotate(0 -41.544378313008394 70.69743629525672)"><path d="M-83.09 141.39 L-81.67 126.46 L-70.74 132.89 L-83.09 141.39" stroke="none" stroke-width="0" fill="#1e1e1e" fill-rule="evenodd"/><path d="M-83.09 141.39 C-82.58 136.09, -82.08 130.79, -81.67 126.46 M-83.09 141.39 C-82.7 137.35, -82.32 133.3, -81.67 126.46 M-81.67 126.46 C-77.63 128.83, -73.59 131.21, -70.74 132.89 M-81.67 126.46 C-78.89 128.09, -76.11 129.72, -70.74 132.89 M-70.74 132.89 C-73.81 135, -76.89 137.12, -83.09 141.39 M-70.74 132.89 C-73.98 135.12, -77.23 137.36, -83.09 141.39 M-83.09 141.39 C-83.09 141.39, -83.09 141.39, -83.09 141.39 M-83.09 141.39 C-83.09 141.39, -83.09 141.39, -83.09 141.39" stroke="#1e1e1e" stroke-width="1" fill="none"/></g></g><mask/><g stroke-linecap="round" transform="translate(770 450) rotate(0 40 40)"><path d="M80 40 C80 41.9, 79.86 43.81, 79.59 45.69 C79.32 47.57, 78.91 49.45, 78.38 51.27 C77.85 53.09, 77.17 54.89, 76.39 56.62 C75.6 58.34, 74.68 60.03, 73.65 61.63 C72.62 63.22, 71.47 64.76, 70.23 66.19 C68.99 67.63, 67.63 68.99, 66.19 70.23 C64.76 71.47, 63.22 72.62, 61.63 73.65 C60.03 74.68, 58.34 75.6, 56.62 76.39 C54.89 77.17, 53.09 77.85, 51.27 78.38 C49.45 78.91, 47.57 79.32, 45.69 79.59 C43.81 79.86, 41.9 80, 40 80 C38.1 80, 36.19 79.86, 34.31 79.59 C32.43 79.32, 30.55 78.91, 28.73 78.38 C26.91 77.85, 25.11 77.17, 23.38 76.39 C21.66 75.6, 19.97 74.68, 18.37 73.65 C16.78 72.62, 15.24 71.47, 13.81 70.23 C12.37 68.99, 11.01 67.63, 9.77 66.19 C8.53 64.76, 7.38 63.22, 6.35 61.63 C5.32 60.03, 4.4 58.34, 3.61 56.62 C2.83 54.89, 2.15 53.09, 1.62 51.27 C1.09 49.45, 0.68 47.57, 0.41 45.69 C0.14 43.81, 0 41.9, 0 40 C0 38.1, 0.14 36.19, 0.41 34.31 C0.68 32.43, 1.09 30.55, 1.62 28.73 C2.15 26.91, 2.83 25.11, 3.61 23.38 C4.4 21.66, 5.32 19.97, 6.35 18.37 C7.38 16.78, 8.53 15.24, 9.77 13.81 C11.01 12.37, 12.37 11.01, 13.81 9.77 C15.24 8.53, 16.78 7.38, 18.37 6.35 C19.97 5.32, 21.66 4.4, 23.38 3.61 C25.11 2.83, 26.91 2.15, 28.73 1.62 C30.55 1.09, 32.43 0.68, 34.31 0.41 C36.19 0.14, 38.1 0, 40 0 C41.9 0, 43.81 0.14, 45.69 0.41 C47.57 0.68, 49.45 1.09, 51.27 1.62 C53.09 2.15, 54.89 2.83, 56.62 3.61 C58.34 4.4, 60.03 5.32, 61.63 6.35 C63.22 7.38, 64.76 8.53, 66.19 9.77 C67.63 11.01, 68.99 12.37, 70.23 13.81 C71.47 15.24, 72.62 16.78, 73.65 18.37 C74.68 19.97, 75.6 21.66, 76.39 23.38 C77.17 25.11, 77.85 26.91, 78.38 28.73 C78.91 30.55, 79.32 32.43, 79.59 34.31 C79.86 36.19, 79.93 39.05, 80 40 C80.07 40.95, 80.07 39.05, 80 40" stroke="none" stroke-width="0" fill="#e9ecef"/><path d="M80 40 C80 41.9, 79.86 43.81, 79.59 45.69 C79.32 47.57, 78.91 49.45, 78.38 51.27 C77.85 53.09, 77.17 54.89, 76.39 56.62 C75.6 58.34, 74.68 60.03, 73.65 61.63 C72.62 63.22, 71.47 64.76, 70.23 66.19 C68.99 67.63, 67.63 68.99, 66.19 70.23 C64.76 71.47, 63.22 72.62, 61.63 73.65 C60.03 74.68, 58.34 75.6, 56.62 76.39 C54.89 77.17, 53.09 77.85, 51.27 78.38 C49.45 78.91, 47.57 79.32, 45.69 79.59 C43.81 79.86, 41.9 80, 40 80 C38.1 80, 36.19 79.86, 34.31 79.59 C32.43 79.32, 30.55 78.91, 28.73 78.38 C26.91 77.85, 25.11 77.17, 23.38 76.39 C21.66 75.6, 19.97 74.68, 18.37 73.65 C16.78 72.62, 15.24 71.47, 13.81 70.23 C12.37 68.99, 11.01 67.63, 9.77 66.19 C8.53 64.76, 7.38 63.22, 6.35 61.63 C5.32 60.03, 4.4 58.34, 3.61 56.62 C2.83 54.89, 2.15 53.09, 1.62 51.27 C1.09 49.45, 0.68 47.57, 0.41 45.69 C0.14 43.81, 0 41.9, 0 40 C0 38.1, 0.14 36.19, 0.41 34.31 C0.68 32.43, 1.09 30.55, 1.62 28.73 C2.15 26.91, 2.83 25.11, 3.61 23.38 C4.4 21.66, 5.32 19.97, 6.35 18.37 C7.38 16.78, 8.53 15.24, 9.77 13.81 C11.01 12.37, 12.37 11.01, 13.81 9.77 C15.24 8.53, 16.78 7.38, 18.37 6.35 C19.97 5.32, 21.66 4.4, 23.38 3.61 C25.11 2.83, 26.91 2.15, 28.73 1.62 C30.55 1.09, 32.43 0.68, 34.31 0.41 C36.19 0.14, 38.1 0, 40 0 C41.9 0, 43.81 0.14, 45.69 0.41 C47.57 0.68, 49.45 1.09, 51.27 1.62 C53.09 2.15, 54.89 2.83, 56.62 3.61 C58.34 4.4, 60.03 5.32, 61.63 6.35 C63.22 7.38, 64.76 8.53, 66.19 9.77 C67.63 11.01, 68.99 12.37, 70.23 13.81 C71.47 15.24, 72.62 16.78, 73.65 18.37 C74.68 19.97, 75.6 21.66, 76.39 23.38 C77.17 25.11, 77.85 26.91, 78.38 28.73 C78.91 30.55, 79.32 32.43, 79.59 34.31 C79.86 36.19, 79.93 39.05, 80 40 C80.07 40.95, 80.07 39.05, 80 40" stroke="#1e1e1e" stroke-width="2" fill="none"/></g><g stroke-linecap="round" transform="translate(970 450) rotate(0 40 40)"><path d="M80 40 C80 41.9, 79.86 43.81, 79.59 45.69 C79.32 47.57, 78.91 49.45, 78.38 51.27 C77.85 53.09, 77.17 54.89, 76.39 56.62 C75.6 58.34, 74.68 60.03, 73.65 61.63 C72.62 63.22, 71.47 64.76, 70.23 66.19 C68.99 67.63, 67.63 68.99, 66.19 70.23 C64.76 71.47, 63.22 72.62, 61.63 73.65 C60.03 74.68, 58.34 75.6, 56.62 76.39 C54.89 77.17, 53.09 77.85, 51.27 78.38 C49.45 78.91, 47.57 79.32, 45.69 79.59 C43.81 79.86, 41.9 80, 40 80 C38.1 80, 36.19 79.86, 34.31 79.59 C32.43 79.32, 30.55 78.91, 28.73 78.38 C26.91 77.85, 25.11 77.17, 23.38 76.39 C21.66 75.6, 19.97 74.68, 18.37 73.65 C16.78 72.62, 15.24 71.47, 13.81 70.23 C12.37 68.99, 11.01 67.63, 9.77 66.19 C8.53 64.76, 7.38 63.22, 6.35 61.63 C5.32 60.03, 4.4 58.34, 3.61 56.62 C2.83 54.89, 2.15 53.09, 1.62 51.27 C1.09 49.45, 0.68 47.57, 0.41 45.69 C0.14 43.81, 0 41.9, 0 40 C0 38.1, 0.14 36.19, 0.41 34.31 C0.68 32.43, 1.09 30.55, 1.62 28.73 C2.15 26.91, 2.83 25.11, 3.61 23.38 C4.4 21.66, 5.32 19.97, 6.35 18.37 C7.38 16.78, 8.53 15.24, 9.77 13.81 C11.01 12.37, 12.37 11.01, 13.81 9.77 C15.24 8.53, 16.78 7.38, 18.37 6.35 C19.97 5.32, 21.66 4.4, 23.38 3.61 C25.11 2.83, 26.91 2.15, 28.73 1.62 C30.55 1.09, 32.43 0.68, 34.31 0.41 C36.19 0.14, 38.1 0, 40 0 C41.9 0, 43.81 0.14, 45.69 0.41 C47.57 0.68, 49.45 1.09, 51.27 1.62 C53.09 2.15, 54.89 2.83, 56.62 3.61 C58.34 4.4, 60.03 5.32, 61.63 6.35 C63.22 7.38, 64.76 8.53, 66.19 9.77 C67.63 11.01, 68.99 12.37, 70.23 13.81 C71.47 15.24, 72.62 16.78, 73.65 18.37 C74.68 19.97, 75.6 21.66, 76.39 23.38 C77.17 25.11, 77.85 26.91, 78.38 28.73 C78.91 30.55, 79.32 32.43, 79.59 34.31 C79.86 36.19, 79.93 39.05, 80 40 C80.07 40.95, 80.07 39.05, 80 40" stroke="none" stroke-width="0" fill="#e9ecef"/><path d="M80 40 C80 41.9, 79.86 43.81, 79.59 45.69 C79.32 47.57, 78.91 49.45, 78.38 51.27 C77.85 53.09, 77.17 54.89, 76.39 56.62 C75.6 58.34, 74.68 60.03, 73.65 61.63 C72.62 63.22, 71.47 64.76, 70.23 66.19 C68.99 67.63, 67.63 68.99, 66.19 70.23 C64.76 71.47, 63.22 72.62, 61.63 73.65 C60.03 74.68, 58.34 75.6, 56.62 76.39 C54.89 77.17, 53.09 77.85, 51.27 78.38 C49.45 78.91, 47.57 79.32, 45.69 79.59 C43.81 79.86, 41.9 80, 40 80 C38.1 80, 36.19 79.86, 34.31 79.59 C32.43 79.32, 30.55 78.91, 28.73 78.38 C26.91 77.85, 25.11 77.17, 23.38 76.39 C21.66 75.6, 19.97 74.68, 18.37 73.65 C16.78 72.62, 15.24 71.47, 13.81 70.23 C12.37 68.99, 11.01 67.63, 9.77 66.19 C8.53 64.76, 7.38 63.22, 6.35 61.63 C5.32 60.03, 4.4 58.34, 3.61 56.62 C2.83 54.89, 2.15 53.09, 1.62 51.27 C1.09 49.45, 0.68 47.57, 0.41 45.69 C0.14 43.81, 0 41.9, 0 40 C0 38.1, 0.14 36.19, 0.41 34.31 C0.68 32.43, 1.09 30.55, 1.62 28.73 C2.15 26.91, 2.83 25.11, 3.61 23.38 C4.4 21.66, 5.32 19.97, 6.35 18.37 C7.38 16.78, 8.53 15.24, 9.77 13.81 C11.01 12.37, 12.37 11.01, 13.81 9.77 C15.24 8.53, 16.78 7.38, 18.37 6.35 C19.97 5.32, 21.66 4.4, 23.38 3.61 C25.11 2.83, 26.91 2.15, 28.73 1.62 C30.55 1.09, 32.43 0.68, 34.31 0.41 C36.19 0.14, 38.1 0, 40 0 C41.9 0, 43.81 0.14, 45.69 0.41 C47.57 0.68, 49.45 1.09, 51.27 1.62 C53.09 2.15, 54.89 2.83, 56.62 3.61 C58.34 4.4, 60.03 5.32, 61.63 6.35 C63.22 7.38, 64.76 8.53, 66.19 9.77 C67.63 11.01, 68.99 12.37, 70.23 13.81 C71.47 15.24, 72.62 16.78, 73.65 18.37 C74.68 19.97, 75.6 21.66, 76.39 23.38 C77.17 25.11, 77.85 26.91, 78.38 28.73 C78.91 30.55, 79.32 32.43, 79.59 34.31 C79.86 36.19, 79.93 39.05, 80 40 C80.07 40.95, 80.07 39.05, 80 40" stroke="#1e1e1e" stroke-width="2" fill="none"/></g><g stroke-linecap="round"><g transform="translate(910.5851821964741 310.995823711653) rotate(0 41.54438154491379 70.69743488038445)"><path d="M0 0 C13.85 23.57, 69.24 117.83, 83.09 141.39 M0 0 C13.85 23.57, 69.24 117.83, 83.09 141.39" stroke="#1e1e1e" stroke-width="1" fill="none"/></g><g transform="translate(910.5851821964741 310.995823711653) rotate(0 41.54438154491379 70.69743488038445)"><path d="M83.09 141.39 L70.74 132.89 L81.67 126.46 L83.09 141.39" stroke="none" stroke-width="0" fill="#1e1e1e" fill-rule="evenodd"/><path d="M83.09 141.39 C80.57 139.66, 78.04 137.92, 70.74 132.89 M83.09 141.39 C79.82 139.14, 76.54 136.89, 70.74 132.89 M70.74 132.89 C72.96 131.58, 75.18 130.28, 81.67 126.46 M70.74 132.89 C74.32 130.78, 77.89 128.68, 81.67 126.46 M81.67 126.46 C82.02 130.14, 82.37 133.83, 83.09 141.39 M81.67 126.46 C82.01 130.02, 82.34 133.58, 83.09 141.39 M83.09 141.39 C83.09 141.39, 83.09 141.39, 83.09 141.39 M83.09 141.39 C83.09 141.39, 83.09 141.39, 83.09 141.39" stroke="#1e1e1e" stroke-width="1" fill="none"/></g></g><mask/><g stroke-linecap="round" transform="translate(870 450) rotate(0 40 40)"><path d="M80 40 C80 41.9, 79.86 43.81, 79.59 45.69 C79.32 47.57, 78.91 49.45, 78.38 51.27 C77.85 53.09, 77.17 54.89, 76.39 56.62 C75.6 58.34, 74.68 60.03, 73.65 61.63 C72.62 63.22, 71.47 64.76, 70.23 66.19 C68.99 67.63, 67.63 68.99, 66.19 70.23 C64.76 71.47, 63.22 72.62, 61.63 73.65 C60.03 74.68, 58.34 75.6, 56.62 76.39 C54.89 77.17, 53.09 77.85, 51.27 78.38 C49.45 78.91, 47.57 79.32, 45.69 79.59 C43.81 79.86, 41.9 80, 40 80 C38.1 80, 36.19 79.86, 34.31 79.59 C32.43 79.32, 30.55 78.91, 28.73 78.38 C26.91 77.85, 25.11 77.17, 23.38 76.39 C21.66 75.6, 19.97 74.68, 18.37 73.65 C16.78 72.62, 15.24 71.47, 13.81 70.23 C12.37 68.99, 11.01 67.63, 9.77 66.19 C8.53 64.76, 7.38 63.22, 6.35 61.63 C5.32 60.03, 4.4 58.34, 3.61 56.62 C2.83 54.89, 2.15 53.09, 1.62 51.27 C1.09 49.45, 0.68 47.57, 0.41 45.69 C0.14 43.81, 0 41.9, 0 40 C0 38.1, 0.14 36.19, 0.41 34.31 C0.68 32.43, 1.09 30.55, 1.62 28.73 C2.15 26.91, 2.83 25.11, 3.61 23.38 C4.4 21.66, 5.32 19.97, 6.35 18.37 C7.38 16.78, 8.53 15.24, 9.77 13.81 C11.01 12.37, 12.37 11.01, 13.81 9.77 C15.24 8.53, 16.78 7.38, 18.37 6.35 C19.97 5.32, 21.66 4.4, 23.38 3.61 C25.11 2.83, 26.91 2.15, 28.73 1.62 C30.55 1.09, 32.43 0.68, 34.31 0.41 C36.19 0.14, 38.1 0, 40 0 C41.9 0, 43.81 0.14, 45.69 0.41 C47.57 0.68, 49.45 1.09, 51.27 1.62 C53.09 2.15, 54.89 2.83, 56.62 3.61 C58.34 4.4, 60.03 5.32, 61.63 6.35 C63.22 7.38, 64.76 8.53, 66.19 9.77 C67.63 11.01, 68.99 12.37, 70.23 13.81 C71.47 15.24, 72.62 16.78, 73.65 18.37 C74.68 19.97, 75.6 21.66, 76.39 23.38 C77.17 25.11, 77.85 26.91, 78.38 28.73 C78.91 30.55, 79.32 32.43, 79.59 34.31 C79.86 36.19, 79.93 39.05, 80 40 C80.07 40.95, 80.07 39.05, 80 40" stroke="none" stroke-width="0" fill="#e9ecef"/><path d="M80 40 C80 41.9, 79.86 43.81, 79.59 45.69 C79.32 47.57, 78.91 49.45, 78.38 51.27 C77.85 53.09, 77.17 54.89, 76.39 56.62 C75.6 58.34, 74.68 60.03, 73.65 61.63 C72.62 63.22, 71.47 64.76, 70.23 66.19 C68.99 67.63, 67.63 68.99, 66.19 70.23 C64.76 71.47, 63.22 72.62, 61.63 73.65 C60.03 74.68, 58.34 75.6, 56.62 76.39 C54.89 77.17, 53.09 77.85, 51.27 78.38 C49.45 78.91, 47.57 79.32, 45.69 79.59 C43.81 79.86, 41.9 80, 40 80 C38.1 80, 36.19 79.86, 34.31 79.59 C32.43 79.32, 30.55 78.91, 28.73 78.38 C26.91 77.85, 25.11 77.17, 23.38 76.39 C21.66 75.6, 19.97 74.68, 18.37 73.65 C16.78 72.62, 15.24 71.47, 13.81 70.23 C12.37 68.99, 11.01 67.63, 9.77 66.19 C8.53 64.76, 7.38 63.22, 6.35 61.63 C5.32 60.03, 4.4 58.34, 3.61 56.62 C2.83 54.89, 2.15 53.09, 1.62 51.27 C1.09 49.45, 0.68 47.57, 0.41 45.69 C0.14 43.81, 0 41.9, 0 40 C0 38.1, 0.14 36.19, 0.41 34.31 C0.68 32.43, 1.09 30.55, 1.62 28.73 C2.15 26.91, 2.83 25.11, 3.61 23.38 C4.4 21.66, 5.32 19.97, 6.35 18.37 C7.38 16.78, 8.53 15.24, 9.77 13.81 C11.01 12.37, 12.37 11.01, 13.81 9.77 C15.24 8.53, 16.78 7.38, 18.37 6.35 C19.97 5.32, 21.66 4.4, 23.38 3.61 C25.11 2.83, 26.91 2.15, 28.73 1.62 C30.55 1.09, 32.43 0.68, 34.31 0.41 C36.19 0.14, 38.1 0, 40 0 C41.9 0, 43.81 0.14, 45.69 0.41 C47.57 0.68, 49.45 1.09, 51.27 1.62 C53.09 2.15, 54.89 2.83, 56.62 3.61 C58.34 4.4, 60.03 5.32, 61.63 6.35 C63.22 7.38, 64.76 8.53, 66.19 9.77 C67.63 11.01, 68.99 12.37, 70.23 13.81 C71.47 15.24, 72.62 16.78, 73.65 18.37 C74.68 19.97, 75.6 21.66, 76.39 23.38 C77.17 25.11, 77.85 26.91, 78.38 28.73 C78.91 30.55, 79.32 32.43, 79.59 34.31 C79.86 36.19, 79.93 39.05, 80 40 C80.07 40.95, 80.07 39.05, 80 40" stroke="#1e1e1e" stroke-width="2" fill="none"/></g><g transform="translate(900.8778381275381 474.1157287525381) rotate(0 9.337890625 16.099999999999994)"><text x="9.337890625" y="0" font-family="Helvetica, Segoe UI Emoji" font-size="28px" fill="#1e1e1e" text-anchor="middle" style="white-space: pre;" direction="ltr" dominant-baseline="text-before-edge">A</text></g><g stroke-linecap="round"><g transform="translate(910 311) rotate(0 0 69)"><path d="M0 0 C0 23, 0 115, 0 138 M0 0 C0 23, 0 115, 0 138" stroke="#1e1e1e" stroke-width="1" fill="none"/></g><g transform="translate(910 311) rotate(0 0 69)"><path d="M0 138 L-6.34 124.41 L6.34 124.41 L0 138" stroke="none" stroke-width="0" fill="#1e1e1e" fill-rule="evenodd"/><path d="M0 138 C-2.04 133.62, -4.08 129.24, -6.34 124.41 M0 138 C-2.09 133.52, -4.18 129.04, -6.34 124.41 M-6.34 124.41 C-2.36 124.41, 1.61 124.41, 6.34 124.41 M-6.34 124.41 C-3.64 124.41, -0.94 124.41, 6.34 124.41 M6.34 124.41 C4.61 128.11, 2.89 131.81, 0 138 M6.34 124.41 C4.03 129.36, 1.72 134.31, 0 138 M0 138 C0 138, 0 138, 0 138 M0 138 C0 138, 0 138, 0 138" stroke="#1e1e1e" stroke-width="1" fill="none"/></g></g><mask/><g stroke-linecap="round"><g transform="translate(351.26081689954356 530.9806093261902) rotate(0 25.751605775198925 40.35258575188814)"><path d="M0 0 C8.58 13.45, 42.92 67.25, 51.5 80.71 M0 0 C8.58 13.45, 42.92 67.25, 51.5 80.71" stroke="#1e1e1e" stroke-width="1" fill="none"/></g><g transform="translate(351.26081689954356 530.9806093261902) rotate(0 25.751605775198925 40.35258575188814)"><path d="M51.5 80.71 L38.85 72.66 L49.53 65.84 L51.5 80.71" stroke="none" stroke-width="0" fill="#1e1e1e" fill-rule="evenodd"/><path d="M51.5 80.71 C47.42 78.11, 43.33 75.51, 38.85 72.66 M51.5 80.71 C46.57 77.57, 41.64 74.43, 38.85 72.66 M38.85 72.66 C41.61 70.89, 44.37 69.13, 49.53 65.84 M38.85 72.66 C41.42 71.01, 43.99 69.37, 49.53 65.84 M49.53 65.84 C50.12 70.25, 50.7 74.66, 51.5 80.71 M49.53 65.84 C50 69.35, 50.47 72.87, 51.5 80.71 M51.5 80.71 C51.5 80.71, 51.5 80.71, 51.5 80.71 M51.5 80.71 C51.5 80.71, 51.5 80.71, 51.5 80.71" stroke="#1e1e1e" stroke-width="1" fill="none"/></g></g><mask/><g stroke-linecap="round" transform="translate(370 609.0049180819083) rotate(0 40 40)"><path d="M80 40 C80 41.9, 79.86 43.81, 79.59 45.69 C79.32 47.57, 78.91 49.45, 78.38 51.27 C77.85 53.09, 77.17 54.89, 76.39 56.62 C75.6 58.34, 74.68 60.03, 73.65 61.63 C72.62 63.22, 71.47 64.76, 70.23 66.19 C68.99 67.63, 67.63 68.99, 66.19 70.23 C64.76 71.47, 63.22 72.62, 61.63 73.65 C60.03 74.68, 58.34 75.6, 56.62 76.39 C54.89 77.17, 53.09 77.85, 51.27 78.38 C49.45 78.91, 47.57 79.32, 45.69 79.59 C43.81 79.86, 41.9 80, 40 80 C38.1 80, 36.19 79.86, 34.31 79.59 C32.43 79.32, 30.55 78.91, 28.73 78.38 C26.91 77.85, 25.11 77.17, 23.38 76.39 C21.66 75.6, 19.97 74.68, 18.37 73.65 C16.78 72.62, 15.24 71.47, 13.81 70.23 C12.37 68.99, 11.01 67.63, 9.77 66.19 C8.53 64.76, 7.38 63.22, 6.35 61.63 C5.32 60.03, 4.4 58.34, 3.61 56.62 C2.83 54.89, 2.15 53.09, 1.62 51.27 C1.09 49.45, 0.68 47.57, 0.41 45.69 C0.14 43.81, 0 41.9, 0 40 C0 38.1, 0.14 36.19, 0.41 34.31 C0.68 32.43, 1.09 30.55, 1.62 28.73 C2.15 26.91, 2.83 25.11, 3.61 23.38 C4.4 21.66, 5.32 19.97, 6.35 18.37 C7.38 16.78, 8.53 15.24, 9.77 13.81 C11.01 12.37, 12.37 11.01, 13.81 9.77 C15.24 8.53, 16.78 7.38, 18.37 6.35 C19.97 5.32, 21.66 4.4, 23.38 3.61 C25.11 2.83, 26.91 2.15, 28.73 1.62 C30.55 1.09, 32.43 0.68, 34.31 0.41 C36.19 0.14, 38.1 0, 40 0 C41.9 0, 43.81 0.14, 45.69 0.41 C47.57 0.68, 49.45 1.09, 51.27 1.62 C53.09 2.15, 54.89 2.83, 56.62 3.61 C58.34 4.4, 60.03 5.32, 61.63 6.35 C63.22 7.38, 64.76 8.53, 66.19 9.77 C67.63 11.01, 68.99 12.37, 70.23 13.81 C71.47 15.24, 72.62 16.78, 73.65 18.37 C74.68 19.97, 75.6 21.66, 76.39 23.38 C77.17 25.11, 77.85 26.91, 78.38 28.73 C78.91 30.55, 79.32 32.43, 79.59 34.31 C79.86 36.19, 79.93 39.05, 80 40 C80.07 40.95, 80.07 39.05, 80 40" stroke="none" stroke-width="0" fill="#e9ecef"/><path d="M80 40 C80 41.9, 79.86 43.81, 79.59 45.69 C79.32 47.57, 78.91 49.45, 78.38 51.27 C77.85 53.09, 77.17 54.89, 76.39 56.62 C75.6 58.34, 74.68 60.03, 73.65 61.63 C72.62 63.22, 71.47 64.76, 70.23 66.19 C68.99 67.63, 67.63 68.99, 66.19 70.23 C64.76 71.47, 63.22 72.62, 61.63 73.65 C60.03 74.68, 58.34 75.6, 56.62 76.39 C54.89 77.17, 53.09 77.85, 51.27 78.38 C49.45 78.91, 47.57 79.32, 45.69 79.59 C43.81 79.86, 41.9 80, 40 80 C38.1 80, 36.19 79.86, 34.31 79.59 C32.43 79.32, 30.55 78.91, 28.73 78.38 C26.91 77.85, 25.11 77.17, 23.38 76.39 C21.66 75.6, 19.97 74.68, 18.37 73.65 C16.78 72.62, 15.24 71.47, 13.81 70.23 C12.37 68.99, 11.01 67.63, 9.77 66.19 C8.53 64.76, 7.38 63.22, 6.35 61.63 C5.32 60.03, 4.4 58.34, 3.61 56.62 C2.83 54.89, 2.15 53.09, 1.62 51.27 C1.09 49.45, 0.68 47.57, 0.41 45.69 C0.14 43.81, 0 41.9, 0 40 C0 38.1, 0.14 36.19, 0.41 34.31 C0.68 32.43, 1.09 30.55, 1.62 28.73 C2.15 26.91, 2.83 25.11, 3.61 23.38 C4.4 21.66, 5.32 19.97, 6.35 18.37 C7.38 16.78, 8.53 15.24, 9.77 13.81 C11.01 12.37, 12.37 11.01, 13.81 9.77 C15.24 8.53, 16.78 7.38, 18.37 6.35 C19.97 5.32, 21.66 4.4, 23.38 3.61 C25.11 2.83, 26.91 2.15, 28.73 1.62 C30.55 1.09, 32.43 0.68, 34.31 0.41 C36.19 0.14, 38.1 0, 40 0 C41.9 0, 43.81 0.14, 45.69 0.41 C47.57 0.68, 49.45 1.09, 51.27 1.62 C53.09 2.15, 54.89 2.83, 56.62 3.61 C58.34 4.4, 60.03 5.32, 61.63 6.35 C63.22 7.38, 64.76 8.53, 66.19 9.77 C67.63 11.01, 68.99 12.37, 70.23 13.81 C71.47 15.24, 72.62 16.78, 73.65 18.37 C74.68 19.97, 75.6 21.66, 76.39 23.38 C77.17 25.11, 77.85 26.91, 78.38 28.73 C78.91 30.55, 79.32 32.43, 79.59 34.31 C79.86 36.19, 79.93 39.05, 80 40 C80.07 40.95, 80.07 39.05, 80 40" stroke="#1e1e1e" stroke-width="2" fill="none"/></g><g stroke-linecap="round"><g transform="translate(348.89349393244265 530.9850661134328) rotate(0 -22.24870967273182 39.81518037192146)"><path d="M0 0 C-7.42 13.27, -37.08 66.36, -44.5 79.63 M0 0 C-7.42 13.27, -37.08 66.36, -44.5 79.63" stroke="#1e1e1e" stroke-width="1" fill="none"/></g><g transform="translate(348.89349393244265 530.9850661134328) rotate(0 -22.24870967273182 39.81518037192146)"><path d="M-44.5 79.63 L-43.4 64.67 L-32.33 70.86 L-44.5 79.63" stroke="none" stroke-width="0" fill="#1e1e1e" fill-rule="evenodd"/><path d="M-44.5 79.63 C-44.21 75.76, -43.93 71.88, -43.4 64.67 M-44.5 79.63 C-44.09 74.13, -43.69 68.62, -43.4 64.67 M-43.4 64.67 C-39.26 66.99, -35.12 69.3, -32.33 70.86 M-43.4 64.67 C-40.57 66.25, -37.74 67.83, -32.33 70.86 M-32.33 70.86 C-36.49 73.86, -40.65 76.86, -44.5 79.63 M-32.33 70.86 C-36.1 73.57, -39.86 76.29, -44.5 79.63 M-44.5 79.63 C-44.5 79.63, -44.5 79.63, -44.5 79.63 M-44.5 79.63 C-44.5 79.63, -44.5 79.63, -44.5 79.63" stroke="#1e1e1e" stroke-width="1" fill="none"/></g></g><mask/><g stroke-linecap="round" transform="translate(250 609.0049180819083) rotate(0 40 40)"><path d="M80 40 C80 41.9, 79.86 43.81, 79.59 45.69 C79.32 47.57, 78.91 49.45, 78.38 51.27 C77.85 53.09, 77.17 54.89, 76.39 56.62 C75.6 58.34, 74.68 60.03, 73.65 61.63 C72.62 63.22, 71.47 64.76, 70.23 66.19 C68.99 67.63, 67.63 68.99, 66.19 70.23 C64.76 71.47, 63.22 72.62, 61.63 73.65 C60.03 74.68, 58.34 75.6, 56.62 76.39 C54.89 77.17, 53.09 77.85, 51.27 78.38 C49.45 78.91, 47.57 79.32, 45.69 79.59 C43.81 79.86, 41.9 80, 40 80 C38.1 80, 36.19 79.86, 34.31 79.59 C32.43 79.32, 30.55 78.91, 28.73 78.38 C26.91 77.85, 25.11 77.17, 23.38 76.39 C21.66 75.6, 19.97 74.68, 18.37 73.65 C16.78 72.62, 15.24 71.47, 13.81 70.23 C12.37 68.99, 11.01 67.63, 9.77 66.19 C8.53 64.76, 7.38 63.22, 6.35 61.63 C5.32 60.03, 4.4 58.34, 3.61 56.62 C2.83 54.89, 2.15 53.09, 1.62 51.27 C1.09 49.45, 0.68 47.57, 0.41 45.69 C0.14 43.81, 0 41.9, 0 40 C0 38.1, 0.14 36.19, 0.41 34.31 C0.68 32.43, 1.09 30.55, 1.62 28.73 C2.15 26.91, 2.83 25.11, 3.61 23.38 C4.4 21.66, 5.32 19.97, 6.35 18.37 C7.38 16.78, 8.53 15.24, 9.77 13.81 C11.01 12.37, 12.37 11.01, 13.81 9.77 C15.24 8.53, 16.78 7.38, 18.37 6.35 C19.97 5.32, 21.66 4.4, 23.38 3.61 C25.11 2.83, 26.91 2.15, 28.73 1.62 C30.55 1.09, 32.43 0.68, 34.31 0.41 C36.19 0.14, 38.1 0, 40 0 C41.9 0, 43.81 0.14, 45.69 0.41 C47.57 0.68, 49.45 1.09, 51.27 1.62 C53.09 2.15, 54.89 2.83, 56.62 3.61 C58.34 4.4, 60.03 5.32, 61.63 6.35 C63.22 7.38, 64.76 8.53, 66.19 9.77 C67.63 11.01, 68.99 12.37, 70.23 13.81 C71.47 15.24, 72.62 16.78, 73.65 18.37 C74.68 19.97, 75.6 21.66, 76.39 23.38 C77.17 25.11, 77.85 26.91, 78.38 28.73 C78.91 30.55, 79.32 32.43, 79.59 34.31 C79.86 36.19, 79.93 39.05, 80 40 C80.07 40.95, 80.07 39.05, 80 40" stroke="none" stroke-width="0" fill="#e9ecef"/><path d="M80 40 C80 41.9, 79.86 43.81, 79.59 45.69 C79.32 47.57, 78.91 49.45, 78.38 51.27 C77.85 53.09, 77.17 54.89, 76.39 56.62 C75.6 58.34, 74.68 60.03, 73.65 61.63 C72.62 63.22, 71.47 64.76, 70.23 66.19 C68.99 67.63, 67.63 68.99, 66.19 70.23 C64.76 71.47, 63.22 72.62, 61.63 73.65 C60.03 74.68, 58.34 75.6, 56.62 76.39 C54.89 77.17, 53.09 77.85, 51.27 78.38 C49.45 78.91, 47.57 79.32, 45.69 79.59 C43.81 79.86, 41.9 80, 40 80 C38.1 80, 36.19 79.86, 34.31 79.59 C32.43 79.32, 30.55 78.91, 28.73 78.38 C26.91 77.85, 25.11 77.17, 23.38 76.39 C21.66 75.6, 19.97 74.68, 18.37 73.65 C16.78 72.62, 15.24 71.47, 13.81 70.23 C12.37 68.99, 11.01 67.63, 9.77 66.19 C8.53 64.76, 7.38 63.22, 6.35 61.63 C5.32 60.03, 4.4 58.34, 3.61 56.62 C2.83 54.89, 2.15 53.09, 1.62 51.27 C1.09 49.45, 0.68 47.57, 0.41 45.69 C0.14 43.81, 0 41.9, 0 40 C0 38.1, 0.14 36.19, 0.41 34.31 C0.68 32.43, 1.09 30.55, 1.62 28.73 C2.15 26.91, 2.83 25.11, 3.61 23.38 C4.4 21.66, 5.32 19.97, 6.35 18.37 C7.38 16.78, 8.53 15.24, 9.77 13.81 C11.01 12.37, 12.37 11.01, 13.81 9.77 C15.24 8.53, 16.78 7.38, 18.37 6.35 C19.97 5.32, 21.66 4.4, 23.38 3.61 C25.11 2.83, 26.91 2.15, 28.73 1.62 C30.55 1.09, 32.43 0.68, 34.31 0.41 C36.19 0.14, 38.1 0, 40 0 C41.9 0, 43.81 0.14, 45.69 0.41 C47.57 0.68, 49.45 1.09, 51.27 1.62 C53.09 2.15, 54.89 2.83, 56.62 3.61 C58.34 4.4, 60.03 5.32, 61.63 6.35 C63.22 7.38, 64.76 8.53, 66.19 9.77 C67.63 11.01, 68.99 12.37, 70.23 13.81 C71.47 15.24, 72.62 16.78, 73.65 18.37 C74.68 19.97, 75.6 21.66, 76.39 23.38 C77.17 25.11, 77.85 26.91, 78.38 28.73 C78.91 30.55, 79.32 32.43, 79.59 34.31 C79.86 36.19, 79.93 39.05, 80 40 C80.07 40.95, 80.07 39.05, 80 40" stroke="#1e1e1e" stroke-width="2" fill="none"/></g><g stroke-linecap="round" transform="translate(750 10) rotate(0 170 350)"><path d="M32 0 M32 0 C104.56 0, 177.13 0, 308 0 M32 0 C111.08 0, 190.16 0, 308 0 M308 0 C329.33 0, 340 10.67, 340 32 M308 0 C329.33 0, 340 10.67, 340 32 M340 32 C340 258.79, 340 485.57, 340 668 M340 32 C340 234.46, 340 436.92, 340 668 M340 668 C340 689.33, 329.33 700, 308 700 M340 668 C340 689.33, 329.33 700, 308 700 M308 700 C243.23 700, 178.47 700, 32 700 M308 700 C237.78 700, 167.55 700, 32 700 M32 700 C10.67 700, 0 689.33, 0 668 M32 700 C10.67 700, 0 689.33, 0 668 M0 668 C0 439.93, 0 211.86, 0 32 M0 668 C0 499.88, 0 331.77, 0 32 M0 32 C0 10.67, 10.67 0, 32 0 M0 32 C0 10.67, 10.67 0, 32 0" stroke="#1e1e1e" stroke-width="1" fill="none"/></g><g transform="translate(430 330) rotate(0 87.2705078125 23)"><text x="0" y="0" font-family="Helvetica, Segoe UI Emoji" font-size="20px" fill="#e03131" text-anchor="start" style="white-space: pre;" direction="ltr" dominant-baseline="text-before-edge">transfer unspecified</text><text x="0" y="23" font-family="Helvetica, Segoe UI Emoji" font-size="20px" fill="#e03131" text-anchor="start" style="white-space: pre;" direction="ltr" dominant-baseline="text-before-edge">parents</text></g></svg>